<?xml version="1.0" encoding="UTF-8" standalone="no"?>
<svg
   xmlns:dc="http://purl.org/dc/elements/1.1/"
   xmlns:cc="http://creativecommons.org/ns#"
   xmlns:rdf="http://www.w3.org/1999/02/22-rdf-syntax-ns#"
   xmlns:svg="http://www.w3.org/2000/svg"
   xmlns="http://www.w3.org/2000/svg"
   xmlns:sodipodi="http://sodipodi.sourceforge.net/DTD/sodipodi-0.dtd"
   xmlns:inkscape="http://www.inkscape.org/namespaces/inkscape"
   height="120"
   width="220"
   id="svg4395"
   version="1.1"
   viewBox="0 0 219.99999 120"
   sodipodi:docname="activate-mozilla-black.svg"
   inkscape:version="0.92+devel unknown">
  <sodipodi:namedview
     pagecolor="#ffffff"
     bordercolor="#666666"
     inkscape:document-rotation="0"
     borderopacity="1"
     objecttolerance="10"
     gridtolerance="10"
     guidetolerance="10"
     inkscape:pageopacity="0"
     inkscape:pageshadow="2"
     inkscape:window-width="1920"
     inkscape:window-height="1016"
     id="namedview3529"
     showgrid="false"
     inkscape:zoom="5.7045455"
     inkscape:cx="110"
     inkscape:cy="60"
     inkscape:window-x="0"
     inkscape:window-y="27"
     inkscape:window-maximized="1"
     inkscape:current-layer="svg4395"
     showguides="true"
     inkscape:guide-bbox="true">
    <sodipodi:guide
       position="4.5577687,63.282869"
       orientation="1,0"
       id="guide4369"
       inkscape:locked="false" />
  </sodipodi:namedview>
  <metadata
     id="metadata4399">
    <rdf:RDF>
      <cc:Work
         rdf:about="">
        <dc:format>image/svg+xml</dc:format>
        <dc:type
           rdf:resource="http://purl.org/dc/dcmitype/StillImage" />
        <dc:title>Asset 2</dc:title>
      </cc:Work>
    </rdf:RDF>
  </metadata>
  <defs
     id="defs4363">
    <style
       id="style4361">.cls-1{fill:#fff;}</style>
  </defs>
  <title
     id="title4365">Asset 2</title>
  <g
     transform="matrix(0.6744531,0,0,0.6744531,0.06185391,7.015617)"
     id="g4387">
    <rect
       class="cls-1"
       x="132.67999"
       y="143.75"
       width="8.4899998"
       height="10.27"
       id="rect4371" />
    <rect
       class="cls-1"
       x="132.67999"
       y="125.43"
       width="8.4899998"
       height="10.27"
       id="rect4373" />
    <polygon
       class="cls-1"
       points="125.45,129.68 124.82,125.43 99.65,125.43 98.64,135.44 104.66,136.08 105.93,131.58 114.8,131.58 99.08,149.71 99.9,154.02 124.94,154.02 126.66,144 120.19,143.43 118.86,147.87 109.6,147.87 "
       id="polygon4375" />
    <path
       inkscape:connector-curvature="0"
       class="cls-1"
       d="m 56.55,134.81 c 0,-6.85 -4.75,-10 -9.76,-10 a 9.6,9.6 0 0 0 -9.38,6.21 c -1.33,-4.25 -5.14,-6.21 -9.32,-6.21 a 9.59,9.59 0 0 0 -8.68,4.88 v -4.31 h -12 v 6.21 h 3.8 v 16.23 H 7.42 V 154 h 17.37 v -6.15 H 19.4 v -10 c 0,-4 1.65,-6.78 5.51,-6.78 3.17,0 4.88,2 4.88,6.91 v 16 h 12 v -6.15 H 38 v -10 c 0,-4 1.58,-6.78 5.45,-6.78 3.36,0 5,2 5,6.91 v 16 h 12 v -6.15 h -3.9 z"
       id="path4377" />
    <path
       inkscape:connector-curvature="0"
       class="cls-1"
       d="m 79.24,124.86 c -10.27,0 -15.34,6.91 -15.34,15.28 0,9.19 6,14.52 14.9,14.52 9.13,0 15.78,-5.77 15.78,-14.83 0,-8.06 -5.07,-14.97 -15.34,-14.97 z M 79,148.37 c -4.37,0 -6.72,-3.87 -6.72,-8.75 0,-5.33 2.66,-8.49 6.85,-8.49 3.87,0 7,2.66 7,8.37 -0.04,5.5 -2.83,8.87 -7.13,8.87 z"
       id="path4379" />
    <path
       inkscape:connector-curvature="0"
       class="cls-1"
       d="m 211,149.2 c -1.33,0 -2,-0.51 -2,-2.22 v -12.36 c 0,-6.53 -5.33,-9.76 -11.35,-9.76 -4.69,0 -7.35,0.63 -12.3,2.6 l -1.07,6.54 6.47,0.76 1,-3.23 a 8.33,8.33 0 0 1 4.44,-0.82 c 4.56,0 4.56,3.42 4.56,6.4 v 1 a 26.79,26.79 0 0 0 -4.56,-0.25 c -6.66,0 -13.31,1.65 -13.31,8.62 0,6 4.63,8.18 8.75,8.18 A 10.24,10.24 0 0 0 200.7,149 c 0.44,3.49 2.47,5.64 6.34,5.64 a 11,11 0 0 0 5.14,-1.33 L 212,149 a 2.41,2.41 0 0 1 -1,0.2 z m -16.42,-0.32 a 3.1,3.1 0 0 1 -3.42,-3.3 c 0,-3.23 2.6,-4 5.52,-4 a 29.33,29.33 0 0 1 4.06,0.38 c -0.24,4.7 -3.28,6.92 -6.19,6.92 z"
       id="path4381" />
    <polygon
       class="cls-1"
       points="158.92,110.4 146.56,154.02 154.61,154.02 166.97,110.4 "
       id="polygon4383" />
    <polygon
       class="cls-1"
       points="175.47,110.4 163.17,154.02 171.16,154.02 183.52,110.4 "
       id="polygon4385" />
    <path
       inkscape:connector-curvature="0"
       d="m 191.12,145.59 a 3.1,3.1 0 0 0 3.42,3.3 c 2.92,0 6,-2.22 6.15,-6.91 a 29.33,29.33 0 0 0 -4.06,-0.38 c -2.91,-0.01 -5.51,0.75 -5.51,3.99 z"
       id="path4387" />
    <path
       inkscape:connector-curvature="0"
       d="m 79.11,131.13 c -4.18,0 -6.85,3.17 -6.85,8.49 0,4.88 2.35,8.75 6.72,8.75 4.37,0 7.1,-3.42 7.1,-8.87 0.01,-5.71 -3.08,-8.37 -6.97,-8.37 z"
       id="path4389" />
    <path
       inkscape:connector-curvature="0"
       d="m 0.19,95.89 v 71.63 h 219 V 95.89 Z M 60.41,154 h -12 v -16 c 0,-4.94 -1.65,-6.91 -5,-6.91 -3.87,0 -5.45,2.79 -5.45,6.78 v 10 h 3.8 V 154 h -12 v -16 c 0,-4.94 -1.71,-6.91 -4.88,-6.91 -3.87,0 -5.51,2.79 -5.51,6.78 v 10 h 5.39 V 154 H 7.42 v -6.15 h 3.8 v -16.21 h -3.8 v -6.21 h 12 v 4.31 a 9.59,9.59 0 0 1 8.68,-4.88 c 4.18,0 8,2 9.32,6.21 a 9.6,9.6 0 0 1 9.38,-6.21 c 5,0 9.76,3.11 9.76,10 v 13.06 h 3.87 z m 18.38,0.63 c -8.87,0 -14.9,-5.32 -14.9,-14.52 0,-8.37 5.07,-15.28 15.34,-15.28 10.27,0 15.34,6.91 15.34,15 0.01,9.05 -6.65,14.82 -15.78,14.82 z M 124.94,154 h -25 l -0.82,-4.31 15.72,-18.13 h -8.88 l -1.27,4.5 -6,-0.63 1,-10 h 25.17 l 0.63,4.25 -15.89,18.19 h 9.26 l 1.33,-4.44 6.47,0.57 z m 16.23,0 h -8.49 v -10.25 h 8.49 z m 0,-18.32 h -8.49 v -10.25 h 8.49 z m 5.39,18.32 12.36,-43.61 H 167 L 154.61,154 Z m 16.61,0 12.3,-43.61 h 8.05 L 171.16,154 Z m 43.87,0.63 c -3.87,0 -5.89,-2.16 -6.34,-5.64 a 10.24,10.24 0 0 1 -9.13,5.64 c -4.12,0 -8.75,-2.16 -8.75,-8.18 0,-7 6.66,-8.62 13.31,-8.62 a 26.79,26.79 0 0 1 4.56,0.25 v -1 c 0,-3 0,-6.4 -4.56,-6.4 a 8.33,8.33 0 0 0 -4.44,0.82 l -1,3.23 -6.47,-0.76 1.08,-6.59 c 4.94,-2 7.61,-2.6 12.3,-2.6 6,0 11.35,3.23 11.35,9.76 V 147 c 0,1.71 0.63,2.22 2,2.22 A 2.41,2.41 0 0 0 212,149 l 0.13,4.31 a 11,11 0 0 1 -5.13,1.34 z"
       id="path4391" />
  </g>
  <rect
     style="fill:#000000;fill-opacity:1;stroke-width:2.41314983"
     id="rect4372"
     width="198.23384"
     height="48.311001"
     x="0"
     y="17.736704" />
  <text
     id="text4430"
     y="59.166542"
     x="4.9545975"
     style="font-style:normal;font-weight:normal;font-size:53.9822998px;line-height:26.9911499px;font-family:sans-serif;letter-spacing:0px;word-spacing:0px;fill:#ffffff;fill-opacity:1;stroke:none;stroke-width:1.34955776px;stroke-linecap:butt;stroke-linejoin:miter;stroke-opacity:1"
     xml:space="preserve"><tspan
       style="font-style:normal;font-variant:normal;font-weight:normal;font-stretch:normal;font-family:'Zilla Slab Highlight';-inkscape-font-specification:'Zilla Slab Highlight';letter-spacing:0px;fill:#ffffff;fill-opacity:1;stroke-width:1.34955776px"
       y="59.166542"
       x="4.9545975"
       id="tspan4428"><tspan
         style="font-style:normal;font-variant:normal;font-weight:300;font-stretch:normal;font-family:'Zilla Slab';-inkscape-font-specification:'Zilla Slab Light';fill:#ffffff;fill-opacity:1"
         id="tspan4367">Activate</tspan></tspan></text>
</svg>
