<?xml version="1.0" encoding="UTF-8"?>
<svg width="78px" height="22px" viewBox="0 0 78 22" version="1.1" xmlns="http://www.w3.org/2000/svg" xmlns:xlink="http://www.w3.org/1999/xlink">
    <!-- Generator: Sketch 46 (44423) - http://www.bohemiancoding.com/sketch -->
    <title>logo / mozilla-primary</title>
    <desc>Created with Sketch.</desc>
    <defs></defs>
    <g id="Symbols" stroke="none" stroke-width="1" fill="none" fill-rule="evenodd">
        <g id="logo-/-mozilla-primary">
            <g id="moz-logo-bw-rgb">
                <polygon id="Fill-1" fill="#0A0B09" points="0 21.9871845 78 21.9871845 78 0.0138834951 0 0.0138834951"></polygon>
                <path d="M21.3954,15.3925243 L22.69345,15.3925243 L22.69345,17.4827379 L18.6043,17.4827379 L18.6043,12.0651845 C18.6043,10.4017282 18.0418333,9.76201942 16.93835,9.76201942 C15.5969667,9.76201942 15.0561667,10.7003301 15.0561667,12.0440388 L15.0561667,15.3925243 L16.3542167,15.3925243 L16.3542167,17.4827379 L12.2652833,17.4827379 L12.2652833,12.0651845 C12.2652833,10.4017282 11.7026,9.76201942 10.5991167,9.76201942 C9.25773333,9.76201942 8.71693333,10.7003301 8.71693333,12.0440388 L8.71693333,15.3925243 L10.5776667,15.3925243 L10.5776667,17.4827379 L4.62778333,17.4827379 L4.62778333,15.3925243 L5.92605,15.3925243 L5.92605,9.95382524 L4.62778333,9.95382524 L4.62778333,7.86361165 L8.71693333,7.86361165 L8.71693333,9.31390291 C9.30106667,8.29036893 10.3181,7.67180583 11.6809333,7.67180583 C13.0873167,7.67180583 14.3853667,8.33287379 14.8613833,9.7404466 C15.4021833,8.46081553 16.5056667,7.67180583 18.0418333,7.67180583 C19.7942333,7.67180583 21.3954,8.71669903 21.3954,10.9991456 L21.3954,15.3925243 Z M29.0786167,15.5845437 C27.5641167,15.5845437 26.7854167,14.304699 26.7854167,12.6412427 C26.7854167,10.8282718 27.6722333,9.78337864 29.1002833,9.78337864 C30.42,9.78337864 31.48015,10.6576117 31.48015,12.5985243 C31.48015,14.4328544 30.5281167,15.5845437 29.0786167,15.5845437 Z M29.1436167,7.67180583 C25.6386,7.67180583 23.9078667,9.99654369 23.9078667,12.8119029 C23.9078667,15.8831456 25.9848333,17.6959029 28.9921667,17.6959029 C32.1076167,17.6959029 34.3577,15.7552039 34.3577,12.6837476 C34.3577,9.99654369 32.6484167,7.67180583 29.1436167,7.67180583 Z M43.12685,13.8997282 L45.3333833,14.1128932 L44.7275833,17.4827379 L36.2032667,17.4827379 L35.9220333,16.0324466 L41.2875667,9.95382524 L38.2371167,9.95382524 L37.8044333,11.446835 L35.79225,11.2334563 L36.1382667,7.86361165 L44.7059167,7.86361165 L44.9223667,9.31390291 L39.5132833,15.3925243 L42.6722833,15.3925243 L43.12685,13.8997282 Z M47.3769833,17.4827379 L50.29765,17.4827379 L50.29765,14.0274563 L47.3769833,14.0274563 L47.3769833,17.4827379 Z M47.3769833,11.3188932 L50.29765,11.3188932 L50.29765,7.86361165 L47.3769833,7.86361165 L47.3769833,11.3188932 Z M59.0910667,2.80873786 L54.87235,17.4827379 L52.1248,17.4827379 L56.3433,2.80873786 L59.0910667,2.80873786 Z M64.7597167,2.80873786 L60.5407833,17.4827379 L57.7930167,17.4827379 L62.01195,2.80873786 L64.7597167,2.80873786 Z M68.5065333,15.7338447 C67.6628333,15.7338447 67.3599333,15.2432233 67.3599333,14.6246602 C67.3599333,13.5795534 68.2253,13.3023107 69.2206667,13.3023107 C69.6748,13.3023107 70.1724833,13.3663883 70.6268333,13.430466 C70.5618333,15.0298447 69.5019,15.7338447 68.5065333,15.7338447 Z M74.49975,15.7977087 C74.3480833,15.8402136 74.2185167,15.8617864 74.0885167,15.8617864 C73.6341667,15.8617864 73.4177167,15.6699806 73.4177167,15.1152816 L73.4177167,10.935068 C73.4177167,8.73805825 71.6438667,7.67159223 69.5450167,7.67159223 C67.94385,7.67159223 67.0787,7.86361165 65.3694167,8.54625243 L64.9891667,10.7588544 L67.2178,10.9935922 L67.5328333,9.9111068 C67.9874,9.67658252 68.44175,9.63386408 69.0256667,9.63386408 C70.6051667,9.63386408 70.6268333,10.8069126 70.6268333,11.7879417 L70.6268333,12.1079029 C70.1293667,12.0440388 69.5666833,12.0226796 69.0256667,12.0226796 C66.79725,12.0226796 64.4826,12.577165 64.4826,14.9446214 C64.4826,16.9493981 66.0833333,17.6961165 67.4895,17.6961165 C69.069,17.6961165 70.06415,16.7575922 70.6268333,15.7763495 C70.7566167,16.9493981 71.47075,17.6961165 72.7688,17.6961165 C73.3743833,17.6961165 74.0020667,17.5254563 74.5212,17.248 L74.49975,15.7977087 L74.49975,15.7977087 Z" id="Fill-3" fill="#FFFFFE"></path>
            </g>
        </g>
    </g>
</svg>