<?xml version="1.0" encoding="UTF-8"?>
<svg width="20px" height="20px" viewBox="0 0 20 20" version="1.1" xmlns="http://www.w3.org/2000/svg" xmlns:xlink="http://www.w3.org/1999/xlink">
    <!-- Generator: Sketch 46 (44423) - http://www.bohemiancoding.com/sketch -->
    <title>button / zoom-in</title>
    <desc>Created with Sketch.</desc>
    <defs></defs>
    <g id="Symbols" stroke="none" stroke-width="1" fill="none" fill-rule="evenodd">
        <g id="button-/-zoom-in">
            <g id="buttons-/-zoom-in">
                <rect id="Rectangle" fill="#E8E8E8" x="0" y="0" width="20" height="20"></rect>
                <g id="icon-/-zoom-in" transform="translate(5.000000, 5.000000)" fill="#9B9B9B">
                    <path d="M5,0 C6.37821202,0 7.55608486,0.488777163 8.53365385,1.46634615 C9.51122284,2.44391514 10,3.62178798 10,5 C10,6.37821202 9.51122284,7.55608486 8.53365385,8.53365385 C7.55608486,9.51122284 6.37821202,10 5,10 C3.62178798,10 2.44391514,9.51122284 1.46634615,8.53365385 C0.488777163,7.55608486 0,6.37821202 0,5 C0,3.62178798 0.488777163,2.44391514 1.46634615,1.46634615 C2.44391514,0.488777163 3.62178798,0 5,0 Z M7.57211538,5.50480769 L7.57211538,4.49519231 L5.50480769,4.49519231 L5.50480769,2.42788462 L4.49519231,2.42788462 L4.49519231,4.49519231 L2.42788462,4.49519231 L2.42788462,5.50480769 L4.49519231,5.50480769 L4.49519231,7.57211538 L5.50480769,7.57211538 L5.50480769,5.50480769 L7.57211538,5.50480769 Z" id="zoom-in"></path>
                </g>
            </g>
        </g>
    </g>
</svg>