<?xml version="1.0" encoding="UTF-8"?>
<svg width="176px" height="26px" viewBox="0 0 176 26" version="1.1" xmlns="http://www.w3.org/2000/svg" xmlns:xlink="http://www.w3.org/1999/xlink">
    <!-- Generator: Sketch 46 (44423) - http://www.bohemiancoding.com/sketch -->
    <title>label / location-linked</title>
    <desc>Created with Sketch.</desc>
    <defs></defs>
    <g id="Symbols" stroke="none" stroke-width="1" fill="none" fill-rule="evenodd">
        <g id="label-/-location-linked">
            <g>
                <text id="location" font-family="OpenSans-SemiBold, Open Sans" font-size="14" font-weight="500" line-spacing="26" letter-spacing="0.5" text-decoration="underline" fill="#909090">
                    <tspan x="20" y="15">Mozilla Headquarters</tspan>
                </text>
                <g id="icon-/-location-pin-blue" transform="translate(0.000000, 5.000000)" fill="#558194">
                    <path d="M4.80769231,0.5 C6.1298143,0.5 7.26161388,0.960732572 8.203125,1.88221154 C9.14463612,2.8036905 9.61538462,3.91545823 9.61538462,5.21754808 C9.61538462,6.25921995 9.2147476,7.51121064 8.41346154,8.97355769 C7.61217548,10.4359047 6.81090144,11.6378158 6.00961538,12.5793269 L4.80769231,13.9615385 C4.66746725,13.8213134 4.49218855,13.6260029 4.28185096,13.375601 C4.07151337,13.1251991 3.6909082,12.6394267 3.14002404,11.9182692 C2.58913987,11.1971118 2.10336749,10.495997 1.68269231,9.81490385 C1.26201713,9.1338107 0.876403996,8.36258444 0.525841346,7.50120192 C0.175278696,6.63981941 0,5.87860907 0,5.21754808 C0,3.91545823 0.470748498,2.8036905 1.41225962,1.88221154 C2.35377073,0.960732572 3.48557031,0.5 4.80769231,0.5 Z M4.80769231,6.90024038 C5.28846394,6.90024038 5.69410892,6.73497761 6.02463942,6.40444712 C6.35516992,6.07391662 6.52043269,5.67828756 6.52043269,5.21754808 C6.52043269,4.75680859 6.35516992,4.36117954 6.02463942,4.03064904 C5.69410892,3.70011854 5.28846394,3.53485577 4.80769231,3.53485577 C4.32692067,3.53485577 3.92127569,3.70011854 3.59074519,4.03064904 C3.26021469,4.36117954 3.09495192,4.75680859 3.09495192,5.21754808 C3.09495192,5.67828756 3.26021469,6.07391662 3.59074519,6.40444712 C3.92127569,6.73497761 4.32692067,6.90024038 4.80769231,6.90024038 Z" id="location-pin-blue"></path>
                </g>
            </g>
        </g>
    </g>
</svg>