<?xml version="1.0" encoding="UTF-8"?>
<svg width="575px" height="411px" viewBox="0 0 575 411" version="1.1" xmlns="http://www.w3.org/2000/svg" xmlns:xlink="http://www.w3.org/1999/xlink">
    <!-- Generator: Sketch 46 (44423) - http://www.bohemiancoding.com/sketch -->
    <title>image-gallery / empty</title>
    <desc>Created with Sketch.</desc>
    <defs>
        <rect id="path-1" x="0" y="0" width="575" height="411"></rect>
        <mask id="mask-2" maskContentUnits="userSpaceOnUse" maskUnits="objectBoundingBox" x="0" y="0" width="575" height="411" fill="white">
            <use xlink:href="#path-1"></use>
        </mask>
    </defs>
    <g id="Symbols" stroke="none" stroke-width="1" fill="none" fill-rule="evenodd">
        <g id="image-gallery-/-empty">
            <g id="sections-/-club-images-none">
                <use id="border" stroke="#CFCFCF" mask="url(#mask-2)" stroke-width="2" stroke-dasharray="5,5" xlink:href="#path-1"></use>
                <g id="icon-/-camera-black" opacity="0.103543931" transform="translate(248.000000, 173.000000)" fill="#000000">
                    <path d="M72.5,10.5 C75.0000125,10.5 76.8749937,11.4374906 78.125,13.3125 C79.3750063,15.1875094 80,16.7499938 80,18 L80,58.078125 C80,60.0573016 79.1796957,61.7890551 77.5390625,63.2734375 C75.8984293,64.7578199 74.2708414,65.5 72.65625,65.5 L6.953125,65.5 C5.33853359,65.5 3.77604922,64.7708406 2.265625,63.3125 C0.755200781,61.8541594 0,60.0833438 0,58 L0,17.921875 C0,15.4739461 0.937490625,13.6250062 2.8125,12.375 C4.68750937,11.1249938 6.24999375,10.5 7.5,10.5 L18.984375,10.5 L25,0.5 L55,0.5 L61.015625,10.5 L72.5,10.5 Z M75,58.078125 L75,18 C75,17.8958328 74.8046895,17.4531289 74.4140625,16.671875 C74.0234355,15.8906211 73.3854211,15.5 72.5,15.5 L58.203125,15.5 L56.796875,13.078125 L52.34375,5.5 L27.8125,5.5 L21.796875,15.5 L7.5,15.5 C7.29166562,15.5 6.82292031,15.7083313 6.09375,16.125 C5.36457969,16.5416687 5,17.1406211 5,17.921875 L5,58 C5,58.6770867 5.26041406,59.2630184 5.78125,59.7578125 C6.30208594,60.2526066 6.71874844,60.5 7.03125,60.5 L72.65625,60.5 C73.0208352,60.4479164 73.5026012,60.1484402 74.1015625,59.6015625 C74.7005238,59.0546848 75,58.5468773 75,58.078125 Z M40,18 C42.3958453,18 44.6614477,18.4557246 46.796875,19.3671875 C48.9323023,20.2786504 50.7942629,21.5286379 52.3828125,23.1171875 C53.9713621,24.7057371 55.2213496,26.5676977 56.1328125,28.703125 C57.0442754,30.8385523 57.5,33.1041547 57.5,35.5 C57.5,37.8958453 57.0442754,40.1614477 56.1328125,42.296875 C55.2213496,44.4323023 53.9713621,46.2942629 52.3828125,47.8828125 C50.7942629,49.4713621 48.9323023,50.7213496 46.796875,51.6328125 C44.6614477,52.5442754 42.3958453,53 40,53 C37.6041547,53 35.3385523,52.5442754 33.203125,51.6328125 C31.0676977,50.7213496 29.2057371,49.4713621 27.6171875,47.8828125 C26.0286379,46.2942629 24.7786504,44.4323023 23.8671875,42.296875 C22.9557246,40.1614477 22.5,37.8958453 22.5,35.5 C22.5,33.1041547 22.9557246,30.8385523 23.8671875,28.703125 C24.7786504,26.5676977 26.0286379,24.7057371 27.6171875,23.1171875 C29.2057371,21.5286379 31.0676977,20.2786504 33.203125,19.3671875 C35.3385523,18.4557246 37.6041547,18 40,18 Z M40,48 C43.4375172,48 46.3801961,46.7760539 48.828125,44.328125 C51.2760539,41.8801961 52.5,38.9375172 52.5,35.5 C52.5,32.0624828 51.2760539,29.1198039 48.828125,26.671875 C46.3801961,24.2239461 43.4375172,23 40,23 C36.5624828,23 33.6198039,24.2239461 31.171875,26.671875 C28.7239461,29.1198039 27.5,32.0624828 27.5,35.5 C27.5,38.9375172 28.7239461,41.8801961 31.171875,44.328125 C33.6198039,46.7760539 36.5624828,48 40,48 Z" id="camera-black"></path>
                </g>
                <text id="Club-images-coming-s" font-family="OpenSans-Regular, Open Sans" font-size="16" font-weight="normal" line-spacing="26" fill="#909090">
                    <tspan x="30" y="372">Club images coming soon.</tspan>
                </text>
            </g>
        </g>
    </g>
</svg>