<?xml version="1.0" encoding="UTF-8"?>
<svg width="575px" height="167px" viewBox="0 0 575 167" version="1.1" xmlns="http://www.w3.org/2000/svg" xmlns:xlink="http://www.w3.org/1999/xlink">
    <!-- Generator: Sketch 46 (44423) - http://www.bohemiancoding.com/sketch -->
    <title>event-list / overview-none</title>
    <desc>Created with Sketch.</desc>
    <defs>
        <rect id="path-1" x="0" y="55" width="575" height="112"></rect>
        <mask id="mask-2" maskContentUnits="userSpaceOnUse" maskUnits="objectBoundingBox" x="0" y="0" width="575" height="112" fill="white">
            <use xlink:href="#path-1"></use>
        </mask>
    </defs>
    <g id="Symbols" stroke="none" stroke-width="1" fill="none" fill-rule="evenodd">
        <g id="event-list-/-overview-none">
            <g>
                <use id="background" stroke="#CFCFCF" mask="url(#mask-2)" stroke-width="2" stroke-dasharray="5,5" xlink:href="#path-1"></use>
                <g id="icon-/-calendar-black" transform="translate(0.000000, 5.000000)" fill="#000000">
                    <path d="M18.75,2.125 C19.1015643,2.125 19.3977853,2.2454415 19.6386719,2.48632812 C19.8795585,2.72721475 20,3.02343574 20,3.375 L20,19 C20,19.3385434 19.8795585,19.6315092 19.6386719,19.8789062 C19.3977853,20.1263033 19.1015643,20.25 18.75,20.25 L1.25,20.25 C0.898435742,20.25 0.602214746,20.1263033 0.361328125,19.8789062 C0.120441504,19.6315092 0,19.3385434 0,19 L0,3.375 C0,3.02343574 0.120441504,2.72721475 0.361328125,2.48632812 C0.602214746,2.2454415 0.898435742,2.125 1.25,2.125 L6.25,2.125 L6.25,0.875 C6.25,0.70572832 6.31184834,0.55924541 6.43554688,0.435546875 C6.55924541,0.31184834 6.70572832,0.25 6.875,0.25 C7.04427168,0.25 7.19075459,0.31184834 7.31445312,0.435546875 C7.43815166,0.55924541 7.5,0.70572832 7.5,0.875 L7.5,2.125 L12.5,2.125 L12.5,0.875 C12.5,0.70572832 12.5618483,0.55924541 12.6855469,0.435546875 C12.8092454,0.31184834 12.9557283,0.25 13.125,0.25 C13.2942717,0.25 13.4407546,0.31184834 13.5644531,0.435546875 C13.6881517,0.55924541 13.75,0.70572832 13.75,0.875 L13.75,2.125 L18.75,2.125 Z M18.75,19 L18.75,3.375 L13.75,3.375 L13.75,4 C13.75,4.16927168 13.6881517,4.31575459 13.5644531,4.43945312 C13.4407546,4.56315166 13.2942717,4.625 13.125,4.625 C12.9557283,4.625 12.8092454,4.56315166 12.6855469,4.43945312 C12.5618483,4.31575459 12.5,4.16927168 12.5,4 L12.5,3.375 L7.5,3.375 L7.5,4 C7.5,4.16927168 7.43815166,4.31575459 7.31445312,4.43945312 C7.19075459,4.56315166 7.04427168,4.625 6.875,4.625 C6.70572832,4.625 6.55924541,4.56315166 6.43554688,4.43945312 C6.31184834,4.31575459 6.25,4.16927168 6.25,4 L6.25,3.375 L1.25,3.375 L1.25,19 L18.75,19 Z M14.375,10.25 C14.2057283,10.25 14.0592454,10.1881517 13.9355469,10.0644531 C13.8118483,9.94075459 13.75,9.79427168 13.75,9.625 L13.75,8.375 C13.75,8.20572832 13.8118483,8.05924541 13.9355469,7.93554688 C14.0592454,7.81184834 14.2057283,7.75 14.375,7.75 L15.625,7.75 C15.7942717,7.75 15.9407546,7.81184834 16.0644531,7.93554688 C16.1881517,8.05924541 16.25,8.20572832 16.25,8.375 L16.25,9.625 C16.25,9.79427168 16.1881517,9.94075459 16.0644531,10.0644531 C15.9407546,10.1881517 15.7942717,10.25 15.625,10.25 L14.375,10.25 Z M14.375,15.25 C14.2057283,15.25 14.0592454,15.1881517 13.9355469,15.0644531 C13.8118483,14.9407546 13.75,14.7942717 13.75,14.625 L13.75,13.375 C13.75,13.2057283 13.8118483,13.0592454 13.9355469,12.9355469 C14.0592454,12.8118483 14.2057283,12.75 14.375,12.75 L15.625,12.75 C15.7942717,12.75 15.9407546,12.8118483 16.0644531,12.9355469 C16.1881517,13.0592454 16.25,13.2057283 16.25,13.375 L16.25,14.625 C16.25,14.7942717 16.1881517,14.9407546 16.0644531,15.0644531 C15.9407546,15.1881517 15.7942717,15.25 15.625,15.25 L14.375,15.25 Z M10.625,12.75 C10.7942717,12.75 10.9407546,12.8118483 11.0644531,12.9355469 C11.1881517,13.0592454 11.25,13.2057283 11.25,13.375 L11.25,14.625 C11.25,14.7942717 11.1881517,14.9407546 11.0644531,15.0644531 C10.9407546,15.1881517 10.7942717,15.25 10.625,15.25 L9.375,15.25 C9.20572832,15.25 9.05924541,15.1881517 8.93554688,15.0644531 C8.81184834,14.9407546 8.75,14.7942717 8.75,14.625 L8.75,13.375 C8.75,13.2057283 8.81184834,13.0592454 8.93554688,12.9355469 C9.05924541,12.8118483 9.20572832,12.75 9.375,12.75 L10.625,12.75 Z M10.625,7.75 C10.7942717,7.75 10.9407546,7.81184834 11.0644531,7.93554688 C11.1881517,8.05924541 11.25,8.20572832 11.25,8.375 L11.25,9.625 C11.25,9.79427168 11.1881517,9.94075459 11.0644531,10.0644531 C10.9407546,10.1881517 10.7942717,10.25 10.625,10.25 L9.375,10.25 C9.20572832,10.25 9.05924541,10.1881517 8.93554688,10.0644531 C8.81184834,9.94075459 8.75,9.79427168 8.75,9.625 L8.75,8.375 C8.75,8.20572832 8.81184834,8.05924541 8.93554688,7.93554688 C9.05924541,7.81184834 9.20572832,7.75 9.375,7.75 L10.625,7.75 Z M5.625,7.75 C5.79427168,7.75 5.94075459,7.81184834 6.06445312,7.93554688 C6.18815166,8.05924541 6.25,8.20572832 6.25,8.375 L6.25,9.625 C6.25,9.79427168 6.18815166,9.94075459 6.06445312,10.0644531 C5.94075459,10.1881517 5.79427168,10.25 5.625,10.25 L4.375,10.25 C4.20572832,10.25 4.05924541,10.1881517 3.93554688,10.0644531 C3.81184834,9.94075459 3.75,9.79427168 3.75,9.625 L3.75,8.375 C3.75,8.20572832 3.81184834,8.05924541 3.93554688,7.93554688 C4.05924541,7.81184834 4.20572832,7.75 4.375,7.75 L5.625,7.75 Z M5.625,12.75 C5.79427168,12.75 5.94075459,12.8118483 6.06445312,12.9355469 C6.18815166,13.0592454 6.25,13.2057283 6.25,13.375 L6.25,14.625 C6.25,14.7942717 6.18815166,14.9407546 6.06445312,15.0644531 C5.94075459,15.1881517 5.79427168,15.25 5.625,15.25 L4.375,15.25 C4.20572832,15.25 4.05924541,15.1881517 3.93554688,15.0644531 C3.81184834,14.9407546 3.75,14.7942717 3.75,14.625 L3.75,13.375 C3.75,13.2057283 3.81184834,13.0592454 3.93554688,12.9355469 C4.05924541,12.8118483 4.20572832,12.75 4.375,12.75 L5.625,12.75 Z" id="calendar-black"></path>
                </g>
                <text id="Title" font-family="ZillaSlabRegular, Zilla Slab" font-size="28" font-weight="normal" line-spacing="30" fill="#F8B83E">
                    <tspan x="30" y="26">Upcoming Events</tspan>
                </text>
                <text id="Copy" font-family="OpenSans-Regular, Open Sans" font-size="16" font-weight="normal" line-spacing="26" fill="#909090">
                    <tspan x="30" y="102">This club is still planning its first event, check </tspan>
                    <tspan x="30" y="128">back for more info soon!</tspan>
                </text>
            </g>
        </g>
    </g>
</svg>