<?xml version="1.0" encoding="UTF-8"?>
<svg width="703px" height="351px" viewBox="0 0 703 351" version="1.1" xmlns="http://www.w3.org/2000/svg" xmlns:xlink="http://www.w3.org/1999/xlink">
    <!-- Generator: Sketch 46 (44423) - http://www.bohemiancoding.com/sketch -->
    <title>icon-illustration</title>
    <desc>Created with Sketch.</desc>
    <defs>
        <circle id="path-1" cx="30" cy="30" r="30"></circle>
    </defs>
    <g id="Mozilla-Clubs" stroke="none" stroke-width="1" fill="none" fill-rule="evenodd">
        <g id="Top-Level-Landing-(Parent)" transform="translate(-666.000000, -116.000000)">
            <g id="hero-primary-/-site-one" transform="translate(0.000000, 70.000000)">
                <g id="icon-illustration" transform="translate(666.000000, -64.000000)">
                    <g id="rocket" transform="translate(353.686111, 291.208498) rotate(12.000000) translate(-353.686111, -291.208498) translate(109.686111, 45.708498)">
                        <path d="M130.369903,95.0260327 C213.812414,40.6161361 325.675916,63.9822235 380.222699,147.214171 C434.769482,230.446879 411.345044,342.027338 327.902533,396.436474 C244.460022,450.845611 132.59652,427.480283 78.049737,344.248336" id="Stroke-1" stroke="#FFFFFF" stroke-width="1.8" stroke-dasharray="24.1415994644165" transform="translate(243.855515, 245.731086) rotate(42.000000) translate(-243.855515, -245.731086) "></path>
                        <path d="M75.2439076,194.705073 C74.3493993,195.095777 73.3746832,195.43717 72.3633006,195.653385 C71.2892795,195.883256 70.1946335,195.967466 69.1649177,195.967466 C68.9410997,195.967466 68.7203372,195.963672 68.504158,195.956086 L73.2715588,201.53216 L75.2439076,194.705073 Z M75.2439076,194.705073 L75.2477271,194.705073 L75.2439076,194.705073 Z M57.37513,179.458492 C56.2514565,180.444736 55.0322974,181.981002 54.5136201,184.242536 C53.4098075,189.051616 56.076527,197.458971 56.076527,197.458971 C56.076527,197.458971 58.1741528,193.113426 60.5979572,191.382946 C60.8126086,191.229699 61.0249684,191.11135 61.2335088,191.011967 C60.0724049,188.579736 58.6882469,184.901044 57.37513,179.458492 L57.37513,179.458492 Z M79.23673,175.176674 C80.2878346,180.638951 80.5582495,184.488339 80.5215831,187.10568 C80.5345691,187.108714 80.5452635,187.108714 80.5567218,187.11099 C83.4266345,187.708806 87.0787645,190.823821 87.0787645,190.823821 C87.0787645,190.823821 86.0177294,182.072798 83.0614978,178.132372 C81.8927551,176.574865 80.4910277,175.684969 79.23673,175.176674 L79.23673,175.176674 Z M66.9817369,174.215465 C65.6006344,174.215465 64.3600865,173.266394 64.0591162,171.877307 C63.7115489,170.276556 64.7420286,168.698565 66.361463,168.352621 C66.5753505,168.306343 66.7884742,168.284342 66.9985423,168.284342 C68.3796448,168.284342 69.6194288,169.233413 69.921163,170.6225 C70.2687303,172.223251 69.2374867,173.801242 67.6188162,174.147945 C67.4049287,174.193464 67.191805,174.215465 66.9817369,174.215465 L66.9817369,174.215465 Z M64.1798099,157.333235 C64.1286296,157.333235 64.0827966,157.337787 64.0400191,157.346891 C62.2785023,157.72394 56.4806217,168.447452 58.3918598,177.25765 C61.317536,190.737335 64.7504313,193.853109 64.7504313,193.853109 C64.7504313,193.853109 66.8839597,194.48734 69.4292216,194.48734 C70.277133,194.48734 71.1693497,194.417545 72.043997,194.230158 C75.5486974,193.479854 78.5339566,190.902721 78.5339566,190.902721 C78.5339566,190.902721 80.2832513,186.879602 77.3583389,173.399158 C75.49217,164.799106 66.2575747,157.333235 64.1798099,157.333235 L64.1798099,157.333235 Z M72.8407282,197.194961 L72.5496883,198.203965 L71.8453871,197.381589 C72.1387186,197.336828 72.4244113,197.284481 72.7039929,197.224548 C72.7490621,197.215444 72.7948951,197.204823 72.8407282,197.194961 L72.8407282,197.194961 Z M56.6341624,183.034766 C57.4194353,185.832666 58.2757494,188.307381 59.194702,190.432358 C58.2467218,191.218319 57.3827689,192.271325 56.6662456,193.293226 C56.0574299,190.465739 55.5601413,186.913742 56.0918047,184.59986 C56.2178456,184.049081 56.3988861,183.526371 56.6341624,183.034766 L56.6341624,183.034766 Z M81.4871326,178.744603 C81.5818543,178.857641 81.6742843,178.973715 81.7636587,179.092823 C83.1806638,180.98186 84.1897547,184.400335 84.8054453,187.220236 C83.9720477,186.718769 83.0546229,186.240819 82.1356703,185.902462 C82.0944205,183.779001 81.8774774,181.385462 81.4871326,178.744603 L81.4871326,178.744603 Z M66.9817369,175.823043 C67.3086793,175.823043 67.6379133,175.788145 67.9595086,175.719108 C70.4482431,175.186536 72.0378859,172.748236 71.5031671,170.284142 C71.0494199,168.194063 69.1549872,166.676764 66.9985423,166.677522 C66.6715999,166.677522 66.3423659,166.71242 66.0200068,166.780699 C63.5312723,167.314029 61.9423933,169.75157 62.4771122,172.215664 C62.9300954,174.305744 64.8245281,175.823043 66.9817369,175.823043 L66.9817369,175.823043 Z M64.396753,159.031093 C66.4890316,159.911885 74.1515533,166.251161 75.7763349,173.737515 C78.0595845,184.259227 77.3988248,188.778502 77.1245904,189.967306 C76.2957761,190.603813 74.1034286,192.145389 71.7033047,192.658995 C71.0165729,192.806173 70.251161,192.880521 69.4292216,192.880521 C67.7998568,192.880521 66.3354909,192.587682 65.6411202,192.423055 C64.8703611,191.437569 62.2708634,187.502454 59.9738639,176.919292 C58.3620683,169.489078 62.8246794,160.669018 64.396753,159.031093 L64.396753,159.031093 Z M64.6305015,158.826258 L64.6343209,158.826258 L64.6305015,158.826258 L64.6305015,158.826258 Z" fill="#FFFFFF" transform="translate(70.662351, 179.432698) rotate(38.000000) translate(-70.662351, -179.432698) "></path>
                    </g>
                    <g id="laptop" transform="translate(237.000000, 222.000000)" fill="#FFFFFF">
                        <path d="M32.1891744,0.420526756 C26.8747053,0.420526756 22.5663532,4.53585634 22.5655183,9.61323263 L22.5371299,111.703366 L187.27148,111.746642 L187.299033,9.6573403 C187.299033,4.57829957 182.991516,0.460473332 177.676212,0.458808891 L32.1916793,0.420526756 L32.1891744,0.420526756 Z M32.1908443,2.46945323 L177.676212,2.50773537 C181.849302,2.50856759 185.244216,5.71594478 185.243381,9.65650808 L185.215828,109.696883 L24.5936165,109.65444 L24.62117,9.61406485 C24.6220049,5.67433376 28.0169195,2.46945323 32.1891744,2.46945323 L32.1908443,2.46945323 L32.1908443,2.46945323 Z" id="Fill-5"></path>
                        <path d="M36.0672308,11.1940217 L36.0422039,106.323156 L174.670105,106.359894 L174.694297,11.2307602 L36.0672308,11.1940217 Z M38.1202668,13.2505384 L172.640427,13.2856069 L172.616234,104.304212 L38.0969084,104.268309 L38.1202668,13.2505384 Z" id="Fill-7"></path>
                        <path d="M0.93235265,109.951059 L0.929011461,123.363005 L208.904645,123.417928 L208.907151,110.005982 L0.93235265,109.951059 Z M2.98801902,111.999841 L206.85065,112.053931 L206.848144,121.369146 L2.98551313,121.315056 L2.98801902,111.999841 Z" id="Fill-9"></path>
                    </g>
                    <polygon id="star" stroke="#33525D" stroke-width="1.5642" points="653.599706 178.802083 657.355508 186.485944 665.754272 187.718229 659.676153 193.699157 661.111311 202.144656 653.599706 198.156808 646.0881 202.144656 647.523258 193.699157 641.445139 187.718229 649.843903 186.485944"></polygon>
                    <g id="cog" transform="translate(203.000000, 285.000000)" fill="#33525D">
                        <path d="M12.0212169,0 L8.68007871,0 C7.99325127,0 7.64941095,0.341048543 7.64941095,1.02229936 L7.64941095,3.52134736 C7.13407707,3.71091281 6.63666043,3.95717863 6.16057383,4.26014483 C5.93106255,4.41162793 5.70240447,4.58257534 5.47289319,4.75267647 L3.31599908,3.52134736 C3.10184543,3.39863759 2.90219621,3.33685957 2.71961103,3.33685957 C2.39880716,3.33685957 2.12919539,3.52642501 1.92186736,3.90047825 L0.185601726,6.85482183 C0.0141081674,7.17640607 -0.043909554,7.44128992 0.051649046,7.68755575 C0.108813566,7.89573922 0.281160326,8.08530467 0.566982925,8.2554058 L2.66671252,9.44949884 C2.59077756,9.88448383 2.55153028,10.3194688 2.55153028,10.7925362 L2.55153028,11.0201839 C2.57200712,11.3417682 2.59077756,11.6633524 2.64879528,11.9857829 L0.566982925,13.1781834 C0.0141081674,13.5006139 -0.139468154,13.9169809 0.128437207,14.4653666 C0.147207646,14.4848309 0.165978085,14.5229133 0.185601726,14.5796137 L1.90395012,17.533111 C2.11981018,17.9012403 2.38771554,18.0840355 2.7042534,18.0840355 C2.89195779,18.0840355 3.09587302,18.0197187 3.31599908,17.8927775 L5.35856415,16.7384594 C6.06501523,17.3249275 6.82863083,17.7607587 7.64941095,18.0637249 L7.64941095,20.5246906 C7.64941095,21.2059414 7.99325127,21.54699 8.68007871,21.54699 L12.0212169,21.54699 C12.7088975,21.54699 13.0518847,21.2059414 13.0518847,20.5246906 L13.0518847,18.0256426 C13.5672185,17.8369234 14.063782,17.5898113 14.5407218,17.3054632 C14.7702331,17.1362083 14.9988911,16.9652609 15.2275492,16.7943135 L17.3844433,18.0256426 C17.6054226,18.1525837 17.8067782,18.2160543 17.991923,18.2160543 C18.3041949,18.2160543 18.5703938,18.0349516 18.7981987,17.665976 L20.5156939,14.7124787 C20.5720052,14.6168497 20.6112525,14.5415313 20.6300229,14.4653666 C20.7068111,14.2385651 20.7255815,14.0303816 20.668417,13.8602805 C20.5916288,13.652097 20.4201353,13.4625316 20.1334595,13.3110485 L18.0345831,12.0991837 C18.110518,11.6633524 18.1489121,11.2283674 18.1489121,10.7544538 L18.1489121,10.5276523 C18.1284353,10.2052218 18.110518,9.88448383 18.072124,9.56205332 L20.1522299,8.38827087 C20.7452052,8.02775802 20.858681,7.57415499 20.5156939,6.98684063 L18.7981987,4.03334332 C18.5806322,3.64998106 18.3101673,3.45618424 17.9902166,3.45618424 C17.8042186,3.45618424 17.602863,3.52219364 17.3844433,3.65421243 L15.3427315,4.82884116 C14.6354272,4.24152679 13.8726648,3.7870775 13.0518847,3.50272933 L13.0518847,1.02229936 C13.0518847,0.341048543 12.7088975,0 12.0212169,0 M18.1429397,4.80937685 L18.1472057,4.80937685 L18.1429397,4.80937685 M3.15559714,4.5343377 L3.15986315,4.5343377 L3.15559714,4.5343377 M11.6654318,1.37519574 L11.6654318,3.50272933 C11.6654318,4.08835115 12.0382809,4.60880984 12.5945685,4.80176038 C13.226791,5.02094543 13.8521879,5.38484337 14.452842,5.88329894 C14.7079493,6.09571379 15.0244872,6.20488317 15.3435847,6.20488317 C15.5824812,6.20488317 15.8222309,6.14310515 16.0380909,6.01870283 L17.7717969,5.0217917 L19.1411858,7.3761268 L17.3861497,8.36626774 C16.9023843,8.63876806 16.6293597,9.17276714 16.6950563,9.72115289 C16.7266248,9.99365322 16.7428356,10.264461 16.761606,10.5691197 L16.761606,10.7544538 C16.761606,11.1428937 16.731744,11.4957901 16.6669006,11.865612 C16.5687824,12.4317695 16.8358346,12.9996195 17.336664,13.2890453 L19.137773,14.3282702 L17.780329,16.6639873 L15.9194959,15.6027593 C15.7036358,15.4800495 15.4655925,15.4191178 15.2275492,15.4191178 C14.9331946,15.4191178 14.6396932,15.5122079 14.3939711,15.6950032 L13.767721,16.1613003 C13.3573309,16.4007959 12.9554729,16.5937465 12.5698256,16.7359206 C12.0263361,16.9364876 11.6654318,17.4510224 11.6654318,18.0256426 L11.6654318,20.170948 L9.03586385,20.170948 L9.03586385,18.0637249 C9.03586385,17.4891047 8.6758127,16.9745699 8.13232316,16.7740029 C7.44293612,16.5192743 6.82607123,16.1621466 6.24845362,15.6831553 C5.99419949,15.4707405 5.67680842,15.3624174 5.35771095,15.3624174 C5.12308046,15.3624174 4.88589037,15.4216566 4.67173672,15.5426738 L2.92267306,16.5319685 L1.56352261,14.1962514 L3.34244833,13.1764909 C3.84754379,12.887065 4.11544915,12.3149836 4.01391814,11.7445947 C3.97296445,11.516947 3.95675362,11.2613721 3.93883638,10.9787165 L3.93883638,10.7925362 C3.93883638,10.40325 3.96869845,10.0520461 4.03354178,9.6847631 C4.13421959,9.11522049 3.86290142,8.54313906 3.35695276,8.2554058 L1.56608222,7.23733782 L2.9422967,4.89569683 L4.78179975,5.94507696 C4.9968066,6.06778674 5.2348499,6.12871848 5.47289319,6.12871848 C5.76724781,6.12871848 6.06074922,6.03562831 6.30561814,5.85367934 C6.51379937,5.69796487 6.72198061,5.54225039 6.9079786,5.41869435 C7.29959822,5.17073598 7.71084148,4.9659376 8.13146996,4.81191567 C8.6749595,4.61134866 9.03586385,4.09681389 9.03586385,3.52134736 L9.03586385,1.37519574 L11.6654318,1.37519574 M9.03842346,0.977446817 L9.04268947,0.977446817 L9.03842346,0.977446817" id="Fill-13"></path>
                        <path d="M10.5972482,6.98541667 C9.60330033,6.98541667 8.76220186,7.32763457 8.05516681,8.03075223 C7.34898566,8.7338699 7.00486111,9.58899006 7.00486111,10.5765817 C7.00486111,11.5641733 7.34898566,12.4006116 8.05516681,13.1037292 C8.76220186,13.8059977 9.60330033,14.1677467 10.5972482,14.1677467 C11.5903421,14.1677467 12.4297327,13.8059977 13.1376217,13.1037292 C13.8446568,12.4006116 14.2075673,11.5641733 14.2075673,10.5765817 C14.2075673,9.58899006 13.8446568,8.7338699 13.1376217,8.03075223 C12.4297327,7.32763457 11.5903421,6.98541667 10.5972482,6.98541667 M10.5972482,8.36617672 C11.2291394,8.36617672 11.710743,8.56403471 12.1556286,9.00730455 C12.6081993,9.45736779 12.8191144,9.95583406 12.8191144,10.5765817 C12.8191144,11.1854408 12.6081993,11.6771137 12.1556286,12.1271769 C11.7030578,12.5772401 11.2077917,12.7869866 10.5972482,12.7869866 C9.98499679,12.7869866 9.48973069,12.5772401 9.03715994,12.1271769 C8.59142045,11.6839071 8.39331401,11.205821 8.39331401,10.5765817 C8.39331401,9.94309642 8.5973978,9.44463015 9.03715994,9.00730455 C9.48204552,8.56403471 9.96364911,8.36617672 10.5972482,8.36617672" id="circle"></path>
                    </g>
                    <path d="M20.4883569,230 C20.3290466,230 20.1671804,230.066368 20.0445029,230.219266 L0.124746521,255.155077 C-0.172575992,255.527241 0.0949290767,256.074145 0.575415888,256.075825 L5.39902639,256.092627 C5.7781339,256.093467 6.05330631,256.448829 5.95277893,256.810071 L1.41115625,273.270966 C1.29870189,273.679254 1.63010148,273.991771 1.97598383,273.991771 C2.13444224,273.991771 2.29460451,273.927084 2.417282,273.775866 L22.3804867,249.22734 C22.6829208,248.856017 22.4154157,248.305752 21.9323731,248.303232 L17.010791,248.28643 C16.6325354,248.284749 16.3582149,247.930228 16.4561865,247.569825 L21.0540364,230.719125 C21.1656388,230.310837 20.8333873,230 20.4883569,230 M17.9802839,235.519449 L14.8111156,247.133814 C14.6253955,247.813454 14.7676673,248.523337 15.2004462,249.082843 C15.634077,249.641509 16.2917646,249.964107 17.0048275,249.966627 L19.5878701,249.975028 L4.47809334,268.556332 L7.59784991,257.251123 C7.78527384,256.570643 7.64470589,255.85908 7.21192699,255.298734 C6.77829616,254.737548 6.11975661,254.41495 5.40498988,254.41243 L2.8943611,254.403189 L17.9802839,235.519449 M21.3828802,231.259308 L21.3871399,231.259308 L21.3828802,231.259308" id="bolt" fill="#33525D"></path>
                    <path d="M628.888785,391.358333 C625.293164,391.358333 621.622996,393.094803 618.92276,397.139395 C616.225837,393.099766 612.558982,391.36247 608.969159,391.36247 C602.571421,391.36247 596.413889,396.881282 596.413889,404.724762 C596.413889,413.008358 603.909115,418.914339 609.543995,423.367609 C615.405826,427.996263 617.046675,428.98735 618.92276,430.861148 C620.797188,428.98735 622.365975,427.896989 628.300697,423.367609 C634.019234,419.006167 641.430802,412.917357 641.430802,404.632934 C641.430802,396.853981 635.281553,391.358333 628.888785,391.358333 M628.888785,393.012901 C634.123599,393.012901 639.774216,397.455417 639.774216,404.632934 C639.774216,411.924616 633.332579,417.447564 627.29432,422.053055 C626.210913,422.880339 625.273285,423.59263 624.452446,424.215575 C621.642047,426.349968 620.166028,427.470938 618.913649,428.591081 C618.01992,427.811779 617.016029,427.046541 615.56403,425.937981 C614.305853,424.977504 612.738722,423.781251 610.571907,422.070428 L610.534633,422.039818 C604.981755,417.651903 598.070476,412.190174 598.070476,404.724762 C598.070476,401.481809 599.277299,398.47794 601.468963,396.26661 C603.515676,394.201709 606.249872,393.017038 608.969159,393.017038 C612.328717,393.017038 615.374351,394.807281 617.54448,398.05768 L618.92276,400.121754 L620.300212,398.05768 C622.471997,394.804799 625.522601,393.012901 628.888785,393.012901" id="heart" fill="#33525D"></path>
                    <g id="atom" transform="translate(334.000000, 136.000000)" fill="#33525D">
                        <path d="M18.4457347,1.00817647 C17.255921,1.00817647 16.1312215,1.68993515 15.1046161,3.03527228 C14.1363597,4.30045112 13.3118619,5.97799066 12.6497268,8.0199612 L12.5211897,8.41496805 L12.9287876,8.5314868 C14.6724947,9.02648492 16.4813159,9.66609852 18.3045131,10.4304946 L18.468567,10.4990837 L18.6317753,10.4296682 C20.5243148,9.63056443 22.323834,9.00417282 23.9779034,8.56784727 L24.3939577,8.4579395 L24.2645749,8.05632166 C23.6015942,5.98955989 22.7703313,4.29962474 21.8012293,3.03527228 C20.7636305,1.68993515 19.6347028,1.00817647 18.4457347,1.00817647 L18.4457347,1.00817647 Z M12.1042898,10.014002 C11.8226921,11.1411764 11.5892958,12.3179332 11.4125573,13.5095647 L11.279792,14.3921323 L12.0459407,13.9062243 C12.6590288,13.5178285 13.3338485,13.1162106 14.0492589,12.7154192 C14.6699577,12.3493354 15.3430862,11.9882099 16.055114,11.6370009 L16.8728467,11.2345567 L16.0238254,10.8998751 C14.8762936,10.451154 13.7355269,10.0561471 12.6268945,9.72229196 L12.2074577,9.59750947 L12.1042898,10.014002 Z M24.3102394,9.71898647 C23.2421977,10.0280504 22.0904377,10.4230572 20.8879394,10.890785 L20.0558309,11.2155501 L20.8473488,11.6246053 C21.6261821,12.0270495 22.30523,12.3939596 22.8641972,12.7154192 C23.5812988,13.1178634 24.2569642,13.5186548 24.8717436,13.9103562 L25.6336641,14.3946114 L25.5076639,13.5153493 C25.3359992,12.3402453 25.1093681,11.1626621 24.8303073,10.0123493 L24.7296763,9.59750947 L24.3102394,9.71898647 Z M6.43174509,8.704199 C5.90406651,8.704199 5.39414635,8.73229572 4.91889738,8.78931554 C3.20647892,8.99342996 2.03611489,9.60659958 1.44078522,10.6098178 C0.821777657,11.6419591 0.858985762,12.9054852 1.55410081,14.4681587 C2.19594062,15.9167926 3.28174077,17.4579805 4.7819039,19.0495771 L5.07111235,19.3569883 L5.3755423,19.0636254 C6.66936958,17.8174532 8.13486152,16.6018568 9.72889056,15.4498912 L9.8760317,15.3441154 L9.89463575,15.1672713 C10.0916696,13.3071031 10.432462,11.4593304 10.9094022,9.67601501 L11.0184896,9.26861255 L10.5956703,9.17853777 C9.08113128,8.86451559 7.67990788,8.704199 6.43174509,8.704199 L6.43174509,8.704199 Z M30.5485165,8.72155286 C29.2893604,8.72155286 27.866996,8.89013319 26.3186315,9.22150922 L25.8949664,9.31075763 L26.008282,9.72146559 C26.483531,11.4353656 26.8293973,13.2831382 27.0391157,15.2102427 L27.0585654,15.3879132 L27.2065521,15.4936891 C28.7599905,16.6051623 30.2170261,17.805884 31.5379138,19.0669309 L31.8431894,19.3569883 L32.1315522,19.0504035 C33.6308697,17.4579805 34.7124416,15.9167926 35.348362,14.4681587 C36.0350206,12.9030061 36.0773026,11.6419591 35.4726709,10.6089914 C34.8781868,9.60659958 33.7078228,8.9983882 31.9954044,8.80171115 C31.5404507,8.74799683 31.0525172,8.72155286 30.5485165,8.72155286 L30.5485165,8.72155286 Z M8.98980229,17.6348245 C7.98941166,18.3793876 7.06766543,19.148742 6.24993276,19.9238809 L5.94550281,20.2131119 L6.24824148,20.5015165 C7.0473701,21.2667389 7.9750358,22.0501416 9.00840635,22.8277597 L9.72719928,23.3715139 L9.67392404,22.4848145 C9.62995082,21.7675217 9.60796422,20.9956882 9.60796422,20.1899734 C9.60796422,19.6635731 9.61472933,19.148742 9.63079646,18.6438274 C9.63756157,18.4190536 9.64517232,18.1959326 9.65447435,17.9711588 L9.69083681,17.1117297 L8.98980229,17.6348245 Z M27.2674381,17.9612423 C27.3080288,18.7743945 27.3291698,19.5222631 27.3291698,20.1899734 C27.3291698,20.9237937 27.3097201,21.7121546 27.2691294,22.5352233 L27.2234649,23.4541513 L27.946486,22.8632938 C28.3752249,22.5137375 28.7938161,22.1666604 29.2022596,21.8245415 C29.7214818,21.3890423 30.2136435,20.944453 30.6677515,20.5039956 L30.9687989,20.2114591 L30.6609864,19.9255337 C29.8821531,19.1983244 28.9663264,18.4248382 27.9380297,17.6257344 L27.2226193,17.070411 L27.2674381,17.9612423 Z M18.2876003,12.0080429 C17.0605785,12.584852 15.8606171,13.1980217 14.7223873,13.8318506 C13.4277144,14.581372 12.2759545,15.297012 11.2907853,15.9614169 L11.1318052,16.0680191 L11.1148925,16.2564324 C11.0074963,17.3769958 10.9533755,18.7000208 10.9533755,20.1899734 C10.9533755,21.673315 11.0074963,23.0046038 11.1148925,24.1474793 L11.1318052,24.3325871 L11.2882484,24.4408421 C12.1956188,25.0664073 13.3363854,25.7837001 14.6767229,26.5687555 C15.8580802,27.2513406 17.0749543,27.8736003 18.295211,28.4214864 L18.468567,28.4999919 L18.6410773,28.4214864 C19.8875488,27.859552 21.0968122,27.2372922 22.2367332,26.5687555 C23.4975806,25.8489836 24.645958,25.1383019 25.645503,24.4623278 L25.8036375,24.3548992 L25.8213959,24.1664859 C25.928792,23.0145203 25.9820672,21.6757942 25.9820672,20.1899734 C25.9820672,18.7215065 25.928792,17.3918705 25.8222415,16.2390786 L25.8036375,16.045707 L25.6387379,15.9366256 C24.5613941,15.2432977 23.4113255,14.5334423 22.213901,13.8318506 C21.041,13.1897579 19.8435756,12.5774147 18.6478424,12.0096956 L18.468567,11.9229263 L18.2876003,12.0080429 Z M11.4235506,26.9274019 C11.584222,28.0727565 11.806625,29.2379441 12.0856857,30.3932151 L12.1854711,30.8039231 L12.5998341,30.6890571 C13.6873255,30.3890833 14.8416224,29.9965555 16.0305905,29.5230432 L16.8736923,29.1883616 L16.0601878,28.7883965 C15.3067237,28.4190073 14.622602,28.0479653 14.0264267,27.6868398 C13.3617546,27.3306725 12.7063846,26.9472349 12.0586253,26.5348742 L11.300933,26.0522717 L11.4235506,26.9274019 Z M24.8734348,26.5323951 C24.2459709,26.9158327 23.585527,27.3034022 22.9098617,27.685187 C22.1750016,28.109117 21.485806,28.4818117 20.8558052,28.7941811 L20.0456832,29.1933199 L20.8854025,29.5280014 C22.0718337,30.0015138 23.2244393,30.3915624 24.3161589,30.6915362 L24.7296763,30.8039231 L24.8303073,30.397347 C25.0848445,29.3693376 25.3106301,28.2033236 25.5025901,26.9331865 L25.6319728,26.0679728 L24.8734348,26.5323951 Z M4.75907165,21.3766467 C3.27751257,22.9641115 2.20270573,24.5052993 1.56424847,25.9547595 C0.887737479,27.4976001 0.852220652,28.7875702 1.46361746,29.7907884 C2.05725586,30.808055 3.22508297,31.4253565 4.92989068,31.6228599 C5.38907252,31.6749215 5.87277788,31.7013654 6.37001346,31.7013654 C7.62916955,31.7013654 9.05153392,31.5336115 10.5973615,31.2014091 L11.0184896,31.1096815 L10.9068653,30.7031054 C10.432462,28.9602824 10.0916696,27.1356482 9.89463575,25.2779591 L9.8760317,25.0994623 L9.72889056,24.9945128 C8.12894205,23.8384153 6.65837627,22.6170343 5.35524697,21.3609456 L5.04997138,21.06593 L4.75907165,21.3766467 Z M31.5353769,21.3609456 C30.2347845,22.6137288 28.7709838,23.8284988 27.1837199,24.973027 L27.0357331,25.0779766 L27.0188203,25.2531679 C26.8082563,27.1249053 26.4666182,28.9611087 26.0023626,30.7064109 L25.8949664,31.1096815 L26.3118663,31.2030618 C27.8551571,31.543528 29.2749845,31.7170665 30.5282211,31.7170665 C31.0339131,31.7170665 31.5218467,31.6889698 31.984411,31.6336028 C33.6883731,31.4294883 34.8545089,30.8163187 35.4498386,29.8131005 C36.0451683,28.8098823 36.0045776,27.5190858 35.3280666,25.977898 C34.6896094,24.5292641 33.6148025,22.9831181 32.1332435,21.3799522 L31.8431894,21.06593 L31.5353769,21.3609456 Z M18.297748,29.9750698 C16.5430476,30.7435978 14.7435283,31.3749476 12.9541567,31.8542447 L12.5423307,31.9641524 L12.6674852,32.3624648 C13.3194727,34.432532 14.138051,36.1208144 15.1029248,37.3769031 C16.1312215,38.7148029 17.2550754,39.3940825 18.4457347,39.3940825 C19.6355485,39.3940825 20.7644762,38.7148029 21.799538,37.3752504 C22.76864,36.1208144 23.5982116,34.4350111 24.2645749,32.367423 L24.3939577,31.9649788 L23.9779034,31.8558974 C22.1919144,31.3848641 20.3957777,30.7526879 18.6385404,29.9758962 L18.468567,29.9006961 L18.297748,29.9750698 Z M18.4457347,40.4006062 C17.0013838,40.4006062 15.6475161,39.6527376 14.4196487,38.176007 C13.248439,36.7686918 12.2565048,34.8870378 11.471752,32.5872385 L11.3558995,32.2492515 L10.9981943,32.3186669 C9.47942713,32.6153352 8.06044531,32.7657353 6.78183953,32.7657353 C5.99624114,32.7657353 5.24531393,32.7087155 4.54850761,32.5979814 C2.62045127,32.292223 1.28180513,31.5179104 0.567240395,30.2965294 C-0.146478706,29.0734956 -0.162545842,27.5546199 0.524112819,25.7795682 C1.17440901,24.0912858 2.34308176,22.3079704 3.99968806,20.4792044 L4.24323202,20.2106328 L3.99968806,19.9428875 C2.34308176,18.1141215 1.16933518,16.328327 0.510582599,14.6317808 C-0.181149895,12.8492918 -0.170156591,11.3262842 0.544408148,10.1049032 C1.25812725,8.88352219 2.60184722,8.11334148 4.5375143,7.81419403 C5.22840116,7.70676539 5.9691807,7.65387745 6.74294015,7.65387745 C8.03423051,7.65387745 9.46589691,7.80593029 10.9973487,8.10425136 L11.3558995,8.17366679 L11.471752,7.83485339 C12.2421289,5.53422773 13.2306806,3.64926828 14.4086554,2.23616847 C15.6441336,0.750347735 17.003075,0 18.4465804,0 C19.8892401,0 21.2473359,0.748694987 22.4836597,2.22459923 C23.6590976,3.6294353 24.65526,5.51026288 25.4450866,7.81667316 L25.5584022,8.15300744 L25.9152618,8.08441838 C27.431492,7.79684018 28.8496282,7.65057195 30.1273884,7.65057195 C30.917215,7.65057195 31.673216,7.70593902 32.3784787,7.81419403 C34.3124545,8.1125151 35.6561745,8.88352219 36.3707392,10.1049032 C37.0836127,11.327937 37.0954516,12.8517709 36.4020279,14.6317808 C35.7449665,16.328327 34.5754482,18.1166007 32.9323721,19.9453667 L32.6930563,20.2106328 L32.9306808,20.4767252 C34.5619179,22.3063176 35.7212887,24.0937649 36.3800412,25.7894847 C37.0717737,27.5719738 37.0624717,29.0949813 36.347907,30.3171887 C35.6172751,31.5385697 34.2710182,32.3137087 32.3539552,32.6178144 C31.6799811,32.7244166 30.95696,32.778131 30.2043415,32.778131 C28.906286,32.778131 27.4653176,32.6178144 25.9203356,32.3013131 L25.5584022,32.226113 L25.4425497,32.5682319 C24.65526,34.8845587 23.6590976,36.7711709 22.4836597,38.176007 C21.2473359,39.6527376 19.8875488,40.4006062 18.4457347,40.4006062 L18.4457347,40.4006062 Z" id="Fill-35"></path>
                        <path d="M18.71082,17.9625 C20.2030164,17.9625 21.4131407,19.1676589 21.4131407,20.6558737 C21.4131407,22.1432204 20.2030164,23.3492475 18.71082,23.3492475 C17.2203648,23.3492475 16.0111111,22.1432204 16.0111111,20.6558737 C16.0111111,19.1676589 17.2203648,17.9625 18.71082,17.9625" id="Fill-37"></path>
                    </g>
                    <path d="M386.700707,415.611174 C385.8419,415.611174 385.066694,415.958644 384.508512,416.516753 L376.102003,412.014565 C376.153514,411.797292 376.185603,411.573385 376.185603,411.340356 C376.185603,411.108156 376.153514,410.885078 376.102003,410.667806 L384.480645,406.179715 C385.043894,406.747775 385.829233,407.102709 386.700707,407.102709 C388.416631,407.102709 389.807442,405.736876 389.807442,404.05094 C389.807442,402.365833 388.416631,401 386.700707,401 C384.985627,401 383.594816,402.365833 383.594816,404.05094 C383.594816,404.285628 383.626905,404.512022 383.679261,404.731783 L375.301463,409.219045 C374.739903,408.655131 373.958786,408.303514 373.092379,408.303514 C371.384055,408.303514 370,409.664371 370,411.340356 C370,413.018829 371.384055,414.378856 373.092379,414.378856 C373.958786,414.378856 374.739903,414.027239 375.301463,413.462496 L383.706284,417.964685 C383.657306,418.17947 383.626061,418.400889 383.626061,418.630601 C383.626061,420.298293 385.00336,421.649199 386.700707,421.649199 C388.399742,421.649199 389.776197,420.298293 389.776197,418.630601 C389.776197,416.962909 388.399742,415.611174 386.700707,415.611174" id="share" fill="#33525D"></path>
                    <g id="device" transform="translate(44.018750, 321.504167)" fill="#33525D">
                        <g id="Group-3">
                            <path d="M5.3417681,0.971216555 C2.55884789,0.971216555 0.298227435,3.19744978 0.287513594,5.95225608 L0.094664455,55.9971312 C0.0832809989,58.7585612 2.33787492,61.0053279 5.12950013,61.0159259 L33.5426066,61.1232302 L33.5620254,61.1232302 C36.344276,61.1232302 38.6055661,58.896997 38.6162799,56.1421907 L38.809129,6.09731561 C38.8198429,3.33588559 36.565249,1.08911882 33.7736238,1.07852086 L5.36118694,0.971216555 L5.3417681,0.971216555 Z M5.3417681,0.971216555 L5.35583002,2.29596111 L33.7689364,2.40326542 C34.761306,2.40657728 35.6927405,2.79274032 36.3918187,3.48955596 C37.0908968,4.18637159 37.4739166,5.11104329 37.4698989,6.09267901 L37.2770498,56.1375541 C37.2690144,58.1558024 35.6023425,59.7984857 33.5472939,59.7984857 L5.13485705,59.6911813 C3.08583495,59.6832329 1.4258592,58.0286269 1.43389458,56.0017678 L1.62674372,5.95689269 C1.63410949,3.93798199 3.30078138,2.29596111 5.3417681,2.29596111 L5.3417681,0.971216555 L5.3417681,0.971216555 Z" id="Fill-41"></path>
                            <path d="M4.67219591,6.35796405 L4.49665115,51.137344 L34.1317997,51.2475265 L34.3066506,6.46814654 L4.67219591,6.35796405 Z M6.05435077,7.71462818 L32.914088,7.81467118 L32.748951,49.8901864 L5.88921379,49.7901434 L6.05435077,7.71462818 Z" id="Fill-43"></path>
                            <path d="M19.0017231,52.1453177 C17.5148772,52.1453177 16.3066304,53.3448579 16.3007279,54.8286855 C16.2954156,56.3160446 17.5001209,57.5267679 18.9916888,57.5320652 L19.0017231,57.5320652 C20.4891593,57.5320652 21.6974061,56.3331137 21.7027184,54.849286 C21.7086209,53.3613383 20.5039156,52.1512036 19.0123477,52.1453177 L19.0017231,52.1453177 Z" id="Fill-45"></path>
                        </g>
                    </g>
                    <path d="M476.041155,251 C474.819026,251 473.570329,251.592233 472.652447,252.970678 C471.735422,251.59395 470.489296,251.001717 469.268881,251.001717 C467.093731,251.001717 465,252.88313 465,255.557621 C465,258.381458 467.547959,260.394192 469.464284,261.912541 C471.456886,263.490971 472.014814,263.829145 472.652447,264.466869 C473.290079,263.829145 473.823154,263.457497 475.841466,261.912541 C477.785217,260.42595 480.305751,258.3497 480.305751,255.525864 C480.305751,252.873689 478.21459,251 476.041155,251 M476.041155,252.716618 C477.272711,252.716618 478.591685,253.845294 478.591685,255.525864 C478.591685,257.485383 476.634222,259.146211 474.800171,260.548688 L473.836009,261.284259 C473.340644,261.661915 472.95755,261.95374 472.640448,262.203508 C472.507608,262.101369 472.365341,261.992364 472.209361,261.873059 C471.792843,261.554626 471.258054,261.145213 470.515007,260.556413 C468.82151,259.214876 466.714066,257.544606 466.714066,255.557621 C466.714066,253.859027 468.034753,252.718335 469.268881,252.718335 C470.023927,252.718335 470.70184,253.134615 471.226344,253.923401 L472.652447,256.06574 L474.07855,253.923401 C474.603911,253.133756 475.282681,252.716618 476.041155,252.716618" id="heart" fill="#33525D"></path>
                    <path d="M177.219551,136.054809 C175.642743,136.054809 174.2682,135.494168 173.139782,134.386164 C172.035759,133.302115 171.468563,131.94225 171.468563,130.377855 C171.468563,128.834986 172.031466,127.480289 173.14061,126.35165 C173.532948,125.967404 173.933871,125.660144 174.378083,125.413295 C175.119876,124.997204 175.93655,124.764402 176.828064,124.712217 C177.069573,123.804851 177.543341,122.990483 178.255471,122.276409 C179.375052,121.215588 180.73533,120.682005 182.244304,120.701481 C182.531167,120.692568 182.808652,120.704703 183.079347,120.738267 C183.253289,120.237313 183.492067,119.756998 183.798183,119.294182 C184.037264,118.95135 184.331698,118.601174 184.687429,118.233497 C186.001945,116.961374 187.611676,116.320485 189.471688,116.320485 C191.127593,116.320485 192.583974,116.831177 193.780747,117.851422 C193.979549,118.023626 193.99033,118.03303 194.061194,118.097259 C194.115072,118.146094 194.164298,118.192281 194.206306,118.233562 C195.375718,119.365494 196.040367,120.725525 196.188378,122.280695 C198.011371,122.331418 199.597254,122.997408 200.903236,124.261833 C202.27628,125.610036 202.980402,127.267887 202.980402,129.166591 C202.980402,131.081972 202.274983,132.728398 200.914646,134.026592 C199.854712,135.10538 198.581814,135.763777 197.113645,135.994619 C196.762451,136.048833 196.390357,136.071892 195.961866,136.071892 C195.593736,136.071892 195.262709,136.05177 194.960725,136.00539 L177.219551,136.054809 Z M195.185897,134.222761 C195.395296,134.258906 195.654975,134.27631 195.961866,134.27631 C196.304891,134.27631 196.588289,134.258747 196.835672,134.220562 C197.917519,134.050459 198.838215,133.574237 199.648866,132.749819 C200.675016,131.770068 201.179726,130.592091 201.179726,129.166591 C201.179726,127.751557 200.671008,126.553785 199.644362,125.54568 C198.626341,124.560078 197.413502,124.073142 195.961866,124.073142 C195.658603,124.073142 195.53054,124.075681 195.395529,124.087044 C194.870282,124.131251 194.419469,123.718057 194.419469,123.192434 L194.419469,122.95978 C194.419469,121.605357 193.939917,120.478118 192.9475,119.517475 C192.919282,119.489768 192.887188,119.459655 192.850031,119.425977 C192.794044,119.375231 192.784182,119.366629 192.617834,119.222546 C191.747842,118.480686 190.708031,118.116067 189.471688,118.116067 C188.076506,118.116067 186.917491,118.577511 185.963038,119.500463 C185.691235,119.781963 185.457055,120.060478 185.289107,120.300821 C184.948902,120.81553 184.723959,121.367968 184.611015,121.964656 C184.510224,122.497135 183.962937,122.819893 183.446438,122.651455 C183.087223,122.53431 182.717127,122.483243 182.261202,122.496559 C181.183045,122.483251 180.275633,122.839193 179.514231,123.560127 C178.906049,124.170317 178.565156,124.875638 178.468408,125.702709 C178.415474,126.155237 178.031022,126.496483 177.574133,126.496483 L177.219551,126.496483 C176.476936,126.496483 175.83413,126.656732 175.257782,126.980013 C174.958551,127.146301 174.684752,127.356136 174.414605,127.620479 C173.645117,128.403655 173.269239,129.308254 173.269239,130.377855 C173.269239,131.462777 173.644006,132.361287 174.403196,133.106742 C175.194489,133.88372 176.115131,134.259227 177.217036,134.25923 L195.029815,134.209609 L195.185897,134.222761 Z" id="cloud" fill="#33525D" fill-rule="nonzero"></path>
                    <g id="pencil" transform="translate(529.343056, 116.941667)" fill="#33525D">
                        <path d="M16.355197,0.787653289 C15.8868935,0.787653289 15.480101,0.919884934 15.1848484,1.19722793 C15.1463015,1.23157381 15.1077546,1.2624851 15.0716682,1.30112422 L1.61224896,15.3906636 C1.43263695,15.5787073 1.31043516,15.7985209 1.24728391,16.0149 L3.06964875,16.0501045 L17.4533727,0.991152638 C17.0662637,0.857203699 16.6947375,0.787653289 16.355197,0.787653289" id="Fill-51"></path>
                        <path d="M20.041627,1.68544454 L4.89614158,16.7586205 L4.84863698,18.5848278 L7.96442996,18.5822949 L7.93558788,21.436852 C8.06113576,21.3676199 8.18329045,21.2798134 8.2927207,21.1700552 L22.2141143,7.31603941 C22.2726467,7.25609455 22.3260894,7.19277252 22.3744423,7.12776191 C22.4015878,7.10327739 22.4295816,7.08217005 22.4558788,7.05515265 C23.3576179,6.08337057 22.6815256,3.99965365 20.9450627,2.39718415 C20.6532487,2.12701016 20.347862,1.89145221 20.041627,1.68544454 M20.1298498,3.0371588 C20.1705681,3.07261913 20.210438,3.10807947 20.2503079,3.1443841 C21.666963,4.45135079 22.0665107,5.91535611 21.7254955,6.33919157 C21.7085296,6.35438885 21.6907153,6.37043043 21.6737494,6.38647201 C21.6270931,6.42953099 21.5855266,6.47596715 21.5482015,6.52662477 C21.5286907,6.55448647 21.5049384,6.58065957 21.4896691,6.59585686 L8.98323404,19.0432793 L8.98747552,18.5924264 C8.99002041,18.3205639 8.88398335,18.0596771 8.69057175,17.8663338 C8.49970504,17.6729906 8.23758143,17.5640767 7.96442996,17.5640767 L7.96358166,17.5640767 L5.89882802,17.5657653 L5.90815929,17.1908988 L20.1298498,3.0371588" id="Fill-53"></path>
                        <path d="M1.14216039,18.7434783 L0.346945638,22.3346433 L3.94829871,21.630284 C3.38738138,19.3845672 1.14216039,18.7434783 1.14216039,18.7434783" id="Fill-55"></path>
                    </g>
                    <ellipse id="circle" stroke="#33525D" cx="576.002778" cy="277.991667" rx="4.00277778" ry="3.99166667"></ellipse>
                    <ellipse id="circle" stroke="#33525D" cx="91.0631944" cy="200.75625" rx="2.00138889" ry="1.99583333"></ellipse>
                    <rect id="square" stroke="#33525D" x="110.576389" y="439.758333" width="5.00416667" height="4.9875"></rect>
                    <rect id="square" fill="#33525D" x="282" y="378" width="6.00416667" height="5.9875"></rect>
                    <rect id="square" stroke="#33525D" x="696.983333" y="324.997917" width="5.00416667" height="4.9875"></rect>
                    <g id="earth" transform="translate(313.000000, 252.000000)">
                        <mask id="mask-2" fill="white">
                            <use xlink:href="#path-1"></use>
                        </mask>
                        <circle stroke="#C3E8F8" stroke-width="2" cx="30" cy="30" r="29"></circle>
                        <path d="M47.6848421,13.6399073 C52.9738033,15.1609233 70.2869225,22.8640208 77.7350163,38.0092414 C85.1831101,53.1544621 71.8770641,66.9540146 71.8770641,66.9540146 L72.2176373,84 C72.2176373,84 59.745475,79.2130326 57.673454,73.550915 C55.601433,67.8887974 44.0641063,51.7996863 46.6658867,47.0688569 C49.2676671,42.3380274 50.2017798,39.8420203 48.7641682,36.7365877 C47.3265567,33.6311551 45.7531662,27.7594192 43.7196283,29.4041121 C41.6860905,31.0488051 39.7245349,34.6392804 37.9229701,35.7495847 C36.1214053,36.8598889 32.8140683,33.6408972 29.9275636,31.3306608 C27.041059,29.0204243 28.9030826,23.5973538 29.9275636,20.2536915 C30.9520447,16.9100293 32.7585339,16.5889242 36.3182663,12.5707685 C39.8779988,8.5526127 42.3958809,12.1188913 47.6848421,13.6399073 Z M4.41129899,9.66999411 C7.25448586,8.86143316 20.5243886,6.35498907 22.5704449,9.66999411 C24.6165012,12.9849992 17.1406275,22.7570179 13.2021444,23.9128559 C9.26366118,25.0686938 7.87740359,28.6703623 7.34833985,30.730154 C6.81927612,32.7899457 18.0512031,42.9802296 16.4235342,45.3563176 C14.7958652,47.7324057 11.0338822,47.4749658 7.34833985,42.9241755 C3.66279754,38.3733852 -11.6643209,44.3675133 -10.9776353,40.6731891 C-10.2909498,36.978865 -4.07169411,16.8340904 -4.07169411,16.8340904 C-4.07169411,16.8340904 1.56811212,10.4785551 4.41129899,9.66999411 Z" id="details" stroke="#C3E8F8" stroke-width="2" stroke-linecap="round" mask="url(#mask-2)"></path>
                    </g>
                </g>
            </g>
        </g>
    </g>
</svg>