<?xml version="1.0" encoding="UTF-8"?>
<svg width="18px" height="18px" viewBox="0 0 18 18" version="1.1" xmlns="http://www.w3.org/2000/svg" xmlns:xlink="http://www.w3.org/1999/xlink">
    <!-- Generator: Sketch 46 (44423) - http://www.bohemiancoding.com/sketch -->
    <title>Oval-1</title>
    <desc>Created with Sketch.</desc>
    <defs></defs>
    <g id="Symbols" stroke="none" stroke-width="1" fill="none" fill-rule="evenodd" opacity="0.5">
        <g id="footer-/-universal" transform="translate(-250.000000, -49.000000)" fill="#FFFFFF">
            <g id="Footer">
                <g id="links" transform="translate(250.000000, 48.000000)">
                    <path d="M9,19 C13.9705627,19 18,14.9705627 18,10 C18,5.02943725 13.9705627,1 9,1 C4.02943725,1 0,5.02943725 0,10 C0,14.9705627 4.02943725,19 9,19 Z M14.6842173,8.41400187 C14.4938976,8.62335362 14.2782018,8.80732941 14.0498181,8.96592922 C12.9903713,9.68280037 11.9245806,10.4060155 10.8905098,11.1546067 C10.3576144,11.5479342 9.69783916,12.0300776 9.006344,12.0300776 L9,12.0300776 L8.993656,12.0300776 C8.30216082,12.0300776 7.6423856,11.5479342 7.10949023,11.1546067 C6.07541945,10.3996715 5.0096287,9.68280037 3.95652594,8.96592922 C3.72179822,8.80732941 3.50610247,8.62335362 3.3157827,8.41400187 L3.3157827,13.4511319 C3.3157827,14.0094033 3.77255016,14.4661707 4.33082151,14.4661707 L13.6691785,14.4661707 C14.2274498,14.4661707 14.6842173,14.0094033 14.6842173,13.4511319 L14.6842173,8.41400187 Z M14.6842173,6.54886806 C14.6842173,5.99059673 14.2211059,5.53382927 13.6691785,5.53382927 L4.33082151,5.53382927 C3.6520143,5.53382927 3.3157827,6.06672464 3.3157827,6.6884359 C3.3157827,7.26573923 3.95652594,7.98261038 4.40694941,8.28712202 C5.39026825,8.97227321 6.38627508,9.65742441 7.36959393,10.3489196 C7.78195343,10.6343993 8.47979261,11.2180465 8.993656,11.2180465 L9,11.2180465 L9.006344,11.2180465 C9.52020739,11.2180465 10.2180465,10.6343993 10.6304061,10.3489196 C11.613725,9.65742441 12.6097317,8.97227321 13.5993946,8.28712202 C14.1576659,7.90013847 14.6842173,7.25939523 14.6842173,6.54886806 Z" id="Oval-1"></path>
                </g>
            </g>
        </g>
    </g>
</svg>