<?xml version="1.0" encoding="UTF-8"?>
<svg width="213px" height="98px" viewBox="0 0 213 98" version="1.1" xmlns="http://www.w3.org/2000/svg" xmlns:xlink="http://www.w3.org/1999/xlink">
    <!-- Generator: Sketch 46 (44423) - http://www.bohemiancoding.com/sketch -->
    <title>paper-airplane</title>
    <desc>Created with Sketch.</desc>
    <defs>
        <polygon id="path-1" points="0.000216129032 84.58723 142.625926 84.58723 142.625926 0.468645788 0.000216129032 0.468645788"></polygon>
    </defs>
    <g id="Mozilla-Clubs" stroke="none" stroke-width="1" fill="none" fill-rule="evenodd">
        <g id="Top-Level-Landing-(Parent)" transform="translate(-3.000000, -1736.000000)">
            <g id="newsletter-/-clubs" transform="translate(-7.000694, 1702.234644)">
                <g id="paper-airplane" transform="translate(111.034199, 85.109019) rotate(10.000000) translate(-111.034199, -85.109019) translate(10.534199, 16.609019)">
                    <polygon id="Stroke-1" stroke="#88D1F1" stroke-width="1.08" points="137.386526 29.1751116 148.5993 34.2064252 192.966268 7.42914459 156.858671 37.9136232 156.876502 37.9212143 156.876502 48.6762637 163.84234 41.0449774 182.791994 49.5481629 200.545913 0.482689437"></polygon>
                    <g id="trail" transform="translate(0.000000, 51.456689)">
                        <mask id="mask-2" fill="white">
                            <use xlink:href="#path-1"></use>
                        </mask>
                        <g id="Clip-4"></g>
                        <path d="M138.719394,4.9984004 L137.975369,4.21163072 C139.252152,2.9959604 140.552708,1.74829875 141.875958,0.468645788 L142.625926,1.24999321 C141.300515,2.53181508 139.998337,3.78056118 138.719394,4.9984004 L138.719394,4.9984004 Z M44.5762887,6.66466039 L44.3082887,5.61436895 C46.067579,5.16269483 47.8992726,4.88832856 49.7514984,4.79940352 L49.802829,5.88277074 C48.0240871,5.96790019 46.2653371,6.23087972 44.5762887,6.66466039 L44.5762887,6.66466039 Z M60.1943129,7.48667475 C58.5809097,6.87233288 56.8616032,6.42336989 55.0850226,6.15334143 L55.246579,5.08081873 C57.0988048,5.36277616 58.8926758,5.83071706 60.5774016,6.47271244 L60.1943129,7.48667475 Z M35.1092968,11.3218381 L34.4825226,10.4385522 C35.6220629,9.62412899 36.8804742,8.82326143 38.2226355,8.05872301 C38.5279177,7.88521074 38.8364419,7.71820518 39.1476677,7.55879079 L39.6393613,8.524495 C39.3416435,8.67740268 39.0471677,8.83627485 38.7559339,9.00165373 C37.4461919,9.7482987 36.2191194,10.5291039 35.1092968,11.3218381 L35.1092968,11.3218381 Z M130.806369,12.3921919 L130.078555,11.5913243 C131.373708,10.4038497 132.695877,9.18058825 134.043982,7.92045542 L134.780442,8.71427404 C133.429095,9.97657578 132.105305,11.2025484 130.806369,12.3921919 L130.806369,12.3921919 Z M68.6147,13.5525552 C67.5972726,12.2018706 66.3291355,10.9856581 64.84595,9.93861997 L65.4678613,9.05153851 C67.0429016,10.1636437 68.3915468,11.4579368 69.4770548,12.8986308 L68.6147,13.5525552 Z M27.944079,18.9699335 L26.9914903,18.4596989 C27.8052161,16.9289954 28.9166597,15.4302832 30.2944823,14.003687 L31.0703855,14.7584654 C29.7628048,16.1129455 28.7107968,17.5297816 27.944079,18.9699335 L27.944079,18.9699335 Z M122.736652,19.6157244 L122.027208,18.7969634 C123.346676,17.6463602 124.695321,16.4534634 126.074224,15.2182729 L126.793934,16.0272739 C125.410708,17.2662599 124.058821,18.4618678 122.736652,19.6157244 L122.736652,19.6157244 Z M72.6492887,23.4075097 L71.5697242,23.3597938 C71.5805306,23.1006099 71.5864742,22.8446793 71.5864742,22.5909176 C71.5864742,21.0607563 71.3762887,19.5777686 70.9618613,18.1842482 L71.9971194,17.874095 C72.4418048,19.3679272 72.6671194,20.9550222 72.6671194,22.5909176 C72.6671194,22.8604038 72.6611758,23.1326012 72.6492887,23.4075097 L72.6492887,23.4075097 Z M114.469176,26.6147755 L113.786208,25.7737832 C115.14674,24.6605936 116.542394,23.4986036 117.933724,22.3192624 L118.631281,23.1472413 C117.234547,24.3309203 115.834571,25.497248 114.469176,26.6147755 L114.469176,26.6147755 Z M25.8708613,29.3644027 C25.4618371,27.9763045 25.2543532,26.5768197 25.2543532,25.2044461 C25.2543532,24.7337941 25.2786677,24.2604309 25.3272968,23.79737 L26.4014581,23.9096108 C26.3576919,24.3363425 26.3349984,24.7712076 26.3349984,25.2044461 C26.3349984,26.4727123 26.5273532,27.7686321 26.9072,29.0564184 L25.8708613,29.3644027 Z M105.944506,33.3025889 L105.298281,32.4328587 C106.684748,31.3966651 108.124168,30.2926933 109.577635,29.1507657 L110.243853,30.0047714 C108.783902,31.151579 107.336918,32.2615153 105.944506,33.3025889 L105.944506,33.3025889 Z M69.5418935,33.9337398 L68.5844419,33.4305542 C69.450579,31.7724276 70.1384097,30.1251455 70.6306435,28.5342549 L71.6632,28.8563371 C71.1515145,30.5090414 70.4377484,32.2181372 69.5418935,33.9337398 L69.5418935,33.9337398 Z M31.7414661,38.652189 C30.3739097,37.2803576 29.1970871,35.8450858 28.2434177,34.3870406 L29.1468371,33.7916766 C30.0599823,35.1879081 31.1903371,36.5651618 32.5054823,37.8854817 L31.7414661,38.652189 Z M97.0686274,39.5295104 L96.4807565,38.6196554 C97.9136919,37.687027 99.4136274,36.6708958 100.936797,35.5983731 L101.557627,36.4870812 C100.023111,37.5661106 98.5129097,38.589833 97.0686274,39.5295104 L97.0686274,39.5295104 Z M63.3330468,42.9195063 L62.5117565,42.2140705 C63.7209984,40.7961499 64.8270387,39.3728071 65.7985387,37.9836245 L66.6830468,38.606642 C65.6920952,40.0240203 64.5649823,41.4750167 63.3330468,42.9195063 L63.3330468,42.9195063 Z M87.7010548,45.017378 L87.2093613,44.0516738 C88.7238855,43.2757487 90.3054097,42.4027651 91.9112484,41.4576654 L92.4580548,42.3924628 C90.8343855,43.3489492 89.23395,44.2316928 87.7010548,45.017378 L87.7010548,45.017378 Z M40.5325145,45.1643212 C38.9061435,44.2647686 37.3521758,43.274122 35.9143774,42.220035 L36.5519581,41.3443402 C37.9524742,42.3718582 39.4675387,43.3375624 41.0539258,44.2143416 L40.5325145,45.1643212 Z M77.6483532,49.1795035 L77.3360468,48.1416833 C78.9570145,47.6498845 80.6460629,47.036627 82.3561839,46.3203467 L82.7727726,47.3207534 C81.0286113,48.0516738 79.3044419,48.6768602 77.6483532,49.1795035 L77.6483532,49.1795035 Z M50.6549177,49.2673441 C48.9221032,48.7999455 47.1779419,48.2116304 45.4721435,47.5186658 L45.8773855,46.5139213 C47.5426597,47.1895347 49.2441355,47.7637519 50.9353452,48.2197638 L50.6549177,49.2673441 Z M61.4381355,50.7595496 C60.5336355,50.688518 59.6431839,50.6050153 58.7581355,50.5220547 C57.8811919,50.4396364 57.0091113,50.3583025 56.134329,50.2894398 C55.9916839,50.419574 55.8474177,50.5497082 55.7031516,50.6798424 L54.9812806,49.8724682 C56.3531597,48.6383622 57.6629016,47.3907005 58.8753855,46.1641857 L59.6421032,46.9281819 C58.8694419,47.7106138 58.0567968,48.501179 57.2144339,49.2912021 C57.7617806,49.3394602 58.3091274,49.3909716 58.8580952,49.4419408 C59.7382806,49.5249014 60.623329,49.6078619 61.5224258,49.6783513 L61.4381355,50.7595496 Z M66.8905306,50.9444486 L66.8651355,49.859997 C68.6714339,49.8182456 70.4020871,49.65612 72.1570548,49.3644026 L72.3332,50.4336719 C70.5285226,50.734065 68.7481597,50.9010706 66.8905306,50.9444486 L66.8905306,50.9444486 Z M47.3038371,57.5633994 L46.6549097,56.695838 C48.1283694,55.5859018 49.554821,54.4683743 50.8937403,53.3730781 L51.5767081,54.2140704 C50.2264419,55.3175 48.7886435,56.4447875 47.3038371,57.5633994 L47.3038371,57.5633994 Z M38.4306597,63.7995387 L37.8373855,62.8929371 C39.367579,61.8849393 40.8675145,60.8655547 42.2955871,59.8635214 L42.9147968,60.7522295 C41.478079,61.7602273 39.9694984,62.7855764 38.4306597,63.7995387 L38.4306597,63.7995387 Z M29.2332887,69.5346613 L28.6848613,68.6004062 C30.2615226,67.6666933 31.813329,66.7248471 33.2954339,65.8014365 L33.8649339,66.7226782 C32.3763452,67.6504266 30.8180548,68.5966106 29.2332887,69.5346613 L29.2332887,69.5346613 Z M19.8041194,74.866368 L19.2913532,73.9120505 C20.8869258,73.0482847 22.4754742,72.1698789 24.0137726,71.3012331 L24.5432887,72.2457905 C23.0001274,73.1182319 21.4056355,73.9998911 19.8041194,74.866368 L19.8041194,74.866368 Z M10.2009661,79.8667746 L9.71737742,78.8967326 C11.3415871,78.0823094 12.9582323,77.2564994 14.5240871,76.441534 L15.0211839,77.4045271 C13.4510065,78.2216614 11.8289581,79.0501825 10.2009661,79.8667746 L10.2009661,79.8667746 Z M0.45678871,84.5873927 L0.000216129032,83.6043373 C1.65954677,82.8273276 3.28429677,82.0530291 4.87446613,81.2825262 L5.34400645,82.259075 C3.74951452,83.0317468 2.12044194,83.8076719 0.45678871,84.5873927 L0.45678871,84.5873927 Z" id="Fill-3" fill="#88D1F1" mask="url(#mask-2)"></path>
                    </g>
                </g>
            </g>
        </g>
    </g>
</svg>