<?xml version="1.0" encoding="UTF-8" standalone="no"?>
<svg
   xmlns:dc="http://purl.org/dc/elements/1.1/"
   xmlns:cc="http://creativecommons.org/ns#"
   xmlns:rdf="http://www.w3.org/1999/02/22-rdf-syntax-ns#"
   xmlns:svg="http://www.w3.org/2000/svg"
   xmlns="http://www.w3.org/2000/svg"
   xmlns:xlink="http://www.w3.org/1999/xlink"
   width="20"
   height="20"
   version="1.1"
   id="svg30">
  <metadata
     id="metadata34">
    <rdf:RDF>
      <cc:Work
         rdf:about="">
        <dc:format>image/svg+xml</dc:format>
        <dc:type
           rdf:resource="http://purl.org/dc/dcmitype/StillImage" />
        <dc:title></dc:title>
      </cc:Work>
    </rdf:RDF>
  </metadata>
  <defs
     id="defs20">
    <g
       id="icon-twitter">
      <path
         d="m 5.654,14.636 c 6.793,0 10.51,-5.632 10.51,-10.51 0,-0.157 0,-0.316 -0.008,-0.474 C 16.876,3.132 17.503,2.478 18,1.736 17.337,2.031 16.624,2.226 15.875,2.319 16.639,1.865 17.222,1.137 17.503,0.273 16.79,0.698 15.998,1 15.155,1.166 14.478,0.447 13.52,0 12.46,0 10.423,0 8.766,1.657 8.766,3.695 8.766,3.983 8.802,4.265 8.86,4.538 5.79,4.388 3.068,2.91 1.246,0.678 0.93,1.223 0.75,1.857 0.75,2.534 0.75,3.817 1.405,4.947 2.39,5.61 1.786,5.59 1.217,5.424 0.72,5.15 V 5.2 c 0,1.787 1.275,3.285 2.96,3.624 -0.31,0.086 -0.633,0.13 -0.972,0.13 -0.237,0 -0.468,-0.022 -0.69,-0.066 0.467,1.47 1.836,2.536 3.45,2.565 -1.27,0.994 -2.86,1.584 -4.59,1.584 -0.295,0 -0.59,-0.014 -0.878,-0.05 1.628,1.037 3.573,1.65 5.654,1.65"
         fill-rule="nonzero"
         fill="#FFF"
         id="path2" />
    </g>
    <g
       id="icon-facebook">
      <path
         d="m 6.823,18.68 v -9 H 9.78 L 10.173,6.577 H 6.823 L 6.828,5.025 c 0,-0.81 0.09,-1.243 1.475,-1.243 h 1.85 V 0.68 H 7.193 C 3.64,0.68 2.39,2.185 2.39,4.715 V 6.578 H 0.172 V 9.68 H 2.39 v 9 z"
         fill="#FFF"
         fill-rule="evenodd"
         id="path17" />
    </g>
  </defs>
  <use
     x="0"
     y="0"
     width="18"
     height="15"
     xlink:href="#icon-twitter"
     id="use22"
     transform="matrix(1.1111111,0,0,1.1111111,1e-7,1.8683334)" />
</svg>
