<?xml version="1.0" encoding="UTF-8"?>
<svg width="146px" height="26px" viewBox="0 0 146 26" version="1.1" xmlns="http://www.w3.org/2000/svg" xmlns:xlink="http://www.w3.org/1999/xlink">
    <!-- Generator: Sketch 46 (44423) - http://www.bohemiancoding.com/sketch -->
    <title>labels / time</title>
    <desc>Created with Sketch.</desc>
    <defs></defs>
    <g id="Symbols" stroke="none" stroke-width="1" fill="none" fill-rule="evenodd">
        <g id="labels-/-time">
            <g>
                <text id="time" font-family="OpenSans-SemiBold, Open Sans" font-size="14" font-weight="500" line-spacing="26" letter-spacing="0.5" fill="#909090">
                    <tspan x="25" y="15">6:00PM – 9:00PM</tspan>
                </text>
                <g id="icon-/-clock-blue" transform="translate(0.000000, 4.000000)" fill="#558194">
                    <path d="M7.5,0.9375 C8.53516143,0.9375 9.50927278,1.13281055 10.4223633,1.5234375 C11.3354538,1.91406445 12.1313443,2.44872708 12.8100586,3.12744141 C13.4887729,3.80615574 14.0234355,4.60204622 14.4140625,5.51513672 C14.8046895,6.42822722 15,7.40233857 15,8.4375 C15,9.47266143 14.8046895,10.4467728 14.4140625,11.3598633 C14.0234355,12.2729538 13.4887729,13.0688443 12.8100586,13.7475586 C12.1313443,14.4262729 11.3354538,14.9609355 10.4223633,15.3515625 C9.50927278,15.7421895 8.53516143,15.9375 7.5,15.9375 C6.46483857,15.9375 5.49072722,15.7421895 4.57763672,15.3515625 C3.66454622,14.9609355 2.86865574,14.4262729 2.18994141,13.7475586 C1.51122708,13.0688443 0.976564453,12.2729538 0.5859375,11.3598633 C0.195310547,10.4467728 0,9.47266143 0,8.4375 C0,7.40233857 0.195310547,6.42822722 0.5859375,5.51513672 C0.976564453,4.60204622 1.51122708,3.80615574 2.18994141,3.12744141 C2.86865574,2.44872708 3.66454622,1.91406445 4.57763672,1.5234375 C5.49072722,1.13281055 6.46483857,0.9375 7.5,0.9375 Z M7.5,15.0146484 C8.40820767,15.0146484 9.26024993,14.8413103 10.0561523,14.4946289 C10.8520548,14.1479475 11.5454072,13.6767608 12.1362305,13.0810547 C12.7270537,12.4853486 13.195799,11.7895548 13.5424805,10.9936523 C13.8891619,10.1977499 14.0625,9.34570767 14.0625,8.4375 C14.0625,7.52929233 13.8891619,6.67725007 13.5424805,5.88134766 C13.195799,5.08544524 12.7270537,4.3920928 12.1362305,3.80126953 C11.5454072,3.21044626 10.8520548,2.74170095 10.0561523,2.39501953 C9.26024993,2.04833811 8.40820767,1.875 7.5,1.875 C6.59179233,1.875 5.73975007,2.04833811 4.94384766,2.39501953 C4.14794524,2.74170095 3.4545928,3.21044626 2.86376953,3.80126953 C2.27294626,4.3920928 1.80420095,5.08544524 1.45751953,5.88134766 C1.11083811,6.67725007 0.9375,7.52929233 0.9375,8.4375 C0.9375,9.34570767 1.11083811,10.1977499 1.45751953,10.9936523 C1.80420095,11.7895548 2.27294626,12.4853486 2.86376953,13.0810547 C3.4545928,13.6767608 4.14794524,14.1479475 4.94384766,14.4946289 C5.73975007,14.8413103 6.59179233,15.0146484 7.5,15.0146484 Z M7.96875,8.24707031 L10.1806641,10.4589844 C10.2685551,10.5468754 10.3125,10.6567376 10.3125,10.7885742 C10.3125,10.9204108 10.2685551,11.030273 10.1806641,11.1181641 C10.092773,11.2158208 9.98291082,11.2646484 9.85107422,11.2646484 C9.71923762,11.2646484 9.60937544,11.2158208 9.52148438,11.1181641 L7.19238281,8.80371094 C7.19238281,8.79394526 7.18994143,8.78662112 7.18505859,8.78173828 L7.17773438,8.77441406 C7.12890601,8.73535137 7.09228528,8.68652373 7.06787109,8.62792969 C7.04345691,8.56933564 7.03125,8.50585972 7.03125,8.4375 L7.03125,3.75 C7.03125,3.62304624 7.07763625,3.51318406 7.17041016,3.42041016 C7.26318406,3.32763625 7.37304624,3.28125 7.5,3.28125 C7.62695376,3.28125 7.73681594,3.32763625 7.82958984,3.42041016 C7.92236375,3.51318406 7.96875,3.62304624 7.96875,3.75 L7.96875,8.24707031 Z" id="clock---simple-line-icons"></path>
                </g>
            </g>
        </g>
    </g>
</svg>