<svg xmlns="http://www.w3.org/2000/svg" viewBox="0 0 368.86 60.94"><defs><style>.cls-1{fill:#fff;}</style></defs><title>Asset 1</title><g id="Layer_2" data-name="Layer 2"><g id="Layer_1-2" data-name="Layer 1"><rect y="0.03" width="213.04" height="60.92"/><polygon class="cls-1" points="116.55 42.64 107.92 42.64 122.7 25.8 122.11 21.78 98.7 21.78 97.76 31.11 103.25 31.7 104.44 27.57 112.77 27.57 98.11 44.41 98.88 48.43 122.17 48.43 123.82 39.09 117.79 38.5 116.55 42.64"/><path class="cls-1" d="M79.6,21.25c-9.57,0-14.3,6.44-14.3,14.24C65.3,44,71,49,79.19,49c8.51,0,14.65-5.38,14.65-13.89C93.84,27.69,89.17,21.25,79.6,21.25Zm-.18,21.92c-4.14,0-6.26-3.55-6.26-8.15,0-5,2.42-7.92,6.32-7.92,3.6,0,6.5,2.42,6.5,7.8C86,40,83.38,43.17,79.42,43.17Z"/><path class="cls-1" d="M203.48,43.76a4,4,0,0,1-1.12.18c-1.24,0-1.83-.53-1.83-2.07V30.29c0-6.09-4.85-9-10.58-9-4.37,0-6.74.53-11.4,2.42l-1,6.13,6.09.65.86-3a8.27,8.27,0,0,1,4.08-.77c4.31,0,4.37,3.25,4.37,6v.89a34.85,34.85,0,0,0-4.37-.24c-6.09,0-12.41,1.54-12.41,8.1,0,5.55,4.37,7.62,8.21,7.62a9.65,9.65,0,0,0,8.57-5.32c.35,3.25,2.31,5.32,5.85,5.32a10.3,10.3,0,0,0,4.79-1.24Zm-16.37-.18A2.79,2.79,0,0,1,184,40.51c0-2.9,2.36-3.66,5.08-3.66a28.12,28.12,0,0,1,3.84.35C192.73,41.63,189.83,43.58,187.11,43.58Z"/><path class="cls-1" d="M58.44,30.46c0-6.32-4.37-9.22-9.16-9.22A8.93,8.93,0,0,0,40.59,27c-1.3-3.9-4.85-5.73-8.69-5.73a8.83,8.83,0,0,0-8.1,4.55v-4H12.64v5.79h3.55V42.64H12.64v5.79H28.89V42.64H23.81V33.36c0-3.72,1.48-6.32,5.14-6.32,3,0,4.55,1.77,4.55,6.38v15H44.67V42.64H41.12V33.36c0-3.72,1.48-6.32,5.14-6.32,3,0,4.55,1.77,4.55,6.38v15H62V42.64H58.44Z"/><polygon class="cls-1" points="153.89 7.77 142.37 48.43 149.87 48.43 161.4 7.77 153.89 7.77"/><polygon class="cls-1" points="169.37 7.77 157.85 48.43 165.35 48.43 176.88 7.77 169.37 7.77"/><rect class="cls-1" x="129.4" y="38.86" width="7.98" height="9.57"/><rect class="cls-1" x="129.4" y="21.78" width="7.98" height="9.57"/><rect class="cls-1" x="223.93" width="144.94" height="60.92"/><path d="M248.7,46.68c-5.58,0-8.64-4-8.64-10.8,0-5.76,2.16-11.1,8.52-11.1,5.34,0,6.9,3.66,6.9,7.56h2.94V22.26h-2.94v3.3c-1.44-2.46-4-3.72-7.38-3.72-8.4,0-11.58,7.44-11.58,14.28,0,8.4,4.5,13.5,11.82,13.5,7,0,10.14-4.68,10.92-9.3l-2.82-.66C255.54,44.16,253.14,46.68,248.7,46.68Z"/><polygon points="268.36 7.74 260.08 7.74 260.08 10.5 265.06 10.5 265.06 46.26 260.14 46.26 260.14 49.02 273.28 49.02 273.28 46.26 268.36 46.26 268.36 7.74"/><path d="M298.61,22.38h-9.18V25.2h5.88v13c-.18,3.84-3.66,8.52-8.46,8.52-4,0-6.9-2.16-6.9-8.22V22.38h-8.22V25.2h4.92v14c0,7.32,4,10.38,9.24,10.38a10.26,10.26,0,0,0,9.42-5.88V49h8.28V46.26h-5Z"/><path d="M320,21.84c-5.16,0-8,2.88-9.66,6.18V7.74h-8.16V10.5h4.86V41.4a58.31,58.31,0,0,1-.78,7.62h3.3l.54-4.56c1.74,3.36,5.4,5.16,9.54,5.16,8.58,0,11.76-7.8,11.76-14.58C331.43,26.58,326.63,21.84,320,21.84Zm-1,24.84c-4.74,0-8.7-3.6-8.7-8.1V33.66c.18-4,3.66-8.88,9-8.88,4.74,0,8.58,3.54,8.58,10.56C328,40.86,325.55,46.68,319.07,46.68Z"/><path d="M338.18,29.1c0-3,2.58-4.32,6.3-4.32,4.2,0,6.42,1.68,6.42,5.76h2.94V22.26H350.9v2.52c-1.32-1.86-3.6-2.94-6.84-2.94-4.68,0-9.36,2.22-9.36,7.62,0,10.26,16.86,4.32,16.86,12.36,0,3.36-3,4.86-7,4.86-4.38,0-7.26-1.74-7.26-5.64H334.4v8.28h2.94V46.5c1.44,1.92,4.14,3.12,7.86,3.12,6.12,0,9.72-3.18,9.72-8.16C354.92,30.78,338.18,36.66,338.18,29.1Z"/></g></g></svg>