<?xml version="1.0" encoding="UTF-8"?>
<svg width="30px" height="61px" viewBox="0 0 30 61" version="1.1" xmlns="http://www.w3.org/2000/svg" xmlns:xlink="http://www.w3.org/1999/xlink">
    <!-- Generator: Sketch 46 (44423) - http://www.bohemiancoding.com/sketch -->
    <title>map / tools</title>
    <desc>Created with Sketch.</desc>
    <defs></defs>
    <g id="Symbols" stroke="none" stroke-width="1" fill="none" fill-rule="evenodd">
        <g id="map-/-tools">
            <g id="button-/-zoom-out" transform="translate(0.000000, 31.000000)">
                <g id="buttons-/-zoom-out">
                    <rect id="Rectangle" fill="#E8E8E8" x="0" y="0" width="30" height="30"></rect>
                    <g id="icon-/-zoom-out" transform="translate(7.500000, 7.500000)" fill="#9B9B9B">
                        <path d="M7.5,0 C9.57590324,0 11.3448588,0.731019475 12.8069196,2.19308036 C14.2689805,3.65514124 15,5.42409676 15,7.5 C15,9.57590324 14.2689805,11.3448588 12.8069196,12.8069196 C11.3448588,14.2689805 9.57590324,15 7.5,15 C5.42409676,15 3.65514124,14.2689805 2.19308036,12.8069196 C0.731019475,11.3448588 0,9.57590324 0,7.5 C0,5.42409676 0.731019475,3.65514124 2.19308036,2.19308036 C3.65514124,0.731019475 5.42409676,0 7.5,0 Z M11.7857143,8.03571429 L11.7857143,6.96428571 L3.21428571,6.96428571 L3.21428571,8.03571429 L11.7857143,8.03571429 Z" id="zoom-out"></path>
                    </g>
                </g>
            </g>
            <g id="button-/-zoom-in">
                <g id="buttons-/-zoom-in">
                    <rect id="Rectangle" fill="#E8E8E8" x="0" y="0" width="30" height="30"></rect>
                    <g id="icon-/-zoom-in" transform="translate(7.500000, 7.500000)" fill="#9B9B9B">
                        <path d="M7.5,0 C9.56731803,0 11.3341273,0.733165745 12.8004808,2.19951923 C14.2668343,3.66587272 15,5.43268197 15,7.5 C15,9.56731803 14.2668343,11.3341273 12.8004808,12.8004808 C11.3341273,14.2668343 9.56731803,15 7.5,15 C5.43268197,15 3.66587272,14.2668343 2.19951923,12.8004808 C0.733165745,11.3341273 0,9.56731803 0,7.5 C0,5.43268197 0.733165745,3.66587272 2.19951923,2.19951923 C3.66587272,0.733165745 5.43268197,0 7.5,0 Z M11.3581731,8.25721154 L11.3581731,6.74278846 L8.25721154,6.74278846 L8.25721154,3.64182692 L6.74278846,3.64182692 L6.74278846,6.74278846 L3.64182692,6.74278846 L3.64182692,8.25721154 L6.74278846,8.25721154 L6.74278846,11.3581731 L8.25721154,11.3581731 L8.25721154,8.25721154 L11.3581731,8.25721154 Z" id="zoom-in"></path>
                    </g>
                </g>
            </g>
        </g>
    </g>
</svg>