<?xml version="1.0" encoding="utf-8"?>
<!-- Generator: Adobe Illustrator 20.1.0, SVG Export Plug-In . SVG Version: 6.00 Build 0)  -->
<svg version="1.1" id="Layer_1" xmlns="http://www.w3.org/2000/svg" xmlns:xlink="http://www.w3.org/1999/xlink" x="0px" y="0px"
	 viewBox="0 0 96 31" style="enable-background:new 0 0 96 31;" xml:space="preserve">
<style type="text/css">
	.st0{fill:#FFFFFF;}
</style>
<g>
	<path class="st0" d="M83.5,19.2c0,0.8,0.4,1.4,1.5,1.4c1.3,0,2.7-0.9,2.8-3c-0.6-0.1-1.2-0.2-1.8-0.2
		C84.6,17.5,83.5,17.9,83.5,19.2z"/>
	<path class="st0" d="M0,0v30.4h95.9V0H0z M21.8,22.9v-7.1c0-2.2-0.7-3-2.2-3c-1.7,0-2.4,1.2-2.4,3v4.4h1.7V23h-5.3v-7.1
		c0-2.2-0.7-3-2.2-3c-1.7,0-2.4,1.2-2.4,3v4.4h2.4V23H3.7v-2.7h1.7v-7.1H3.5v-2.7H9v1.9c0.8-1.3,2.1-2.1,3.8-2.1
		c1.8,0,3.5,0.9,4.1,2.7c0.7-1.7,2.1-2.7,4.1-2.7c2.3,0,4.4,1.4,4.4,4.3v5.7h1.7V23h-5.3V22.9z M35.2,23.2L35.2,23.2
		c-3.9,0-6.6-2.4-6.6-6.4c0-3.7,2.2-6.7,6.8-6.7s6.8,3,6.8,6.5C42.2,20.7,39.3,23.2,35.2,23.2z M55.4,22.9H44.3L44,21.1l7-7.9h-4
		l-0.6,1.9l-2.6-0.3l0.4-4.4h11.1l0.3,1.9l-7,7.9h4.1l0.6-1.9l2.9,0.3L55.4,22.9z M62.3,22.9h-3.8v-4.5h3.8V22.9z M62.3,14.9h-3.8
		v-4.5h3.8V14.9z M64.3,22.9l5.5-19.1h3.6l-5.5,19.1H64.3z M71.6,22.9l5.5-19.1h3.6l-5.5,19.1H71.6z M90.5,23.2L90.5,23.2
		c-1.7,0-2.6-1-2.8-2.5c-0.7,1.3-2,2.5-4.1,2.5c-1.8,0-3.9-1-3.9-3.6c0-3.1,3-3.8,5.9-3.8c0.7,0,1.4,0,2.1,0.1v-0.4
		c0-1.3,0-2.8-2.1-2.8c-0.8,0-1.3,0.1-1.9,0.4l-0.5,1.8l-2.9-0.3l0.6-3.3c2.2-0.9,3.3-1.1,5.4-1.1c2.7,0,5,1.4,5,4.3v5.4
		c0,0.7,0.3,1,0.9,1c0.2,0,0.4,0,0.5-0.1v1.9C92.1,23,91.3,23.2,90.5,23.2z"/>
	<path class="st0" d="M35.4,12.9c-1.9,0-3,1.4-3,3.7c0,2.2,1,3.8,3,3.8c1.9,0,3.1-1.5,3.1-3.9S37.1,12.9,35.4,12.9z"/>
</g>
</svg>
