<svg xmlns="http://www.w3.org/2000/svg" viewBox="0 0 390.6 124.98"><defs><style>.cls-1{fill:none;}.cls-2{fill:#fff;}</style></defs><title>ossn-logo-one-color-white</title><g id="Layer_2" data-name="Layer 2"><g id="Layer_1-2" data-name="Layer 1"><rect class="cls-1" x="71.07" y="103.56" width="4.22" height="5.19"/><rect class="cls-1" x="71.07" y="112.65" width="4.22" height="5.52"/><path class="cls-1" d="M43.41,118.37c4.67,0,8-2.95,8-7.61,0-4.08-2.56-7.61-7.81-7.61s-7.84,3.53-7.84,7.81C35.79,115.61,38.9,118.37,43.41,118.37Zm.16-12c2,0,3.56,1.33,3.56,4.28,0,2.79-1.43,4.54-3.6,4.54s-3.43-1.94-3.43-4.47C40.1,107.93,41.43,106.34,43.57,106.34Z"/><path class="cls-1" d="M15.9,114.92H13v-5.14c0-2,.91-3.47,2.92-3.47,1.65,0,2.6,1,2.6,3.5v8.35h5.84v-3.25H22.39v-5.14c0-2,.91-3.47,2.92-3.47,1.65,0,2.6,1,2.6,3.5v8.35h6.17v-3.25H32.13v-6.73A4.77,4.77,0,0,0,27,103.14a5,5,0,0,0-4.82,3.14,4.75,4.75,0,0,0-4.78-3.14A5,5,0,0,0,13,105.63v-2.07H6.81v2.92H8.76v8.44H6.81v3.25H15.9Z"/><polygon class="cls-1" points="57.25 106.48 61.82 106.48 53.78 115.84 54.21 118.16 66.97 118.16 67.88 113 64.58 112.62 63.9 114.92 59.16 114.92 67.27 105.72 66.94 103.56 54.11 103.56 53.59 108.58 56.6 108.81 57.25 106.48"/><polygon class="cls-1" points="90.66 118.16 96.98 95.77 92.86 95.77 86.54 118.16 90.66 118.16"/><path class="cls-1" d="M51.61,30.37a5.52,5.52,0,0,0,4.6-2.08,8.92,8.92,0,0,0,1.64-5.67,8.37,8.37,0,0,0-1.72-5.69,5.56,5.56,0,0,0-4.37-2,5.24,5.24,0,0,0-4.42,2.13,8.58,8.58,0,0,0-1.72,5l-.05,1.82a6.49,6.49,0,0,0,1.69,4.68A5.74,5.74,0,0,0,51.61,30.37Z"/><path class="cls-1" d="M279.76,16.46a4.29,4.29,0,0,0-3.93-1.85,4.53,4.53,0,0,0-3.8,1.66,8.22,8.22,0,0,0-1.61,4.11h10.3A6,6,0,0,0,279.76,16.46Z"/><path class="cls-1" d="M101.14,106.54a4.56,4.56,0,0,1,2.24-.42c2.37,0,2.41,1.78,2.41,3.27v.49a18.35,18.35,0,0,0-2.41-.13c-3.34,0-6.82.84-6.82,4.44,0,3,2.4,4.18,4.5,4.18a5.29,5.29,0,0,0,4.7-2.92,3,3,0,0,0,3.21,2.92,5.68,5.68,0,0,0,2.63-.68l0-2.2a2.1,2.1,0,0,1-.6.1c-.68,0-1-.29-1-1.13v-6.35c0-3.34-2.69-5-5.83-5a14.18,14.18,0,0,0-6.29,1.33l-.57,3.36,3.34.36Zm1.45,8.85a1.53,1.53,0,0,1-1.72-1.69c0-1.59,1.3-2,2.79-2a15.41,15.41,0,0,1,2.11.19C105.67,114.32,104.08,115.39,102.59,115.39Z"/><path class="cls-1" d="M90.25,82.37A5.4,5.4,0,0,0,94.82,80a8.52,8.52,0,0,0,1.77-4.94V73.32a6.43,6.43,0,0,0-1.77-4.63A5.73,5.73,0,0,0,90.61,67a5.62,5.62,0,0,0-4.55,2.11,8.75,8.75,0,0,0-1.74,5.75,8.1,8.1,0,0,0,1.74,5.62A5.45,5.45,0,0,0,90.25,82.37Z"/><path class="cls-1" d="M17.29,29.74q5.36,0,8.06-3.46a13.79,13.79,0,0,0,2.7-8.76q0-5.67-2.89-9a10,10,0,0,0-8-3.38Q11.73,5.1,9,8.61a13.76,13.76,0,0,0-2.73,8.71,14.48,14.48,0,0,0,2.68,8.74Q11.62,29.75,17.29,29.74Z"/><path class="cls-1" d="M81.69,16.46a4.29,4.29,0,0,0-3.93-1.85A4.53,4.53,0,0,0,74,16.28a8.22,8.22,0,0,0-1.61,4.11h10.3A6,6,0,0,0,81.69,16.46Z"/><path class="cls-1" d="M122.93,68.46A4.29,4.29,0,0,0,119,66.61a4.53,4.53,0,0,0-3.8,1.66,8.22,8.22,0,0,0-1.61,4.11h10.3A6,6,0,0,0,122.93,68.46Z"/><polygon class="cls-1" points="88.49 95.77 84.37 95.77 78.05 118.16 82.17 118.16 88.49 95.77"/><path class="cls-1" d="M172.82,14.82a5.57,5.57,0,0,0-4.63,2.11,8.84,8.84,0,0,0-1.66,5.64,9.62,9.62,0,0,0,1.59,5.62,5.35,5.35,0,0,0,4.71,2.29,5.66,5.66,0,0,0,4.73-2.21,9.11,9.11,0,0,0,1.72-5.75,8.24,8.24,0,0,0-1.79-5.72A6,6,0,0,0,172.82,14.82Z"/><path class="cls-1" d="M246.79,68.46a4.29,4.29,0,0,0-3.93-1.85,4.53,4.53,0,0,0-3.8,1.66,8.22,8.22,0,0,0-1.61,4.11h10.3A6,6,0,0,0,246.79,68.46Z"/><path class="cls-1" d="M327.42,66.82a5.57,5.57,0,0,0-4.63,2.11,8.84,8.84,0,0,0-1.66,5.64,9.62,9.62,0,0,0,1.59,5.62,5.35,5.35,0,0,0,4.71,2.29,5.66,5.66,0,0,0,4.73-2.21,9.11,9.11,0,0,0,1.72-5.75,8.24,8.24,0,0,0-1.79-5.72A6,6,0,0,0,327.42,66.82Z"/><path class="cls-2" d="M43.53,115.16c2.17,0,3.6-1.75,3.6-4.54,0-2.95-1.59-4.28-3.56-4.28-2.14,0-3.47,1.59-3.47,4.34C40.1,113.21,41.27,115.16,43.53,115.16Z"/><path class="cls-2" d="M100.87,113.7a1.53,1.53,0,0,0,1.72,1.69c1.49,0,3.08-1.07,3.18-3.5a15.41,15.41,0,0,0-2.11-.19C102.17,111.69,100.87,112.11,100.87,113.7Z"/><path class="cls-2" d="M0,125H116.82V91.55H0Zm97.89-20.51a14.18,14.18,0,0,1,6.29-1.33c3.14,0,5.83,1.62,5.83,5v6.35c0,.84.29,1.13,1,1.13a2.1,2.1,0,0,0,.6-.1l0,2.2a5.68,5.68,0,0,1-2.63.68,3,3,0,0,1-3.21-2.92,5.29,5.29,0,0,1-4.7,2.92c-2.11,0-4.5-1.13-4.5-4.18,0-3.6,3.48-4.44,6.82-4.44a18.35,18.35,0,0,1,2.41.13v-.49c0-1.49,0-3.27-2.41-3.27a4.56,4.56,0,0,0-2.24.42l-.48,1.64-3.34-.36ZM97,95.77l-6.32,22.39H86.54l6.32-22.39Zm-12.61,0h4.12l-6.32,22.39H78.05Zm-13.3,7.79h4.22v5.19H71.07Zm0,9.09h4.22v5.52H71.07Zm-17-9.09H66.94l.32,2.16-8.1,9.19h4.73l.68-2.29,3.31.37L67,118.16H54.21l-.42-2.33,8-9.36H57.25l-.65,2.33-3-.23Zm-10.48-.42c5.25,0,7.81,3.53,7.81,7.61,0,4.67-3.37,7.61-8,7.61-4.5,0-7.62-2.75-7.62-7.42C35.79,106.67,38.38,103.14,43.63,103.14ZM6.81,114.92H8.76v-8.44H6.81v-2.92H13v2.07a5,5,0,0,1,4.47-2.49,4.75,4.75,0,0,1,4.78,3.14A5,5,0,0,1,27,103.14a4.77,4.77,0,0,1,5.08,5.06v6.73h1.95v3.25H27.91v-8.35c0-2.53-.94-3.5-2.6-3.5-2,0-2.92,1.43-2.92,3.47v5.14h1.95v3.25H18.5v-8.35c0-2.53-.94-3.5-2.6-3.5-2,0-2.92,1.43-2.92,3.47v5.14H15.9v3.25H6.81Z"/><path class="cls-2" d="M17,34.84q8,0,12.64-5.15A17.8,17.8,0,0,0,34.3,17.37a17.7,17.7,0,0,0-4.6-12.25Q25.09,0,17.19,0T4.71,5A17.59,17.59,0,0,0,0,17.47,18,18,0,0,0,4.5,29.69Q9,34.84,17,34.84ZM9,8.61Q11.73,5.1,17.14,5.1a10,10,0,0,1,8,3.38q2.89,3.38,2.89,9a13.79,13.79,0,0,1-2.7,8.76q-2.7,3.46-8.06,3.46-5.67,0-8.35-3.69a14.48,14.48,0,0,1-2.68-8.74A13.76,13.76,0,0,1,9,8.61Z"/><path class="cls-2" d="M40,41H36.53V45.4H50.21V41H45.58V31.2q2.29,3.64,7.33,3.64,5.46,0,8.09-3.9A15.56,15.56,0,0,0,63.62,22q0-5.46-2.78-8.5a9.38,9.38,0,0,0-7.25-3A8,8,0,0,0,48.47,12a10.06,10.06,0,0,0-2.89,3.59V11h-9.2v4.26H40ZM45.63,22.1a8.58,8.58,0,0,1,1.72-5A5.24,5.24,0,0,1,51.77,15a5.56,5.56,0,0,1,4.37,2,8.37,8.37,0,0,1,1.72,5.69,8.92,8.92,0,0,1-1.64,5.67,5.52,5.52,0,0,1-4.6,2.08,5.74,5.74,0,0,1-4.34-1.77,6.49,6.49,0,0,1-1.69-4.68Z"/><path class="cls-2" d="M78.13,34.84a11.16,11.16,0,0,0,7.44-2.29,8,8,0,0,0,3-5.36L84,26.31a6.46,6.46,0,0,1-1.53,2.76,5,5,0,0,1-3.87,1.3q-5.77,0-6.24-6.55H88.06a17,17,0,0,0,.31-3.12,10.18,10.18,0,0,0-2.89-7.31,10.26,10.26,0,0,0-7.67-2.89,10.27,10.27,0,0,0-8.35,3.59,13.5,13.5,0,0,0-3,8.94q0,5.82,3.28,8.81A11.94,11.94,0,0,0,78.13,34.84ZM74,16.28a4.53,4.53,0,0,1,3.8-1.66,4.29,4.29,0,0,1,3.93,1.85,6,6,0,0,1,1,3.93H72.36A8.22,8.22,0,0,1,74,16.28Z"/><path class="cls-2" d="M94.93,30.06H91.44v4.26H104V30.06h-3.48V20.75a6.3,6.3,0,0,1,1.59-4.21,5.33,5.33,0,0,1,4.19-1.72,4.18,4.18,0,0,1,3.33,1.38q1.2,1.38,1.2,4.71v9.15h-3.43v4.26h12.48V30.06h-3.48V18.88q0-4.32-2.39-6.34a8.56,8.56,0,0,0-5.72-2,8.28,8.28,0,0,0-7.75,4.26V11h-9.2v4.32h3.64Z"/><path class="cls-2" d="M134,23.87,133,31.62A12.91,12.91,0,0,0,138.11,34a26.27,26.27,0,0,0,6.63.83q5.77,0,9.28-2.7a9.2,9.2,0,0,0,3.51-7.75q0-4.16-2-6.16a10.79,10.79,0,0,0-4.71-2.78q-2.7-.78-4.84-1.25a23.5,23.5,0,0,1-4.5-1.48,3.44,3.44,0,0,1-2-3.46,3.44,3.44,0,0,1,1.61-3.17,7.64,7.64,0,0,1,4.06-1,13.39,13.39,0,0,1,2.81.31,10.17,10.17,0,0,1,2.91,1.14l.47,4.37L156,10.5l-.31-7.12a12.38,12.38,0,0,0-4.6-2.44A19.84,19.84,0,0,0,145,0a14.68,14.68,0,0,0-8.09,2.31q-3.62,2.31-3.61,7.62a7.84,7.84,0,0,0,1.61,5.36,8.92,8.92,0,0,0,4.06,2.6,43.37,43.37,0,0,0,4.84,1.25,22.61,22.61,0,0,1,5.25,1.64q2.29,1.07,2.29,4.24,0,2.91-2,3.87a11.56,11.56,0,0,1-5,1,16.6,16.6,0,0,1-2.68-.23,10.79,10.79,0,0,1-3.15-1.12l.1-4.16Z"/><path class="cls-2" d="M172.93,10.45q-6,0-9.1,3.67a13.21,13.21,0,0,0-3.07,8.76A11.75,11.75,0,0,0,164,31.62a11.68,11.68,0,0,0,8.61,3.22,12.34,12.34,0,0,0,9-3.35A11.72,11.72,0,0,0,185,22.67a13,13,0,0,0-3-8.58Q179,10.45,172.93,10.45Zm4.63,17.81a5.66,5.66,0,0,1-4.73,2.21,5.35,5.35,0,0,1-4.71-2.29,9.62,9.62,0,0,1-1.59-5.62,8.84,8.84,0,0,1,1.66-5.64,5.57,5.57,0,0,1,4.63-2.11,6,6,0,0,1,4.65,2,8.24,8.24,0,0,1,1.79,5.72A9.11,9.11,0,0,1,177.55,28.26Z"/><path class="cls-2" d="M206.36,30.42v3.9h9.2V30.06h-3.64V11H202.2v4.26h4.16v9.1a6.71,6.71,0,0,1-1.59,4.32,5.13,5.13,0,0,1-4.13,1.82,4.23,4.23,0,0,1-3.38-1.38q-1.2-1.38-1.2-4.71V11h-9v4.26h3.48V26.42q0,4.37,2.42,6.37a8.72,8.72,0,0,0,5.75,2Q204.07,34.79,206.36,30.42Z"/><path class="cls-2" d="M226.9,19.71A4.83,4.83,0,0,1,228,16.38a3.27,3.27,0,0,1,2.52-1.2,4.14,4.14,0,0,1,1.77.52l.88,4,4.32-.52-1-7.28a8,8,0,0,0-4.37-1.3A4.89,4.89,0,0,0,228.49,12a8.12,8.12,0,0,0-2,3.35V11H217.7v4.32h3.64V30.06h-3.48v4.26h13.68V30.06H226.9Z"/><path class="cls-2" d="M251.55,34.84q5.3,0,7.7-2.89a11.46,11.46,0,0,0,2.76-6l-4.68-.88q-.88,5.3-5.25,5.3-6,0-6-7.59,0-7.8,5.82-7.8a9.16,9.16,0,0,1,4.06.94l.78,3.85,4.47-.47-.94-6.55A15.48,15.48,0,0,0,256.18,11,17.11,17.11,0,0,0,252,10.5a11.17,11.17,0,0,0-8.5,3.43,12.69,12.69,0,0,0-3.25,9.1q0,5.77,3.15,8.79A11.27,11.27,0,0,0,251.55,34.84Z"/><path class="cls-2" d="M276.2,34.84a11.16,11.16,0,0,0,7.44-2.29,8,8,0,0,0,3-5.36L282,26.31a6.46,6.46,0,0,1-1.53,2.76,5,5,0,0,1-3.87,1.3q-5.77,0-6.24-6.55h15.76a17,17,0,0,0,.31-3.12,10.18,10.18,0,0,0-2.89-7.31,11.56,11.56,0,0,0-16,.7,13.5,13.5,0,0,0-3,8.94q0,5.82,3.28,8.81A11.94,11.94,0,0,0,276.2,34.84ZM272,16.28a4.53,4.53,0,0,1,3.8-1.66,4.29,4.29,0,0,1,3.93,1.85,6,6,0,0,1,1,3.93h-10.3A8.22,8.22,0,0,1,272,16.28Z"/><path class="cls-2" d="M1.54,75.87.6,83.62A12.91,12.91,0,0,0,5.67,86a26.27,26.27,0,0,0,6.63.83q5.77,0,9.28-2.7a9.2,9.2,0,0,0,3.51-7.75q0-4.16-2-6.16a10.79,10.79,0,0,0-4.71-2.78q-2.7-.78-4.84-1.25a23.5,23.5,0,0,1-4.5-1.48,4,4,0,0,1-.39-6.63,7.64,7.64,0,0,1,4.06-1,13.39,13.39,0,0,1,2.81.31,10.17,10.17,0,0,1,2.91,1.14l.47,4.37,4.63-.42-.31-7.12a12.38,12.38,0,0,0-4.6-2.44A19.84,19.84,0,0,0,12.56,52a14.68,14.68,0,0,0-8.09,2.31Q.86,56.63.86,61.93a7.84,7.84,0,0,0,1.61,5.36,8.92,8.92,0,0,0,4.06,2.6,43.37,43.37,0,0,0,4.84,1.25,22.61,22.61,0,0,1,5.25,1.64Q18.9,73.84,18.9,77q0,2.91-2,3.87a11.56,11.56,0,0,1-5,1,16.6,16.6,0,0,1-2.68-.23A10.79,10.79,0,0,1,6.06,80.5l.1-4.16Z"/><path class="cls-2" d="M33.13,84.86a8.6,8.6,0,0,0,6,2q7.23,0,8.22-7.38l-4.11-1.3q-.42,2.7-1.51,3.35a3.94,3.94,0,0,1-2,.65q-3.23,0-3.22-3.69V67.08h8.68V63H36.48V55.74H30.92V63H27.48v4.11h3.43V79.35A7,7,0,0,0,33.13,84.86Z"/><path class="cls-2" d="M76.31,86.32V82.06H72.67V63H62.95v4.26h4.16v9.1a6.71,6.71,0,0,1-1.59,4.32,5.13,5.13,0,0,1-4.13,1.82A4.23,4.23,0,0,1,58,81.09q-1.2-1.38-1.2-4.71V63h-9v4.26h3.48V78.42q0,4.37,2.42,6.37a8.72,8.72,0,0,0,5.75,2q5.41,0,7.7-4.37v3.9Z"/><path class="cls-2" d="M81.07,66.33a15.63,15.63,0,0,0-2.52,8.81q0,5.46,2.68,8.58a9.06,9.06,0,0,0,7.25,3.12,8.24,8.24,0,0,0,5.12-1.48,10.3,10.3,0,0,0,3-3.51v4.47h9V82.06h-3.43V50.54H91.55v4.26h5v11.8a7.86,7.86,0,0,0-2.94-3A9,9,0,0,0,89,62.5Q83.59,62.5,81.07,66.33Zm5,2.76A5.62,5.62,0,0,1,90.61,67a5.73,5.73,0,0,1,4.21,1.72,6.43,6.43,0,0,1,1.77,4.63v1.77A8.52,8.52,0,0,1,94.82,80a5.58,5.58,0,0,1-8.76.42,8.1,8.1,0,0,1-1.74-5.62A8.75,8.75,0,0,1,86.06,69.08Z"/><path class="cls-2" d="M123.66,81.07a5,5,0,0,1-3.87,1.3q-5.77,0-6.24-6.55H129.3a17,17,0,0,0,.31-3.12,10.85,10.85,0,0,0-18.9-6.6,13.5,13.5,0,0,0-3,8.94q0,5.82,3.28,8.81a11.94,11.94,0,0,0,8.37,3,11.16,11.16,0,0,0,7.44-2.29,8,8,0,0,0,3-5.36l-4.63-.88A6.46,6.46,0,0,1,123.66,81.07Zm-8.45-12.79a4.53,4.53,0,0,1,3.8-1.66,4.29,4.29,0,0,1,3.93,1.85,6,6,0,0,1,1,3.93h-10.3A8.22,8.22,0,0,1,115.21,68.28Z"/><path class="cls-2" d="M157.59,70.88q0-4.32-2.39-6.34a8.56,8.56,0,0,0-5.72-2,8.28,8.28,0,0,0-7.75,4.26V63h-9.2v4.32h3.64V82.06h-3.48v4.26h12.53V82.06h-3.48V72.75a6.3,6.3,0,0,1,1.59-4.21,5.33,5.33,0,0,1,4.19-1.72,4.18,4.18,0,0,1,3.33,1.38q1.2,1.38,1.2,4.71v9.15h-3.43v4.26h12.48V82.06h-3.48Z"/><path class="cls-2" d="M176.36,81.51a3.94,3.94,0,0,1-2,.65q-3.23,0-3.22-3.69V67.08h8.68V63h-8.68V55.74h-5.56V63h-3.43v4.11h3.43V79.35a7,7,0,0,0,2.21,5.51,8.6,8.6,0,0,0,6,2q7.23,0,8.22-7.38l-4.11-1.3Q177.45,80.86,176.36,81.51Z"/><polygon class="cls-2" points="215.62 57.46 220.56 57.46 220.56 74.88 220.35 74.88 202.51 52.52 194.04 52.52 194.04 57.46 198.3 57.46 198.3 81.38 194.56 81.38 194.56 86.32 208.65 86.32 208.65 81.38 203.71 81.38 203.71 62.92 203.92 62.92 222.64 86.37 225.96 86.32 225.96 57.46 229.87 57.46 229.87 52.52 215.62 52.52 215.62 57.46"/><path class="cls-2" d="M247.52,81.07a5,5,0,0,1-3.87,1.3q-5.77,0-6.24-6.55h15.76a17,17,0,0,0,.31-3.12,10.85,10.85,0,0,0-18.9-6.6,13.5,13.5,0,0,0-3,8.94q0,5.82,3.28,8.81a11.94,11.94,0,0,0,8.37,3,11.16,11.16,0,0,0,7.44-2.29,8,8,0,0,0,3-5.36l-4.63-.88A6.46,6.46,0,0,1,247.52,81.07Zm-8.45-12.79a4.53,4.53,0,0,1,3.8-1.66,4.29,4.29,0,0,1,3.93,1.85,6,6,0,0,1,1,3.93h-10.3A8.22,8.22,0,0,1,239.07,68.28Z"/><path class="cls-2" d="M269.75,81.51a3.94,3.94,0,0,1-2,.65q-3.23,0-3.22-3.69V67.08h8.68V63h-8.68V55.74H259V63h-3.43v4.11H259V79.35a7,7,0,0,0,2.21,5.51,8.6,8.6,0,0,0,6,2q7.23,0,8.22-7.38l-4.11-1.3Q270.84,80.86,269.75,81.51Z"/><polygon class="cls-2" points="303.29 67.24 306.77 67.24 303.96 78.31 303.65 78.31 296.94 62.97 293.51 62.97 287.53 78.47 287.22 78.47 283.63 67.24 287.27 67.24 287.27 62.97 275.42 62.97 275.42 67.24 277.7 67.24 284.41 86.32 288.37 86.32 294.45 70.93 294.71 70.93 301.16 86.32 305.32 86.32 311.87 67.24 314.21 67.24 314.21 62.97 303.29 62.97 303.29 67.24"/><path class="cls-2" d="M327.52,62.45q-6,0-9.1,3.67a13.21,13.21,0,0,0-3.07,8.76,11.15,11.15,0,0,0,11.86,12,12.34,12.34,0,0,0,9-3.35,11.72,11.72,0,0,0,3.46-8.81,13,13,0,0,0-3-8.58Q333.6,62.45,327.52,62.45Zm4.63,17.81a5.66,5.66,0,0,1-4.73,2.21,5.35,5.35,0,0,1-4.71-2.29,9.62,9.62,0,0,1-1.59-5.62,8.84,8.84,0,0,1,1.66-5.64,5.57,5.57,0,0,1,4.63-2.11,6,6,0,0,1,4.65,2,8.24,8.24,0,0,1,1.79,5.72A9.11,9.11,0,0,1,332.15,80.26Z"/><path class="cls-2" d="M356.74,62.61A4.89,4.89,0,0,0,353.13,64a8.12,8.12,0,0,0-2,3.35V63h-8.79v4.32H346V82.06H342.5v4.26h13.68V82.06h-4.63V71.71a4.83,4.83,0,0,1,1.07-3.33,3.27,3.27,0,0,1,2.52-1.2,4.14,4.14,0,0,1,1.77.52l.88,4,4.32-.52-1-7.28A8,8,0,0,0,356.74,62.61Z"/><polygon class="cls-2" points="388.1 82.06 381.03 73.74 386.54 67.29 389.45 67.29 389.45 62.97 378.06 62.97 378.06 67.29 381.13 67.29 377.02 72.23 373.02 72.23 373.02 50.54 363.76 50.54 363.76 54.81 367.46 54.81 367.46 82.06 363.97 82.06 363.97 86.32 375.62 86.32 375.62 82.06 373.02 82.06 373.02 76.23 376.76 76.23 381.65 82.06 378.95 82.06 378.95 86.32 390.6 86.32 390.6 82.06 388.1 82.06"/></g></g></svg>