<svg xmlns="http://www.w3.org/2000/svg" viewBox="0 0 390.57 124.98"><defs><style>.cls-1{fill:none;}.cls-2{fill:#fff;}</style></defs><title>ossn-logo-white-primary</title><g id="Layer_2" data-name="Layer 2"><g id="Layer_1-2" data-name="Layer 1"><path class="cls-1" d="M90.22,82.37A5.4,5.4,0,0,0,94.79,80a8.52,8.52,0,0,0,1.77-4.94V73.32a6.42,6.42,0,0,0-1.77-4.63A5.73,5.73,0,0,0,90.58,67,5.62,5.62,0,0,0,86,69.08a8.74,8.74,0,0,0-1.74,5.75A8.1,8.1,0,0,0,86,80.44,5.45,5.45,0,0,0,90.22,82.37Z"/><path class="cls-1" d="M17.27,29.74q5.36,0,8.06-3.46A13.79,13.79,0,0,0,28,17.52q0-5.67-2.89-9a10,10,0,0,0-8-3.38Q11.7,5.1,9,8.61a13.76,13.76,0,0,0-2.73,8.71,14.48,14.48,0,0,0,2.68,8.74Q11.6,29.75,17.27,29.74Z"/><path class="cls-1" d="M246.76,68.46a4.29,4.29,0,0,0-3.93-1.85,4.53,4.53,0,0,0-3.8,1.66,8.24,8.24,0,0,0-1.61,4.11h10.3A6.05,6.05,0,0,0,246.76,68.46Z"/><path class="cls-1" d="M172.79,14.82a5.57,5.57,0,0,0-4.63,2.11,8.85,8.85,0,0,0-1.66,5.64,9.62,9.62,0,0,0,1.59,5.62,5.35,5.35,0,0,0,4.71,2.29,5.66,5.66,0,0,0,4.73-2.21,9.11,9.11,0,0,0,1.71-5.75,8.24,8.24,0,0,0-1.79-5.72A6,6,0,0,0,172.79,14.82Z"/><path class="cls-1" d="M81.67,16.46a4.29,4.29,0,0,0-3.93-1.85,4.53,4.53,0,0,0-3.8,1.66,8.21,8.21,0,0,0-1.61,4.11H82.63A6,6,0,0,0,81.67,16.46Z"/><path class="cls-1" d="M122.9,68.46A4.29,4.29,0,0,0,119,66.61a4.53,4.53,0,0,0-3.8,1.66,8.24,8.24,0,0,0-1.61,4.11h10.3A6.05,6.05,0,0,0,122.9,68.46Z"/><path class="cls-1" d="M51.58,30.37a5.52,5.52,0,0,0,4.6-2.08,8.92,8.92,0,0,0,1.64-5.67,8.37,8.37,0,0,0-1.72-5.69,5.56,5.56,0,0,0-4.37-2,5.24,5.24,0,0,0-4.42,2.13,8.58,8.58,0,0,0-1.72,5l-.05,1.82a6.49,6.49,0,0,0,1.69,4.68A5.74,5.74,0,0,0,51.58,30.37Z"/><path class="cls-1" d="M279.73,16.46a4.29,4.29,0,0,0-3.93-1.85,4.53,4.53,0,0,0-3.8,1.66,8.21,8.21,0,0,0-1.61,4.11h10.29A6,6,0,0,0,279.73,16.46Z"/><path class="cls-1" d="M327.39,66.82a5.57,5.57,0,0,0-4.63,2.11,8.84,8.84,0,0,0-1.66,5.64,9.61,9.61,0,0,0,1.59,5.62,5.35,5.35,0,0,0,4.71,2.29,5.66,5.66,0,0,0,4.73-2.21,9.1,9.1,0,0,0,1.72-5.75A8.24,8.24,0,0,0,332,68.8,6,6,0,0,0,327.39,66.82Z"/><path d="M43.58,115.22c2.17,0,3.6-1.75,3.6-4.54,0-3-1.59-4.28-3.57-4.28-2.14,0-3.47,1.59-3.47,4.34C40.15,113.28,41.31,115.22,43.58,115.22Z"/><path d="M101,113.76a1.53,1.53,0,0,0,1.72,1.69c1.49,0,3.08-1.07,3.18-3.5a15.43,15.43,0,0,0-2.11-.19C102.25,111.75,101,112.18,101,113.76Z"/><path d="M0,125H116.9V91.55H0Zm98-20.45a14.06,14.06,0,0,1,6.26-1.33c3.15,0,5.8,1.62,5.8,5v6.36c0,.84.32,1.13,1,1.13a2.21,2.21,0,0,0,.62-.1l0,2.2a5.65,5.65,0,0,1-2.63.68,3,3,0,0,1-3.21-2.92,5.3,5.3,0,0,1-4.7,2.92c-2.11,0-4.51-1.14-4.51-4.18,0-3.6,3.47-4.44,6.81-4.44a19.13,19.13,0,0,1,2.4.13v-.49c0-1.49,0-3.27-2.4-3.27a4.54,4.54,0,0,0-2.24.42l-.47,1.65-3.34-.36Zm-.91-8.72-6.32,22.31H86.62L92.94,95.8Zm-12.61,0h4.12l-6.32,22.31H78.12ZM71,103.49h4.38v5.25H71Zm0,9.37h4.38v5.25H71Zm-16.84-9.37H67l.32,2.2-8.11,9.24H64l.68-2.27,3.31.32L67,118.11H54.26l-.42-2.2,8-9.24H57.31l-.65,2.27-3-.32Zm-10.48-.29c5.25,0,7.81,3.53,7.81,7.62,0,4.67-3.37,7.62-8,7.62-4.51,0-7.62-2.76-7.62-7.43C35.83,106.73,38.43,103.19,43.68,103.19ZM6.94,114.93H8.88v-8.27H6.94v-3.18h6.13v2.2a4.84,4.84,0,0,1,4.44-2.5,4.74,4.74,0,0,1,4.77,3.15A4.9,4.9,0,0,1,27,103.19a4.73,4.73,0,0,1,5,5.06v6.68H34v3.18H27.89v-8.24c0-2.53-.84-3.5-2.5-3.5-2,0-2.82,1.43-2.82,3.47v5.09h1.95v3.18H18.39v-8.24c0-2.53-.84-3.5-2.5-3.5-2,0-2.82,1.43-2.82,3.47v5.09h2.79v3.18H6.94Z"/><path d="M101.21,106.6a4.54,4.54,0,0,1,2.24-.42c2.37,0,2.4,1.78,2.4,3.27v.49a19.13,19.13,0,0,0-2.4-.13c-3.34,0-6.81.84-6.81,4.44,0,3,2.4,4.18,4.51,4.18a5.3,5.3,0,0,0,4.7-2.92,3,3,0,0,0,3.21,2.92,5.65,5.65,0,0,0,2.63-.68l0-2.2a2.21,2.21,0,0,1-.62.1c-.68,0-1-.29-1-1.13v-6.36c0-3.34-2.66-5-5.8-5A14.06,14.06,0,0,0,98,104.52l-.57,3.36,3.34.36Zm1.46,8.85a1.53,1.53,0,0,1-1.72-1.69c0-1.59,1.3-2,2.79-2a15.43,15.43,0,0,1,2.11.19C105.75,114.38,104.17,115.45,102.67,115.45Z"/><path class="cls-2" d="M101.21,106.6a4.54,4.54,0,0,1,2.24-.42c2.37,0,2.4,1.78,2.4,3.27v.49a19.13,19.13,0,0,0-2.4-.13c-3.34,0-6.81.84-6.81,4.44,0,3,2.4,4.18,4.51,4.18a5.3,5.3,0,0,0,4.7-2.92,3,3,0,0,0,3.21,2.92,5.65,5.65,0,0,0,2.63-.68l0-2.2a2.21,2.21,0,0,1-.62.1c-.68,0-1-.29-1-1.13v-6.36c0-3.34-2.66-5-5.8-5A14.06,14.06,0,0,0,98,104.52l-.57,3.36,3.34.36Zm1.46,8.85a1.53,1.53,0,0,1-1.72-1.69c0-1.59,1.3-2,2.79-2a15.43,15.43,0,0,1,2.11.19C105.75,114.38,104.17,115.45,102.67,115.45Z"/><polygon points="88.56 95.8 84.44 95.8 78.12 118.11 82.24 118.11 88.56 95.8"/><polygon class="cls-2" points="88.56 95.8 84.44 95.8 78.12 118.11 82.24 118.11 88.56 95.8"/><path d="M43.45,118.43c4.67,0,8-3,8-7.62,0-4.09-2.56-7.62-7.81-7.62s-7.85,3.53-7.85,7.81C35.83,115.68,38.95,118.43,43.45,118.43Zm.16-12c2,0,3.57,1.33,3.57,4.28,0,2.79-1.43,4.54-3.6,4.54s-3.44-1.95-3.44-4.47C40.15,108,41.48,106.4,43.62,106.4Z"/><path class="cls-2" d="M43.45,118.43c4.67,0,8-3,8-7.62,0-4.09-2.56-7.62-7.81-7.62s-7.85,3.53-7.85,7.81C35.83,115.68,38.95,118.43,43.45,118.43Zm.16-12c2,0,3.57,1.33,3.57,4.28,0,2.79-1.43,4.54-3.6,4.54s-3.44-1.95-3.44-4.47C40.15,108,41.48,106.4,43.62,106.4Z"/><path d="M15.86,114.93H13.07v-5.09c0-2,.81-3.47,2.82-3.47,1.65,0,2.5,1,2.5,3.5v8.24h6.13v-3.18H22.57v-5.09c0-2,.81-3.47,2.82-3.47,1.65,0,2.5,1,2.5,3.5v8.24H34v-3.18H32.07v-6.68a4.73,4.73,0,0,0-5-5.06,4.9,4.9,0,0,0-4.77,3.15,4.74,4.74,0,0,0-4.77-3.15,4.84,4.84,0,0,0-4.44,2.5v-2.2H6.94v3.18H8.88v8.27H6.94v3.18h8.92Z"/><path class="cls-2" d="M15.86,114.93H13.07v-5.09c0-2,.81-3.47,2.82-3.47,1.65,0,2.5,1,2.5,3.5v8.24h6.13v-3.18H22.57v-5.09c0-2,.81-3.47,2.82-3.47,1.65,0,2.5,1,2.5,3.5v8.24H34v-3.18H32.07v-6.68a4.73,4.73,0,0,0-5-5.06,4.9,4.9,0,0,0-4.77,3.15,4.74,4.74,0,0,0-4.77-3.15,4.84,4.84,0,0,0-4.44,2.5v-2.2H6.94v3.18H8.88v8.27H6.94v3.18h8.92Z"/><polygon points="57.31 106.66 61.88 106.66 53.84 115.9 54.26 118.11 67.04 118.11 67.94 112.99 64.64 112.66 63.96 114.93 59.22 114.93 67.33 105.69 67 103.49 54.16 103.49 53.65 108.61 56.66 108.93 57.31 106.66"/><polygon class="cls-2" points="57.31 106.66 61.88 106.66 53.84 115.9 54.26 118.11 67.04 118.11 67.94 112.99 64.64 112.66 63.96 114.93 59.22 114.93 67.33 105.69 67 103.49 54.16 103.49 53.65 108.61 56.66 108.93 57.31 106.66"/><polygon points="90.74 118.11 97.06 95.8 92.94 95.8 86.62 118.11 90.74 118.11"/><polygon class="cls-2" points="90.74 118.11 97.06 95.8 92.94 95.8 86.62 118.11 90.74 118.11"/><rect x="71.01" y="103.49" width="4.38" height="5.25"/><rect class="cls-2" x="71.01" y="103.49" width="4.38" height="5.25"/><rect x="71.01" y="112.86" width="4.38" height="5.25"/><rect class="cls-2" x="71.01" y="112.86" width="4.38" height="5.25"/><path class="cls-2" d="M17,34.84q8,0,12.63-5.15a17.8,17.8,0,0,0,4.63-12.32,17.7,17.7,0,0,0-4.6-12.25Q25.07,0,17.16,0T4.68,5A17.59,17.59,0,0,0,0,17.47,18,18,0,0,0,4.47,29.69Q8.94,34.84,17,34.84ZM9,8.61Q11.7,5.1,17.11,5.1a10,10,0,0,1,8,3.38q2.89,3.38,2.89,9a13.79,13.79,0,0,1-2.71,8.76q-2.7,3.46-8.06,3.46-5.67,0-8.35-3.69a14.48,14.48,0,0,1-2.68-8.74A13.76,13.76,0,0,1,9,8.61Z"/><path class="cls-2" d="M40,41H36.5V45.4H50.18V41H45.55V31.2q2.29,3.64,7.33,3.64,5.46,0,8.09-3.9A15.56,15.56,0,0,0,63.6,22q0-5.46-2.78-8.5a9.38,9.38,0,0,0-7.25-3A8,8,0,0,0,48.44,12a10.05,10.05,0,0,0-2.88,3.59V11H36.35v4.26H40ZM45.6,22.1a8.58,8.58,0,0,1,1.72-5A5.24,5.24,0,0,1,51.74,15a5.56,5.56,0,0,1,4.37,2,8.37,8.37,0,0,1,1.72,5.69,8.92,8.92,0,0,1-1.64,5.67,5.52,5.52,0,0,1-4.6,2.08,5.74,5.74,0,0,1-4.34-1.77,6.49,6.49,0,0,1-1.69-4.68Z"/><path class="cls-2" d="M78.1,34.84a11.15,11.15,0,0,0,7.44-2.29,8,8,0,0,0,3-5.36l-4.63-.88a6.47,6.47,0,0,1-1.54,2.76,5,5,0,0,1-3.87,1.3q-5.77,0-6.24-6.55H88a16.9,16.9,0,0,0,.31-3.12,10.18,10.18,0,0,0-2.89-7.31,10.26,10.26,0,0,0-7.67-2.89,10.26,10.26,0,0,0-8.35,3.59,13.49,13.49,0,0,0-3,8.94q0,5.82,3.28,8.81A11.94,11.94,0,0,0,78.1,34.84ZM73.94,16.28a4.53,4.53,0,0,1,3.8-1.66,4.29,4.29,0,0,1,3.93,1.85,6,6,0,0,1,1,3.93H72.33A8.21,8.21,0,0,1,73.94,16.28Z"/><path class="cls-2" d="M94.9,30.06H91.42v4.26h12.53V30.06h-3.48V20.75A6.31,6.31,0,0,1,102,16.54a5.33,5.33,0,0,1,4.19-1.72,4.18,4.18,0,0,1,3.33,1.38q1.2,1.38,1.2,4.71v9.15h-3.43v4.26h12.48V30.06h-3.48V18.88q0-4.32-2.39-6.34a8.56,8.56,0,0,0-5.72-2,8.28,8.28,0,0,0-7.75,4.26V11h-9.2v4.32H94.9Z"/><path class="cls-2" d="M134,23.87,133,31.62A12.91,12.91,0,0,0,138.09,34a26.26,26.26,0,0,0,6.63.83q5.77,0,9.28-2.7a9.2,9.2,0,0,0,3.51-7.75q0-4.16-2-6.16a10.79,10.79,0,0,0-4.71-2.78q-2.7-.78-4.84-1.25a23.5,23.5,0,0,1-4.5-1.48,3.44,3.44,0,0,1-2-3.46,3.44,3.44,0,0,1,1.61-3.17,7.64,7.64,0,0,1,4.05-1,13.39,13.39,0,0,1,2.81.31,10.17,10.17,0,0,1,2.91,1.14l.47,4.37,4.63-.42-.31-7.12A12.37,12.37,0,0,0,151,.94,19.84,19.84,0,0,0,145,0a14.69,14.69,0,0,0-8.09,2.31q-3.62,2.31-3.61,7.62a7.85,7.85,0,0,0,1.61,5.36,8.92,8.92,0,0,0,4.06,2.6,43.3,43.3,0,0,0,4.84,1.25A22.58,22.58,0,0,1,149,20.77q2.29,1.07,2.29,4.24,0,2.91-2,3.87a11.56,11.56,0,0,1-5,1,16.6,16.6,0,0,1-2.68-.23,10.8,10.8,0,0,1-3.15-1.12l.11-4.16Z"/><path class="cls-2" d="M172.9,10.45q-6,0-9.1,3.67a13.2,13.2,0,0,0-3.07,8.76A11.75,11.75,0,0,0,164,31.62a11.68,11.68,0,0,0,8.61,3.22,12.35,12.35,0,0,0,9-3.35A11.73,11.73,0,0,0,185,22.67a13,13,0,0,0-3-8.58Q179,10.45,172.9,10.45Zm4.63,17.81a5.66,5.66,0,0,1-4.73,2.21,5.35,5.35,0,0,1-4.71-2.29,9.62,9.62,0,0,1-1.59-5.62,8.85,8.85,0,0,1,1.66-5.64,5.57,5.57,0,0,1,4.63-2.11,6,6,0,0,1,4.65,2,8.24,8.24,0,0,1,1.79,5.72A9.11,9.11,0,0,1,177.53,28.26Z"/><path class="cls-2" d="M206.33,30.42v3.9h9.21V30.06H211.9V11h-9.72v4.26h4.16v9.1a6.71,6.71,0,0,1-1.59,4.32,5.12,5.12,0,0,1-4.13,1.82,4.23,4.23,0,0,1-3.38-1.38q-1.2-1.38-1.2-4.71V11h-9v4.26h3.48V26.42q0,4.37,2.42,6.37a8.72,8.72,0,0,0,5.75,2Q204,34.79,206.33,30.42Z"/><path class="cls-2" d="M226.87,19.71a4.83,4.83,0,0,1,1.07-3.33,3.28,3.28,0,0,1,2.52-1.2,4.15,4.15,0,0,1,1.77.52l.88,4,4.32-.52-1-7.28a7.94,7.94,0,0,0-4.37-1.3A4.89,4.89,0,0,0,228.46,12a8.13,8.13,0,0,0-2,3.35V11h-8.79v4.32h3.64V30.06h-3.48v4.26H231.5V30.06h-4.63Z"/><path class="cls-2" d="M251.52,34.84q5.3,0,7.7-2.89a11.45,11.45,0,0,0,2.76-6l-4.68-.88q-.88,5.3-5.25,5.3-6,0-6-7.59,0-7.8,5.82-7.8a9.16,9.16,0,0,1,4.06.94l.78,3.85,4.47-.47-.94-6.55A15.5,15.5,0,0,0,256.15,11,17.12,17.12,0,0,0,252,10.5a11.17,11.17,0,0,0-8.5,3.43,12.68,12.68,0,0,0-3.25,9.1q0,5.77,3.14,8.79A11.27,11.27,0,0,0,251.52,34.84Z"/><path class="cls-2" d="M276.17,34.84a11.15,11.15,0,0,0,7.44-2.29,8,8,0,0,0,3-5.36L282,26.31a6.47,6.47,0,0,1-1.54,2.76,5,5,0,0,1-3.87,1.3q-5.77,0-6.24-6.55H286.1a16.9,16.9,0,0,0,.31-3.12,10.18,10.18,0,0,0-2.89-7.31,11.56,11.56,0,0,0-16,.7,13.49,13.49,0,0,0-3,8.94q0,5.82,3.28,8.81A11.94,11.94,0,0,0,276.17,34.84ZM272,16.28a4.53,4.53,0,0,1,3.8-1.66,4.29,4.29,0,0,1,3.93,1.85,6,6,0,0,1,1,3.93H270.4A8.21,8.21,0,0,1,272,16.28Z"/><path class="cls-2" d="M1.51,75.87.57,83.62A12.92,12.92,0,0,0,5.64,86a26.27,26.27,0,0,0,6.63.83q5.77,0,9.28-2.7a9.2,9.2,0,0,0,3.51-7.75q0-4.16-2-6.16a10.79,10.79,0,0,0-4.71-2.78q-2.7-.78-4.84-1.25A23.5,23.5,0,0,1,9,64.71a4,4,0,0,1-.39-6.63,7.64,7.64,0,0,1,4.06-1,13.39,13.39,0,0,1,2.81.31,10.17,10.17,0,0,1,2.91,1.14l.47,4.37,4.63-.42-.31-7.12a12.39,12.39,0,0,0-4.6-2.44A19.84,19.84,0,0,0,12.53,52a14.68,14.68,0,0,0-8.09,2.31Q.83,56.63.83,61.93a7.84,7.84,0,0,0,1.61,5.36,8.92,8.92,0,0,0,4.05,2.6,43.44,43.44,0,0,0,4.84,1.25,22.64,22.64,0,0,1,5.25,1.64q2.29,1.07,2.29,4.24,0,2.91-2,3.87a11.56,11.56,0,0,1-5,1,16.6,16.6,0,0,1-2.68-.23A10.78,10.78,0,0,1,6,80.5l.1-4.16Z"/><path class="cls-2" d="M33.1,84.86a8.6,8.6,0,0,0,6,2q7.23,0,8.21-7.38l-4.11-1.3q-.42,2.7-1.51,3.35a4,4,0,0,1-2,.65q-3.23,0-3.22-3.69V67.08h8.69V63H36.45V55.74H30.89V63H27.46v4.11h3.43V79.35A7,7,0,0,0,33.1,84.86Z"/><path class="cls-2" d="M76.28,86.32V82.06H72.64V63H62.92v4.26h4.16v9.1a6.72,6.72,0,0,1-1.59,4.32,5.13,5.13,0,0,1-4.13,1.82A4.23,4.23,0,0,1,58,81.09q-1.2-1.38-1.2-4.71V63h-9v4.26h3.48V78.42q0,4.37,2.42,6.37a8.72,8.72,0,0,0,5.75,2q5.41,0,7.7-4.37v3.9Z"/><path class="cls-2" d="M81,66.33a15.63,15.63,0,0,0-2.52,8.81q0,5.46,2.68,8.58a9.06,9.06,0,0,0,7.25,3.12,8.24,8.24,0,0,0,5.12-1.48,10.28,10.28,0,0,0,3-3.51v4.47h9V82.06h-3.43V50.54H91.52v4.26h5v11.8a7.85,7.85,0,0,0-2.94-3A9,9,0,0,0,89,62.5Q83.56,62.5,81,66.33Zm5,2.76A5.62,5.62,0,0,1,90.58,67a5.73,5.73,0,0,1,4.21,1.72,6.42,6.42,0,0,1,1.77,4.63v1.77A8.52,8.52,0,0,1,94.79,80a5.58,5.58,0,0,1-8.76.42,8.1,8.1,0,0,1-1.74-5.62A8.74,8.74,0,0,1,86,69.08Z"/><path class="cls-2" d="M123.63,81.07a5,5,0,0,1-3.87,1.3q-5.77,0-6.24-6.55h15.76a17.06,17.06,0,0,0,.31-3.12,10.85,10.85,0,0,0-18.9-6.6,13.5,13.5,0,0,0-3,8.94q0,5.82,3.28,8.81a11.94,11.94,0,0,0,8.37,3,11.16,11.16,0,0,0,7.44-2.29,8,8,0,0,0,3-5.36l-4.63-.88A6.46,6.46,0,0,1,123.63,81.07Zm-8.45-12.79a4.53,4.53,0,0,1,3.8-1.66,4.29,4.29,0,0,1,3.93,1.85,6.05,6.05,0,0,1,1,3.93h-10.3A8.24,8.24,0,0,1,115.18,68.28Z"/><path class="cls-2" d="M157.56,70.88q0-4.32-2.39-6.34a8.56,8.56,0,0,0-5.72-2,8.28,8.28,0,0,0-7.75,4.26V63h-9.21v4.32h3.64V82.06h-3.48v4.26h12.53V82.06H141.7V72.75a6.29,6.29,0,0,1,1.59-4.21,5.33,5.33,0,0,1,4.19-1.72,4.17,4.17,0,0,1,3.33,1.38q1.2,1.38,1.2,4.71v9.15h-3.43v4.26H161V82.06h-3.48Z"/><path class="cls-2" d="M176.33,81.51a3.94,3.94,0,0,1-2,.65q-3.23,0-3.22-3.69V67.08h8.68V63h-8.68V55.74h-5.56V63h-3.43v4.11h3.43V79.35a7,7,0,0,0,2.21,5.51,8.59,8.59,0,0,0,6,2q7.23,0,8.22-7.38l-4.11-1.3Q177.42,80.86,176.33,81.51Z"/><polygon class="cls-2" points="215.59 57.46 220.53 57.46 220.53 74.88 220.32 74.88 202.49 52.52 194.01 52.52 194.01 57.46 198.27 57.46 198.27 81.38 194.53 81.38 194.53 86.32 208.62 86.32 208.62 81.38 203.68 81.38 203.68 62.92 203.89 62.92 222.61 86.37 225.94 86.32 225.94 57.46 229.84 57.46 229.84 52.52 215.59 52.52 215.59 57.46"/><path class="cls-2" d="M247.49,81.07a5,5,0,0,1-3.87,1.3q-5.77,0-6.24-6.55h15.76a17.06,17.06,0,0,0,.31-3.12,10.85,10.85,0,0,0-18.9-6.6,13.5,13.5,0,0,0-3,8.94q0,5.82,3.28,8.81a11.94,11.94,0,0,0,8.37,3,11.16,11.16,0,0,0,7.44-2.29,8,8,0,0,0,3-5.36L249,78.31A6.46,6.46,0,0,1,247.49,81.07ZM239,68.28a4.53,4.53,0,0,1,3.8-1.66,4.29,4.29,0,0,1,3.93,1.85,6.05,6.05,0,0,1,1,3.93h-10.3A8.24,8.24,0,0,1,239,68.28Z"/><path class="cls-2" d="M269.72,81.51a4,4,0,0,1-2,.65q-3.23,0-3.22-3.69V67.08h8.69V63h-8.69V55.74H259V63h-3.43v4.11H259V79.35a7,7,0,0,0,2.21,5.51,8.6,8.6,0,0,0,6,2q7.23,0,8.21-7.38l-4.11-1.3Q270.81,80.86,269.72,81.51Z"/><polygon class="cls-2" points="303.26 67.24 306.75 67.24 303.94 78.31 303.63 78.31 296.92 62.97 293.48 62.97 287.51 78.47 287.19 78.47 283.61 67.24 287.25 67.24 287.25 62.97 275.39 62.97 275.39 67.24 277.68 67.24 284.38 86.32 288.34 86.32 294.42 70.93 294.68 70.93 301.13 86.32 305.29 86.32 311.84 67.24 314.18 67.24 314.18 62.97 303.26 62.97 303.26 67.24"/><path class="cls-2" d="M327.49,62.45q-6,0-9.1,3.67a13.21,13.21,0,0,0-3.07,8.76,11.15,11.15,0,0,0,11.86,12,12.34,12.34,0,0,0,9-3.35,11.72,11.72,0,0,0,3.46-8.81,13,13,0,0,0-3-8.58Q333.58,62.45,327.49,62.45Zm4.63,17.81a5.66,5.66,0,0,1-4.73,2.21,5.35,5.35,0,0,1-4.71-2.29,9.61,9.61,0,0,1-1.59-5.62,8.84,8.84,0,0,1,1.66-5.64,5.57,5.57,0,0,1,4.63-2.11,6,6,0,0,1,4.65,2,8.24,8.24,0,0,1,1.79,5.72A9.1,9.1,0,0,1,332.12,80.26Z"/><path class="cls-2" d="M356.72,62.61A4.89,4.89,0,0,0,353.1,64a8.11,8.11,0,0,0-2,3.35V63h-8.79v4.32H346V82.06h-3.48v4.26h13.68V82.06h-4.63V71.71a4.83,4.83,0,0,1,1.07-3.33,3.27,3.27,0,0,1,2.52-1.2,4.14,4.14,0,0,1,1.77.52l.88,4,4.32-.52-1-7.28A8,8,0,0,0,356.72,62.61Z"/><polygon class="cls-2" points="388.07 82.06 381 73.74 386.51 67.29 389.43 67.29 389.43 62.97 378.04 62.97 378.04 67.29 381.11 67.29 377 72.23 372.99 72.23 372.99 50.54 363.74 50.54 363.74 54.81 367.43 54.81 367.43 82.06 363.94 82.06 363.94 86.32 375.59 86.32 375.59 82.06 372.99 82.06 372.99 76.23 376.74 76.23 381.63 82.06 378.92 82.06 378.92 86.32 390.57 86.32 390.57 82.06 388.07 82.06"/></g></g></svg>