<svg xmlns="http://www.w3.org/2000/svg" viewBox="0 0 390.65 137.57"><defs><style>.cls-1{fill:none;}.cls-2{fill:#fff;}</style></defs><title>ossn-logo-one-color-white</title><g id="Layer_2" data-name="Layer 2"><g id="Layer_1-2" data-name="Layer 1"><rect class="cls-1" x="71.07" y="125.24" width="4.22" height="5.52"/><rect class="cls-1" x="71.07" y="116.15" width="4.22" height="5.19"/><path class="cls-1" d="M43.41,131c4.67,0,8-2.95,8-7.61,0-4.08-2.56-7.61-7.81-7.61s-7.84,3.53-7.84,7.81C35.79,128.21,38.9,131,43.41,131Zm.16-12c2,0,3.56,1.33,3.56,4.28,0,2.79-1.43,4.54-3.6,4.54s-3.43-1.94-3.43-4.47C40.1,120.53,41.43,118.94,43.57,118.94Z"/><polygon class="cls-1" points="57.25 119.07 61.82 119.07 53.78 128.43 54.21 130.76 66.97 130.76 67.88 125.59 64.58 125.22 63.9 127.51 59.16 127.51 67.27 118.32 66.94 116.15 54.11 116.15 53.59 121.18 56.6 121.41 57.25 119.07"/><path class="cls-1" d="M15.9,127.51H13v-5.14c0-2,.91-3.47,2.92-3.47,1.65,0,2.6,1,2.6,3.5v8.35h5.84v-3.25H22.39v-5.14c0-2,.91-3.47,2.92-3.47,1.65,0,2.6,1,2.6,3.5v8.35h6.17v-3.25H32.13v-6.73A4.77,4.77,0,0,0,27,115.73a5,5,0,0,0-4.82,3.14,4.75,4.75,0,0,0-4.78-3.14A5,5,0,0,0,13,118.23v-2.07H6.81v2.92H8.76v8.44H6.81v3.25H15.9Z"/><polygon class="cls-1" points="88.49 108.36 84.37 108.36 78.05 130.76 82.17 130.76 88.49 108.36"/><path class="cls-1" d="M123,70.46a4.29,4.29,0,0,0-3.93-1.85,4.53,4.53,0,0,0-3.8,1.66,8.22,8.22,0,0,0-1.61,4.11h10.3A6.05,6.05,0,0,0,123,70.46Z"/><path class="cls-1" d="M90.3,84.37A5.4,5.4,0,0,0,94.88,82a8.52,8.52,0,0,0,1.77-4.94V75.32a6.43,6.43,0,0,0-1.77-4.63A5.73,5.73,0,0,0,90.67,69a5.62,5.62,0,0,0-4.55,2.11,8.75,8.75,0,0,0-1.74,5.75,8.1,8.1,0,0,0,1.74,5.62A5.45,5.45,0,0,0,90.3,84.37Z"/><path class="cls-1" d="M279.82,16.46a4.29,4.29,0,0,0-3.93-1.85,4.53,4.53,0,0,0-3.8,1.66,8.22,8.22,0,0,0-1.61,4.11h10.3A6.05,6.05,0,0,0,279.82,16.46Z"/><polygon class="cls-1" points="90.66 130.76 96.98 108.36 92.86 108.36 86.54 130.76 90.66 130.76"/><path class="cls-1" d="M51.67,30.37a5.52,5.52,0,0,0,4.6-2.08,8.92,8.92,0,0,0,1.64-5.67,8.37,8.37,0,0,0-1.72-5.69A5.56,5.56,0,0,0,51.82,15a5.24,5.24,0,0,0-4.42,2.13,8.58,8.58,0,0,0-1.72,5l-.05,1.82a6.49,6.49,0,0,0,1.69,4.68A5.74,5.74,0,0,0,51.67,30.37Z"/><path class="cls-1" d="M101.14,119.13a4.56,4.56,0,0,1,2.24-.42c2.37,0,2.41,1.78,2.41,3.27v.49a18.36,18.36,0,0,0-2.41-.13c-3.34,0-6.82.84-6.82,4.44,0,3,2.4,4.18,4.5,4.18a5.29,5.29,0,0,0,4.7-2.92A3,3,0,0,0,109,131a5.68,5.68,0,0,0,2.63-.68l0-2.2a2.1,2.1,0,0,1-.6.1c-.68,0-1-.29-1-1.13v-6.35c0-3.34-2.69-5-5.83-5a14.19,14.19,0,0,0-6.29,1.33l-.57,3.36,3.34.36Zm1.45,8.85a1.53,1.53,0,0,1-1.72-1.69c0-1.59,1.3-2,2.79-2a15.42,15.42,0,0,1,2.11.19C105.67,126.91,104.08,128,102.59,128Z"/><path class="cls-1" d="M17.35,29.74q5.36,0,8.06-3.46a13.79,13.79,0,0,0,2.7-8.76q0-5.67-2.89-9a10,10,0,0,0-8-3.38q-5.41,0-8.14,3.51a13.76,13.76,0,0,0-2.73,8.71A14.48,14.48,0,0,0,9,26.05Q11.68,29.74,17.35,29.74Z"/><path class="cls-1" d="M81.75,16.46a4.29,4.29,0,0,0-3.93-1.85A4.53,4.53,0,0,0,74,16.28a8.22,8.22,0,0,0-1.61,4.11h10.3A6.05,6.05,0,0,0,81.75,16.46Z"/><path class="cls-1" d="M246.85,70.46a4.29,4.29,0,0,0-3.93-1.85,4.53,4.53,0,0,0-3.8,1.66,8.22,8.22,0,0,0-1.61,4.11h10.3A6.05,6.05,0,0,0,246.85,70.46Z"/><path class="cls-1" d="M327.47,68.82a5.57,5.57,0,0,0-4.63,2.11,8.85,8.85,0,0,0-1.66,5.64,9.61,9.61,0,0,0,1.59,5.62,5.35,5.35,0,0,0,4.71,2.29,5.66,5.66,0,0,0,4.73-2.21,9.1,9.1,0,0,0,1.72-5.75,8.24,8.24,0,0,0-1.79-5.72A6,6,0,0,0,327.47,68.82Z"/><path class="cls-1" d="M172.88,14.82a5.57,5.57,0,0,0-4.63,2.11,8.85,8.85,0,0,0-1.66,5.64,9.61,9.61,0,0,0,1.59,5.62,5.35,5.35,0,0,0,4.71,2.29,5.66,5.66,0,0,0,4.73-2.21,9.1,9.1,0,0,0,1.72-5.75,8.24,8.24,0,0,0-1.79-5.72A6,6,0,0,0,172.88,14.82Z"/><path class="cls-2" d="M43.53,127.75c2.17,0,3.6-1.75,3.6-4.54,0-2.95-1.59-4.28-3.56-4.28-2.14,0-3.47,1.59-3.47,4.34C40.1,125.81,41.27,127.75,43.53,127.75Z"/><path class="cls-2" d="M100.87,126.29a1.53,1.53,0,0,0,1.72,1.69c1.49,0,3.08-1.07,3.18-3.5a15.42,15.42,0,0,0-2.11-.19C102.17,124.29,100.87,124.71,100.87,126.29Z"/><path class="cls-2" d="M0,137.57H116.82V104.15H0Zm97.89-20.51a14.19,14.19,0,0,1,6.29-1.33c3.14,0,5.83,1.62,5.83,5V127c0,.84.29,1.13,1,1.13a2.1,2.1,0,0,0,.6-.1l0,2.2A5.68,5.68,0,0,1,109,131a3,3,0,0,1-3.21-2.92,5.29,5.29,0,0,1-4.7,2.92c-2.11,0-4.5-1.13-4.5-4.18,0-3.6,3.48-4.44,6.82-4.44a18.36,18.36,0,0,1,2.41.13V122c0-1.49,0-3.27-2.41-3.27a4.56,4.56,0,0,0-2.24.42l-.48,1.64-3.34-.36ZM97,108.37l-6.32,22.39H86.54l6.32-22.39Zm-12.61,0h4.12l-6.32,22.39H78.05Zm-13.3,7.79h4.22v5.19H71.07Zm0,9.09h4.22v5.52H71.07Zm-17-9.09H66.94l.32,2.16-8.1,9.19h4.73l.68-2.29,3.31.37L67,130.76H54.21l-.42-2.33,8-9.36H57.25l-.65,2.33-3-.23Zm-10.48-.42c5.25,0,7.81,3.53,7.81,7.61,0,4.67-3.37,7.61-8,7.61-4.5,0-7.62-2.75-7.62-7.42C35.79,119.26,38.38,115.73,43.63,115.73ZM6.81,127.51H8.76v-8.44H6.81v-2.92H13v2.07a5,5,0,0,1,4.47-2.49,4.75,4.75,0,0,1,4.78,3.14A5,5,0,0,1,27,115.73a4.77,4.77,0,0,1,5.08,5.06v6.73h1.95v3.25H27.91v-8.35c0-2.53-.94-3.5-2.6-3.5-2,0-2.92,1.43-2.92,3.47v5.14h1.95v3.25H18.5v-8.35c0-2.53-.94-3.5-2.6-3.5-2,0-2.92,1.43-2.92,3.47v5.14H15.9v3.25H6.81Z"/><path class="cls-2" d="M17.09,34.84q8,0,12.64-5.15a17.8,17.8,0,0,0,4.63-12.32,17.7,17.7,0,0,0-4.6-12.25Q25.15,0,17.25,0T4.77,5A17.59,17.59,0,0,0,.09,17.47,18,18,0,0,0,4.56,29.69Q9,34.84,17.09,34.84Zm-8-26.23Q11.79,5.1,17.19,5.1a10,10,0,0,1,8,3.38q2.89,3.38,2.89,9a13.79,13.79,0,0,1-2.7,8.76q-2.7,3.46-8.06,3.46-5.67,0-8.35-3.69a14.48,14.48,0,0,1-2.68-8.74A13.76,13.76,0,0,1,9.06,8.61Z"/><path class="cls-2" d="M40.07,41H36.59V45.4H50.27V41H45.64V31.2q2.29,3.64,7.33,3.64,5.46,0,8.09-3.9A15.56,15.56,0,0,0,63.68,22q0-5.46-2.78-8.5a9.38,9.38,0,0,0-7.25-3A8,8,0,0,0,48.52,12a10.06,10.06,0,0,0-2.89,3.59V11h-9.2v4.26h3.64ZM45.69,22.1a8.58,8.58,0,0,1,1.72-5A5.24,5.24,0,0,1,51.82,15a5.56,5.56,0,0,1,4.37,1.95,8.37,8.37,0,0,1,1.72,5.69,8.92,8.92,0,0,1-1.64,5.67,5.52,5.52,0,0,1-4.6,2.08,5.74,5.74,0,0,1-4.34-1.77,6.49,6.49,0,0,1-1.69-4.68Z"/><path class="cls-2" d="M78.19,34.84a11.16,11.16,0,0,0,7.44-2.29,8,8,0,0,0,3-5.36L84,26.31a6.47,6.47,0,0,1-1.53,2.76,5,5,0,0,1-3.87,1.3q-5.77,0-6.24-6.55H88.12a17,17,0,0,0,.31-3.12,10.18,10.18,0,0,0-2.89-7.3,10.26,10.26,0,0,0-7.67-2.89,10.27,10.27,0,0,0-8.35,3.59,13.5,13.5,0,0,0-3,8.94q0,5.82,3.28,8.81A11.94,11.94,0,0,0,78.19,34.84ZM74,16.28a4.53,4.53,0,0,1,3.8-1.66,4.29,4.29,0,0,1,3.93,1.85,6.05,6.05,0,0,1,1,3.93H72.42A8.22,8.22,0,0,1,74,16.28Z"/><path class="cls-2" d="M95,30.06H91.5v4.26H104V30.06h-3.48V20.75a6.3,6.3,0,0,1,1.59-4.21,5.33,5.33,0,0,1,4.19-1.71,4.18,4.18,0,0,1,3.33,1.38q1.2,1.38,1.2,4.71v9.15h-3.43v4.26h12.48V30.06h-3.48V18.88q0-4.32-2.39-6.34a8.56,8.56,0,0,0-5.72-2,8.28,8.28,0,0,0-7.75,4.26V11h-9.2v4.31H95Z"/><path class="cls-2" d="M134,23.87l-.94,7.75A12.9,12.9,0,0,0,138.17,34a26.22,26.22,0,0,0,6.63.83q5.77,0,9.28-2.7a9.2,9.2,0,0,0,3.51-7.75q0-4.16-2-6.16a10.79,10.79,0,0,0-4.71-2.78q-2.7-.78-4.84-1.25a23.5,23.5,0,0,1-4.5-1.48,3.44,3.44,0,0,1-2-3.46,3.44,3.44,0,0,1,1.61-3.17,7.64,7.64,0,0,1,4.06-1,13.33,13.33,0,0,1,2.81.31,10.14,10.14,0,0,1,2.91,1.14l.47,4.37L156,10.5l-.31-7.12a12.41,12.41,0,0,0-4.6-2.44A19.87,19.87,0,0,0,145.06,0,14.68,14.68,0,0,0,137,2.31q-3.62,2.31-3.61,7.62A7.84,7.84,0,0,0,135,15.29a8.92,8.92,0,0,0,4.06,2.6,43.37,43.37,0,0,0,4.84,1.25,22.61,22.61,0,0,1,5.25,1.64q2.29,1.07,2.29,4.24,0,2.91-2,3.88a11.58,11.58,0,0,1-5,1,16.6,16.6,0,0,1-2.68-.23,10.78,10.78,0,0,1-3.15-1.12l.1-4.16Z"/><path class="cls-2" d="M173,10.45q-6,0-9.1,3.67a13.21,13.21,0,0,0-3.07,8.76,11.75,11.75,0,0,0,3.25,8.74,11.68,11.68,0,0,0,8.61,3.22,12.34,12.34,0,0,0,9-3.35,11.72,11.72,0,0,0,3.46-8.81,13,13,0,0,0-3-8.58Q179.07,10.45,173,10.45Zm4.63,17.81a5.66,5.66,0,0,1-4.73,2.21,5.35,5.35,0,0,1-4.71-2.29,9.61,9.61,0,0,1-1.59-5.62,8.85,8.85,0,0,1,1.66-5.64,5.57,5.57,0,0,1,4.63-2.11,6,6,0,0,1,4.65,2,8.24,8.24,0,0,1,1.79,5.72A9.1,9.1,0,0,1,177.61,28.26Z"/><path class="cls-2" d="M206.42,30.42v3.9h9.2V30.06H212V11h-9.72v4.26h4.16v9.1a6.71,6.71,0,0,1-1.59,4.32,5.13,5.13,0,0,1-4.13,1.82,4.23,4.23,0,0,1-3.38-1.38q-1.2-1.38-1.2-4.71V11h-9v4.26h3.48V26.42q0,4.37,2.42,6.37a8.72,8.72,0,0,0,5.75,2Q204.13,34.79,206.42,30.42Z"/><path class="cls-2" d="M227,19.71A4.83,4.83,0,0,1,228,16.38a3.27,3.27,0,0,1,2.52-1.2,4.14,4.14,0,0,1,1.77.52l.88,4,4.32-.52-1-7.28a7.94,7.94,0,0,0-4.37-1.3A4.89,4.89,0,0,0,228.54,12a8.11,8.11,0,0,0-2,3.35V11h-8.79v4.31h3.64V30.06h-3.48v4.26h13.68V30.06H227Z"/><path class="cls-2" d="M251.61,34.84q5.3,0,7.7-2.89a11.46,11.46,0,0,0,2.76-6l-4.68-.88q-.88,5.3-5.25,5.3-6,0-6-7.59,0-7.8,5.82-7.8a9.15,9.15,0,0,1,4.06.94l.78,3.85,4.47-.47-.94-6.55A15.52,15.52,0,0,0,256.23,11a17.15,17.15,0,0,0-4.16-.52,11.17,11.17,0,0,0-8.5,3.43,12.69,12.69,0,0,0-3.25,9.1q0,5.77,3.15,8.79A11.28,11.28,0,0,0,251.61,34.84Z"/><path class="cls-2" d="M276.25,34.84a11.16,11.16,0,0,0,7.44-2.29,8,8,0,0,0,3-5.36l-4.63-.88a6.47,6.47,0,0,1-1.53,2.76,5,5,0,0,1-3.87,1.3q-5.77,0-6.24-6.55h15.76a17,17,0,0,0,.31-3.12,10.18,10.18,0,0,0-2.89-7.3,11.56,11.56,0,0,0-16,.7,13.5,13.5,0,0,0-3,8.94q0,5.82,3.28,8.81A11.94,11.94,0,0,0,276.25,34.84Zm-4.16-18.56a4.53,4.53,0,0,1,3.8-1.66,4.29,4.29,0,0,1,3.93,1.85,6.05,6.05,0,0,1,1,3.93h-10.3A8.22,8.22,0,0,1,272.09,16.28Z"/><path class="cls-2" d="M1.59,77.87.66,85.62A12.9,12.9,0,0,0,5.73,88a26.22,26.22,0,0,0,6.63.83q5.77,0,9.28-2.7a9.2,9.2,0,0,0,3.51-7.75q0-4.16-2-6.16a10.79,10.79,0,0,0-4.71-2.78q-2.7-.78-4.84-1.25a23.5,23.5,0,0,1-4.5-1.48,4,4,0,0,1-.39-6.63,7.64,7.64,0,0,1,4.06-1,13.33,13.33,0,0,1,2.81.31,10.14,10.14,0,0,1,2.91,1.14L19,64.92l4.63-.42-.31-7.12a12.41,12.41,0,0,0-4.6-2.44A19.87,19.87,0,0,0,12.62,54a14.68,14.68,0,0,0-8.09,2.31Q.92,58.63.92,63.93a7.84,7.84,0,0,0,1.61,5.36,8.92,8.92,0,0,0,4.06,2.6,43.37,43.37,0,0,0,4.84,1.25,22.61,22.61,0,0,1,5.25,1.64Q19,75.84,19,79q0,2.91-2,3.88a11.58,11.58,0,0,1-5,1,16.6,16.6,0,0,1-2.68-.23A10.78,10.78,0,0,1,6.12,82.5l.1-4.16Z"/><path class="cls-2" d="M33.18,86.86a8.6,8.6,0,0,0,6,2q7.23,0,8.22-7.38l-4.11-1.3q-.42,2.7-1.51,3.35a4,4,0,0,1-2,.65q-3.23,0-3.22-3.69V69.08h8.68V65H36.54V57.74H31V65H27.54v4.11H31V81.35A7,7,0,0,0,33.18,86.86Z"/><path class="cls-2" d="M76.37,88.32V84.06H72.73V65H63v4.26h4.16v9.1a6.71,6.71,0,0,1-1.59,4.32,5.13,5.13,0,0,1-4.13,1.82,4.23,4.23,0,0,1-3.38-1.38q-1.2-1.38-1.2-4.71V65h-9v4.26h3.48V80.42q0,4.37,2.42,6.37a8.72,8.72,0,0,0,5.75,2q5.41,0,7.7-4.37v3.9Z"/><path class="cls-2" d="M81.13,68.33a15.63,15.63,0,0,0-2.52,8.81q0,5.46,2.68,8.58a9.06,9.06,0,0,0,7.25,3.12,8.24,8.24,0,0,0,5.12-1.48,10.3,10.3,0,0,0,3-3.51v4.47h9V84.06h-3.43V52.54H91.6v4.27h5v11.8a7.86,7.86,0,0,0-2.94-3,9,9,0,0,0-4.65-1.12Q83.65,64.5,81.13,68.33Zm5,2.76A5.62,5.62,0,0,1,90.67,69a5.73,5.73,0,0,1,4.21,1.71,6.43,6.43,0,0,1,1.77,4.63v1.77A8.52,8.52,0,0,1,94.88,82a5.58,5.58,0,0,1-8.76.42,8.1,8.1,0,0,1-1.74-5.62A8.75,8.75,0,0,1,86.12,71.08Z"/><path class="cls-2" d="M123.71,83.07a5,5,0,0,1-3.87,1.3q-5.77,0-6.24-6.55h15.76a17,17,0,0,0,.31-3.12,10.86,10.86,0,0,0-18.9-6.6,13.5,13.5,0,0,0-3,8.94q0,5.82,3.28,8.81a11.94,11.94,0,0,0,8.37,3,11.16,11.16,0,0,0,7.44-2.29,8,8,0,0,0,3-5.36l-4.63-.88A6.47,6.47,0,0,1,123.71,83.07Zm-8.45-12.79a4.53,4.53,0,0,1,3.8-1.66A4.29,4.29,0,0,1,123,70.46a6.05,6.05,0,0,1,1,3.93h-10.3A8.22,8.22,0,0,1,115.26,70.28Z"/><path class="cls-2" d="M157.64,72.88q0-4.32-2.39-6.34a8.56,8.56,0,0,0-5.72-2,8.28,8.28,0,0,0-7.75,4.26V65h-9.2v4.31h3.64V84.06h-3.48v4.26h12.53V84.06h-3.48V74.75a6.3,6.3,0,0,1,1.59-4.21,5.33,5.33,0,0,1,4.19-1.71,4.18,4.18,0,0,1,3.33,1.38q1.2,1.38,1.2,4.71v9.15h-3.43v4.26h12.48V84.06h-3.48Z"/><path class="cls-2" d="M176.42,83.51a4,4,0,0,1-2,.65q-3.23,0-3.22-3.69V69.08h8.68V65h-8.68V57.74h-5.56V65h-3.43v4.11h3.43V81.35a7,7,0,0,0,2.21,5.51,8.6,8.6,0,0,0,6,2q7.23,0,8.22-7.38l-4.11-1.3Q177.51,82.86,176.42,83.51Z"/><polygon class="cls-2" points="215.67 59.46 220.62 59.46 220.62 76.88 220.41 76.88 202.57 54.52 194.09 54.52 194.09 59.46 198.36 59.46 198.36 83.38 194.62 83.38 194.62 88.32 208.71 88.32 208.71 83.38 203.77 83.38 203.77 64.92 203.97 64.92 222.69 88.37 226.02 88.32 226.02 59.46 229.92 59.46 229.92 54.52 215.67 54.52 215.67 59.46"/><path class="cls-2" d="M247.58,83.07a5,5,0,0,1-3.87,1.3q-5.77,0-6.24-6.55h15.76a17,17,0,0,0,.31-3.12,10.86,10.86,0,0,0-18.9-6.6,13.5,13.5,0,0,0-3,8.94q0,5.82,3.28,8.81a11.94,11.94,0,0,0,8.37,3,11.16,11.16,0,0,0,7.44-2.29,8,8,0,0,0,3-5.36l-4.63-.88A6.47,6.47,0,0,1,247.58,83.07Zm-8.45-12.79a4.53,4.53,0,0,1,3.8-1.66,4.29,4.29,0,0,1,3.93,1.85,6.05,6.05,0,0,1,1,3.93h-10.3A8.22,8.22,0,0,1,239.13,70.28Z"/><path class="cls-2" d="M269.81,83.51a4,4,0,0,1-2,.65q-3.23,0-3.22-3.69V69.08h8.68V65h-8.68V57.74H259V65h-3.43v4.11H259V81.35a7,7,0,0,0,2.21,5.51,8.6,8.6,0,0,0,6,2q7.23,0,8.22-7.38l-4.11-1.3Q270.9,82.86,269.81,83.51Z"/><polygon class="cls-2" points="303.35 69.24 306.83 69.24 304.02 80.31 303.71 80.31 297 64.97 293.57 64.97 287.59 80.47 287.28 80.47 283.69 69.24 287.33 69.24 287.33 64.97 275.47 64.97 275.47 69.24 277.76 69.24 284.47 88.32 288.42 88.32 294.51 72.93 294.77 72.93 301.21 88.32 305.37 88.32 311.93 69.24 314.27 69.24 314.27 64.97 303.35 64.97 303.35 69.24"/><path class="cls-2" d="M327.58,64.45q-6,0-9.1,3.67a13.21,13.21,0,0,0-3.07,8.76,11.15,11.15,0,0,0,11.86,12,12.34,12.34,0,0,0,9-3.35,11.72,11.72,0,0,0,3.46-8.81,13,13,0,0,0-3-8.58Q333.66,64.45,327.58,64.45Zm4.63,17.81a5.66,5.66,0,0,1-4.73,2.21,5.35,5.35,0,0,1-4.71-2.29,9.61,9.61,0,0,1-1.59-5.62,8.85,8.85,0,0,1,1.66-5.64,5.57,5.57,0,0,1,4.63-2.11,6,6,0,0,1,4.65,2,8.24,8.24,0,0,1,1.79,5.72A9.1,9.1,0,0,1,332.21,82.26Z"/><path class="cls-2" d="M356.8,64.61A4.89,4.89,0,0,0,353.19,66a8.11,8.11,0,0,0-2,3.35V65H342.4v4.31H346V84.06h-3.48v4.26h13.68V84.06H351.6V73.71a4.83,4.83,0,0,1,1.07-3.33,3.27,3.27,0,0,1,2.52-1.2,4.14,4.14,0,0,1,1.77.52l.88,4,4.32-.52-1-7.28A7.94,7.94,0,0,0,356.8,64.61Z"/><polygon class="cls-2" points="388.16 84.06 381.09 75.74 386.6 69.29 389.51 69.29 389.51 64.97 378.12 64.97 378.12 69.29 381.19 69.29 377.08 74.23 373.08 74.23 373.08 52.54 363.82 52.54 363.82 56.81 367.51 56.81 367.51 84.06 364.03 84.06 364.03 88.32 375.68 88.32 375.68 84.06 373.08 84.06 373.08 78.23 376.82 78.23 381.71 84.06 379.01 84.06 379.01 88.32 390.65 88.32 390.65 84.06 388.16 84.06"/></g></g></svg>