<svg xmlns="http://www.w3.org/2000/svg" viewBox="0 0 390.57 137.57"><defs><style>.cls-1{fill:none;}.cls-2{fill:#fff;}</style></defs><title>ossn-logo-bw</title><g id="Layer_2" data-name="Layer 2"><g id="Layer_1-2" data-name="Layer 1"><path class="cls-1" d="M81.67,16.46a4.29,4.29,0,0,0-3.93-1.85,4.53,4.53,0,0,0-3.8,1.66,8.22,8.22,0,0,0-1.61,4.11h10.3A6.05,6.05,0,0,0,81.67,16.46Z"/><path class="cls-1" d="M90.22,84.37A5.4,5.4,0,0,0,94.79,82a8.52,8.52,0,0,0,1.77-4.94V75.32a6.43,6.43,0,0,0-1.77-4.63A5.73,5.73,0,0,0,90.58,69,5.62,5.62,0,0,0,86,71.08a8.75,8.75,0,0,0-1.74,5.75A8.1,8.1,0,0,0,86,82.44,5.45,5.45,0,0,0,90.22,84.37Z"/><path class="cls-1" d="M246.76,70.46a4.29,4.29,0,0,0-3.93-1.85,4.53,4.53,0,0,0-3.8,1.66,8.22,8.22,0,0,0-1.61,4.11h10.3A6.05,6.05,0,0,0,246.76,70.46Z"/><path class="cls-1" d="M172.79,14.82a5.57,5.57,0,0,0-4.63,2.11,8.85,8.85,0,0,0-1.66,5.64,9.61,9.61,0,0,0,1.59,5.62,5.35,5.35,0,0,0,4.71,2.29,5.66,5.66,0,0,0,4.73-2.21,9.1,9.1,0,0,0,1.72-5.75,8.24,8.24,0,0,0-1.79-5.72A6,6,0,0,0,172.79,14.82Z"/><path class="cls-1" d="M122.9,70.46A4.29,4.29,0,0,0,119,68.61a4.53,4.53,0,0,0-3.8,1.66,8.22,8.22,0,0,0-1.61,4.11h10.3A6.05,6.05,0,0,0,122.9,70.46Z"/><path class="cls-1" d="M17.26,29.74q5.36,0,8.06-3.46A13.79,13.79,0,0,0,28,17.52q0-5.67-2.89-9a10,10,0,0,0-8-3.38Q11.7,5.1,9,8.61a13.76,13.76,0,0,0-2.73,8.71,14.48,14.48,0,0,0,2.68,8.74Q11.6,29.74,17.26,29.74Z"/><path class="cls-1" d="M51.58,30.37a5.52,5.52,0,0,0,4.6-2.08,8.92,8.92,0,0,0,1.64-5.67,8.37,8.37,0,0,0-1.72-5.69A5.56,5.56,0,0,0,51.74,15a5.24,5.24,0,0,0-4.42,2.13,8.58,8.58,0,0,0-1.72,5l-.05,1.82a6.49,6.49,0,0,0,1.69,4.68A5.74,5.74,0,0,0,51.58,30.37Z"/><path class="cls-1" d="M279.73,16.46a4.29,4.29,0,0,0-3.93-1.85,4.53,4.53,0,0,0-3.8,1.66,8.22,8.22,0,0,0-1.61,4.11h10.3A6.05,6.05,0,0,0,279.73,16.46Z"/><path class="cls-1" d="M327.39,68.82a5.57,5.57,0,0,0-4.63,2.11,8.85,8.85,0,0,0-1.66,5.64,9.61,9.61,0,0,0,1.59,5.62,5.35,5.35,0,0,0,4.71,2.29,5.66,5.66,0,0,0,4.73-2.21,9.1,9.1,0,0,0,1.72-5.75A8.24,8.24,0,0,0,332,70.79,6,6,0,0,0,327.39,68.82Z"/><path d="M17,34.84q8,0,12.64-5.15a17.8,17.8,0,0,0,4.63-12.32,17.7,17.7,0,0,0-4.6-12.25Q25.06,0,17.16,0T4.68,5A17.59,17.59,0,0,0,0,17.47,18,18,0,0,0,4.47,29.69Q8.94,34.84,17,34.84ZM9,8.61Q11.7,5.1,17.11,5.1a10,10,0,0,1,8,3.38q2.89,3.38,2.89,9a13.79,13.79,0,0,1-2.7,8.76q-2.7,3.46-8.06,3.46-5.67,0-8.35-3.69a14.48,14.48,0,0,1-2.68-8.74A13.76,13.76,0,0,1,9,8.61Z"/><path d="M40,41H36.5V45.4H50.18V41H45.55V31.2q2.29,3.64,7.33,3.64,5.46,0,8.09-3.9A15.56,15.56,0,0,0,63.6,22q0-5.46-2.78-8.5a9.38,9.38,0,0,0-7.25-3A8,8,0,0,0,48.44,12a10.06,10.06,0,0,0-2.89,3.59V11h-9.2v4.26H40ZM45.6,22.1a8.58,8.58,0,0,1,1.72-5A5.24,5.24,0,0,1,51.74,15a5.56,5.56,0,0,1,4.37,1.95,8.37,8.37,0,0,1,1.72,5.69,8.92,8.92,0,0,1-1.64,5.67,5.52,5.52,0,0,1-4.6,2.08,5.74,5.74,0,0,1-4.34-1.77,6.49,6.49,0,0,1-1.69-4.68Z"/><path d="M78.1,34.84a11.16,11.16,0,0,0,7.44-2.29,8,8,0,0,0,3-5.36l-4.63-.88a6.47,6.47,0,0,1-1.53,2.76,5,5,0,0,1-3.87,1.3q-5.77,0-6.24-6.55H88a17,17,0,0,0,.31-3.12,10.18,10.18,0,0,0-2.89-7.3,10.26,10.26,0,0,0-7.67-2.89,10.27,10.27,0,0,0-8.35,3.59,13.5,13.5,0,0,0-3,8.94q0,5.82,3.28,8.81A11.94,11.94,0,0,0,78.1,34.84ZM73.94,16.28a4.53,4.53,0,0,1,3.8-1.66,4.29,4.29,0,0,1,3.93,1.85,6.05,6.05,0,0,1,1,3.93H72.33A8.22,8.22,0,0,1,73.94,16.28Z"/><path d="M94.9,30.06H91.42v4.26h12.53V30.06h-3.48V20.75A6.3,6.3,0,0,1,102,16.54a5.33,5.33,0,0,1,4.19-1.71,4.18,4.18,0,0,1,3.33,1.38q1.2,1.38,1.2,4.71v9.15h-3.43v4.26h12.48V30.06h-3.48V18.88q0-4.32-2.39-6.34a8.56,8.56,0,0,0-5.72-2,8.28,8.28,0,0,0-7.75,4.26V11h-9.2v4.31H94.9Z"/><path d="M134,23.87,133,31.62A12.9,12.9,0,0,0,138.08,34a26.22,26.22,0,0,0,6.63.83q5.77,0,9.28-2.7a9.2,9.2,0,0,0,3.51-7.75q0-4.16-2-6.16a10.79,10.79,0,0,0-4.71-2.78q-2.7-.78-4.84-1.25a23.5,23.5,0,0,1-4.5-1.48,3.44,3.44,0,0,1-2-3.46,3.44,3.44,0,0,1,1.61-3.17,7.64,7.64,0,0,1,4.06-1,13.33,13.33,0,0,1,2.81.31,10.14,10.14,0,0,1,2.91,1.14l.47,4.37,4.63-.42-.31-7.12A12.41,12.41,0,0,0,151,.94,19.87,19.87,0,0,0,145,0a14.68,14.68,0,0,0-8.09,2.31q-3.62,2.31-3.61,7.62a7.84,7.84,0,0,0,1.61,5.36,8.92,8.92,0,0,0,4.06,2.6,43.37,43.37,0,0,0,4.84,1.25A22.61,22.61,0,0,1,149,20.77q2.29,1.07,2.29,4.24,0,2.91-2,3.88a11.58,11.58,0,0,1-5,1,16.6,16.6,0,0,1-2.68-.23,10.78,10.78,0,0,1-3.15-1.12l.1-4.16Z"/><path d="M172.9,10.45q-6,0-9.1,3.67a13.21,13.21,0,0,0-3.07,8.76A11.75,11.75,0,0,0,164,31.62a11.68,11.68,0,0,0,8.61,3.22,12.34,12.34,0,0,0,9-3.35A11.72,11.72,0,0,0,185,22.67a13,13,0,0,0-3-8.58Q179,10.45,172.9,10.45Zm4.63,17.81a5.66,5.66,0,0,1-4.73,2.21,5.35,5.35,0,0,1-4.71-2.29,9.61,9.61,0,0,1-1.59-5.62,8.85,8.85,0,0,1,1.66-5.64,5.57,5.57,0,0,1,4.63-2.11,6,6,0,0,1,4.65,2,8.24,8.24,0,0,1,1.79,5.72A9.1,9.1,0,0,1,177.53,28.26Z"/><path d="M206.33,30.42v3.9h9.2V30.06H211.9V11h-9.72v4.26h4.16v9.1a6.71,6.71,0,0,1-1.59,4.32,5.13,5.13,0,0,1-4.13,1.82,4.23,4.23,0,0,1-3.38-1.38q-1.2-1.38-1.2-4.71V11h-9v4.26h3.48V26.42q0,4.37,2.42,6.37a8.72,8.72,0,0,0,5.75,2Q204,34.79,206.33,30.42Z"/><path d="M226.87,19.71a4.83,4.83,0,0,1,1.07-3.33,3.27,3.27,0,0,1,2.52-1.2,4.14,4.14,0,0,1,1.77.52l.88,4,4.32-.52-1-7.28a7.94,7.94,0,0,0-4.37-1.3A4.89,4.89,0,0,0,228.46,12a8.11,8.11,0,0,0-2,3.35V11h-8.79v4.31h3.64V30.06h-3.48v4.26H231.5V30.06h-4.63Z"/><path d="M251.52,34.84q5.3,0,7.7-2.89a11.46,11.46,0,0,0,2.76-6l-4.68-.88q-.88,5.3-5.25,5.3-6,0-6-7.59,0-7.8,5.82-7.8a9.15,9.15,0,0,1,4.06.94l.78,3.85,4.47-.47-.94-6.55A15.52,15.52,0,0,0,256.15,11,17.15,17.15,0,0,0,252,10.5a11.17,11.17,0,0,0-8.5,3.43,12.69,12.69,0,0,0-3.25,9.1q0,5.77,3.15,8.79A11.28,11.28,0,0,0,251.52,34.84Z"/><path d="M276.17,34.84a11.16,11.16,0,0,0,7.44-2.29,8,8,0,0,0,3-5.36L282,26.31a6.47,6.47,0,0,1-1.53,2.76,5,5,0,0,1-3.87,1.3q-5.77,0-6.24-6.55H286.1a17,17,0,0,0,.31-3.12,10.18,10.18,0,0,0-2.89-7.3,11.56,11.56,0,0,0-16,.7,13.5,13.5,0,0,0-3,8.94q0,5.82,3.28,8.81A11.94,11.94,0,0,0,276.17,34.84ZM272,16.28a4.53,4.53,0,0,1,3.8-1.66,4.29,4.29,0,0,1,3.93,1.85,6.05,6.05,0,0,1,1,3.93H270.4A8.22,8.22,0,0,1,272,16.28Z"/><path d="M1.51,77.87.57,85.62A12.9,12.9,0,0,0,5.64,88a26.22,26.22,0,0,0,6.63.83q5.77,0,9.28-2.7a9.2,9.2,0,0,0,3.51-7.75q0-4.16-2-6.16a10.79,10.79,0,0,0-4.71-2.78q-2.7-.78-4.84-1.25A23.5,23.5,0,0,1,9,66.71a4,4,0,0,1-.39-6.63,7.64,7.64,0,0,1,4.06-1,13.33,13.33,0,0,1,2.81.31,10.14,10.14,0,0,1,2.91,1.14l.47,4.37,4.63-.42-.31-7.12a12.41,12.41,0,0,0-4.6-2.44A19.87,19.87,0,0,0,12.53,54a14.68,14.68,0,0,0-8.09,2.31Q.83,58.63.83,63.93a7.84,7.84,0,0,0,1.61,5.36,8.92,8.92,0,0,0,4.06,2.6,43.37,43.37,0,0,0,4.84,1.25,22.61,22.61,0,0,1,5.25,1.64q2.29,1.07,2.29,4.24,0,2.91-2,3.88a11.58,11.58,0,0,1-5,1,16.6,16.6,0,0,1-2.68-.23A10.78,10.78,0,0,1,6,82.5l.1-4.16Z"/><path d="M33.1,86.86a8.6,8.6,0,0,0,6,2q7.23,0,8.22-7.38l-4.11-1.3q-.42,2.7-1.51,3.35a4,4,0,0,1-2,.65q-3.23,0-3.22-3.69V69.08h8.68V65H36.45V57.74H30.89V65H27.46v4.11h3.43V81.35A7,7,0,0,0,33.1,86.86Z"/><path d="M76.28,88.32V84.06H72.64V65H62.92v4.26h4.16v9.1a6.71,6.71,0,0,1-1.59,4.32,5.13,5.13,0,0,1-4.13,1.82A4.23,4.23,0,0,1,58,83.09q-1.2-1.38-1.2-4.71V65h-9v4.26h3.48V80.42q0,4.37,2.42,6.37a8.72,8.72,0,0,0,5.75,2q5.41,0,7.7-4.37v3.9Z"/><path d="M81,68.33a15.63,15.63,0,0,0-2.52,8.81q0,5.46,2.68,8.58a9.06,9.06,0,0,0,7.25,3.12,8.24,8.24,0,0,0,5.12-1.48,10.3,10.3,0,0,0,3-3.51v4.47h9V84.06h-3.43V52.54H91.52v4.27h5v11.8a7.86,7.86,0,0,0-2.94-3A9,9,0,0,0,89,64.5Q83.56,64.5,81,68.33Zm5,2.76A5.62,5.62,0,0,1,90.58,69a5.73,5.73,0,0,1,4.21,1.71,6.43,6.43,0,0,1,1.77,4.63v1.77A8.52,8.52,0,0,1,94.79,82a5.58,5.58,0,0,1-8.76.42,8.1,8.1,0,0,1-1.74-5.62A8.75,8.75,0,0,1,86,71.08Z"/><path d="M123.63,83.07a5,5,0,0,1-3.87,1.3q-5.77,0-6.24-6.55h15.76a17,17,0,0,0,.31-3.12,10.86,10.86,0,0,0-18.9-6.6,13.5,13.5,0,0,0-3,8.94q0,5.82,3.28,8.81a11.94,11.94,0,0,0,8.37,3,11.16,11.16,0,0,0,7.44-2.29,8,8,0,0,0,3-5.36l-4.63-.88A6.47,6.47,0,0,1,123.63,83.07Zm-8.45-12.79a4.53,4.53,0,0,1,3.8-1.66,4.29,4.29,0,0,1,3.93,1.85,6.05,6.05,0,0,1,1,3.93h-10.3A8.22,8.22,0,0,1,115.18,70.28Z"/><path d="M157.56,72.88q0-4.32-2.39-6.34a8.56,8.56,0,0,0-5.72-2,8.28,8.28,0,0,0-7.75,4.26V65h-9.2v4.31h3.64V84.06h-3.48v4.26h12.53V84.06H141.7V74.75a6.3,6.3,0,0,1,1.59-4.21,5.33,5.33,0,0,1,4.19-1.71,4.18,4.18,0,0,1,3.33,1.38q1.2,1.38,1.2,4.71v9.15h-3.43v4.26H161V84.06h-3.48Z"/><path d="M176.33,83.51a4,4,0,0,1-2,.65q-3.23,0-3.22-3.69V69.08h8.68V65h-8.68V57.74h-5.56V65h-3.43v4.11h3.43V81.35a7,7,0,0,0,2.21,5.51,8.6,8.6,0,0,0,6,2q7.23,0,8.22-7.38l-4.11-1.3Q177.42,82.86,176.33,83.51Z"/><polygon points="215.59 59.46 220.53 59.46 220.53 76.88 220.32 76.88 202.49 54.52 194.01 54.52 194.01 59.46 198.27 59.46 198.27 83.38 194.53 83.38 194.53 88.32 208.62 88.32 208.62 83.38 203.68 83.38 203.68 64.92 203.89 64.92 222.61 88.37 225.94 88.32 225.94 59.46 229.84 59.46 229.84 54.52 215.59 54.52 215.59 59.46"/><path d="M247.49,83.07a5,5,0,0,1-3.87,1.3q-5.77,0-6.24-6.55h15.76a17,17,0,0,0,.31-3.12,10.86,10.86,0,0,0-18.9-6.6,13.5,13.5,0,0,0-3,8.94q0,5.82,3.28,8.81a11.94,11.94,0,0,0,8.37,3,11.16,11.16,0,0,0,7.44-2.29,8,8,0,0,0,3-5.36L249,80.31A6.47,6.47,0,0,1,247.49,83.07ZM239,70.28a4.53,4.53,0,0,1,3.8-1.66,4.29,4.29,0,0,1,3.93,1.85,6.05,6.05,0,0,1,1,3.93h-10.3A8.22,8.22,0,0,1,239,70.28Z"/><path d="M269.72,83.51a4,4,0,0,1-2,.65q-3.23,0-3.22-3.69V69.08h8.68V65h-8.68V57.74H259V65h-3.43v4.11H259V81.35a7,7,0,0,0,2.21,5.51,8.6,8.6,0,0,0,6,2q7.23,0,8.22-7.38l-4.11-1.3Q270.81,82.86,269.72,83.51Z"/><polygon points="303.26 69.24 306.75 69.24 303.94 80.31 303.63 80.31 296.92 64.97 293.48 64.97 287.5 80.47 287.19 80.47 283.6 69.24 287.25 69.24 287.25 64.97 275.39 64.97 275.39 69.24 277.68 69.24 284.38 88.32 288.34 88.32 294.42 72.93 294.68 72.93 301.13 88.32 305.29 88.32 311.84 69.24 314.18 69.24 314.18 64.97 303.26 64.97 303.26 69.24"/><path d="M327.49,64.45q-6,0-9.1,3.67a13.21,13.21,0,0,0-3.07,8.76,11.15,11.15,0,0,0,11.86,12,12.34,12.34,0,0,0,9-3.35,11.72,11.72,0,0,0,3.46-8.81,13,13,0,0,0-3-8.58Q333.58,64.45,327.49,64.45Zm4.63,17.81a5.66,5.66,0,0,1-4.73,2.21,5.35,5.35,0,0,1-4.71-2.29,9.61,9.61,0,0,1-1.59-5.62,8.85,8.85,0,0,1,1.66-5.64,5.57,5.57,0,0,1,4.63-2.11,6,6,0,0,1,4.65,2,8.24,8.24,0,0,1,1.79,5.72A9.1,9.1,0,0,1,332.12,82.26Z"/><path d="M356.72,64.61A4.89,4.89,0,0,0,353.1,66a8.11,8.11,0,0,0-2,3.35V65h-8.79v4.31H346V84.06h-3.48v4.26h13.68V84.06h-4.63V73.71a4.83,4.83,0,0,1,1.07-3.33,3.27,3.27,0,0,1,2.52-1.2,4.14,4.14,0,0,1,1.77.52l.88,4,4.32-.52-1-7.28A7.94,7.94,0,0,0,356.72,64.61Z"/><polygon points="388.07 84.06 381 75.74 386.51 69.29 389.43 69.29 389.43 64.97 378.04 64.97 378.04 69.29 381.11 69.29 377 74.23 372.99 74.23 372.99 52.54 363.74 52.54 363.74 56.81 367.43 56.81 367.43 84.06 363.94 84.06 363.94 88.32 375.59 88.32 375.59 84.06 372.99 84.06 372.99 78.23 376.74 78.23 381.63 84.06 378.92 84.06 378.92 88.32 390.57 88.32 390.57 84.06 388.07 84.06"/><path d="M101,126.36a1.53,1.53,0,0,0,1.72,1.69c1.49,0,3.08-1.07,3.18-3.5a15.43,15.43,0,0,0-2.11-.19C102.25,124.35,101,124.77,101,126.36Z"/><path d="M43.58,127.82c2.17,0,3.6-1.75,3.6-4.54,0-3-1.59-4.28-3.57-4.28-2.14,0-3.47,1.59-3.47,4.34C40.15,125.87,41.31,127.82,43.58,127.82Z"/><path d="M0,137.57H116.9V104.15H0Zm98-20.45a14.06,14.06,0,0,1,6.26-1.33c3.15,0,5.8,1.62,5.8,5v6.36c0,.84.32,1.13,1,1.13a2.21,2.21,0,0,0,.62-.1l0,2.2a5.65,5.65,0,0,1-2.63.68,3,3,0,0,1-3.21-2.92,5.3,5.3,0,0,1-4.7,2.92c-2.11,0-4.51-1.14-4.51-4.18,0-3.6,3.47-4.44,6.81-4.44a19.13,19.13,0,0,1,2.4.13V122c0-1.49,0-3.27-2.4-3.27a4.54,4.54,0,0,0-2.24.42l-.47,1.65-3.34-.36Zm-.91-8.72L90.74,130.7H86.62l6.32-22.31Zm-12.61,0h4.12L82.24,130.7H78.12ZM71,116.08h4.38v5.25H71Zm0,9.37h4.38v5.25H71Zm-16.84-9.37H67l.32,2.2-8.11,9.24H64l.68-2.27,3.31.32L67,130.7H54.26l-.42-2.2,8-9.24H57.31l-.65,2.27-3-.32Zm-10.48-.29c5.25,0,7.81,3.53,7.81,7.62,0,4.67-3.37,7.62-8,7.62-4.51,0-7.62-2.76-7.62-7.43C35.83,119.32,38.43,115.79,43.68,115.79ZM6.94,127.53H8.88v-8.27H6.94v-3.18h6.13v2.2a4.84,4.84,0,0,1,4.44-2.5,4.74,4.74,0,0,1,4.77,3.15A4.9,4.9,0,0,1,27,115.79a4.73,4.73,0,0,1,5,5.06v6.68H34v3.18H27.89v-8.24c0-2.53-.84-3.5-2.5-3.5-2,0-2.82,1.43-2.82,3.47v5.09h1.95v3.18H18.38v-8.24c0-2.53-.84-3.5-2.5-3.5-2,0-2.82,1.43-2.82,3.47v5.09h2.79v3.18H6.94Z"/><polygon points="90.73 130.7 97.06 108.4 92.94 108.4 86.62 130.7 90.73 130.7"/><polygon class="cls-2" points="90.73 130.7 97.06 108.4 92.94 108.4 86.62 130.7 90.73 130.7"/><path d="M43.45,131c4.67,0,8-3,8-7.62,0-4.09-2.56-7.62-7.81-7.62s-7.85,3.53-7.85,7.81C35.83,128.27,38.95,131,43.45,131Zm.16-12c2,0,3.57,1.33,3.57,4.28,0,2.79-1.43,4.54-3.6,4.54s-3.44-1.95-3.44-4.47C40.15,120.59,41.48,119,43.62,119Z"/><path class="cls-2" d="M43.45,131c4.67,0,8-3,8-7.62,0-4.09-2.56-7.62-7.81-7.62s-7.85,3.53-7.85,7.81C35.83,128.27,38.95,131,43.45,131Zm.16-12c2,0,3.57,1.33,3.57,4.28,0,2.79-1.43,4.54-3.6,4.54s-3.44-1.95-3.44-4.47C40.15,120.59,41.48,119,43.62,119Z"/><path d="M15.86,127.53H13.07v-5.09c0-2,.81-3.47,2.82-3.47,1.65,0,2.5,1,2.5,3.5v8.24h6.13v-3.18H22.57v-5.09c0-2,.81-3.47,2.82-3.47,1.65,0,2.5,1,2.5,3.5v8.24H34v-3.18H32.07v-6.68a4.73,4.73,0,0,0-5-5.06,4.9,4.9,0,0,0-4.77,3.15,4.74,4.74,0,0,0-4.77-3.15,4.84,4.84,0,0,0-4.44,2.5v-2.2H6.94v3.18H8.88v8.27H6.94v3.18h8.92Z"/><path class="cls-2" d="M15.86,127.53H13.07v-5.09c0-2,.81-3.47,2.82-3.47,1.65,0,2.5,1,2.5,3.5v8.24h6.13v-3.18H22.57v-5.09c0-2,.81-3.47,2.82-3.47,1.65,0,2.5,1,2.5,3.5v8.24H34v-3.18H32.07v-6.68a4.73,4.73,0,0,0-5-5.06,4.9,4.9,0,0,0-4.77,3.15,4.74,4.74,0,0,0-4.77-3.15,4.84,4.84,0,0,0-4.44,2.5v-2.2H6.94v3.18H8.88v8.27H6.94v3.18h8.92Z"/><polygon points="57.31 119.26 61.88 119.26 53.84 128.5 54.26 130.7 67.04 130.7 67.94 125.58 64.64 125.26 63.96 127.53 59.22 127.53 67.33 118.28 67 116.08 54.16 116.08 53.65 121.2 56.66 121.53 57.31 119.26"/><polygon class="cls-2" points="57.31 119.26 61.88 119.26 53.84 128.5 54.26 130.7 67.04 130.7 67.94 125.58 64.64 125.26 63.96 127.53 59.22 127.53 67.33 118.28 67 116.08 54.16 116.08 53.65 121.2 56.66 121.53 57.31 119.26"/><rect x="71.01" y="125.45" width="4.38" height="5.25"/><rect class="cls-2" x="71.01" y="125.45" width="4.38" height="5.25"/><polygon points="88.56 108.4 84.44 108.4 78.12 130.7 82.24 130.7 88.56 108.4"/><polygon class="cls-2" points="88.56 108.4 84.44 108.4 78.12 130.7 82.24 130.7 88.56 108.4"/><rect x="71.01" y="116.08" width="4.38" height="5.25"/><rect class="cls-2" x="71.01" y="116.08" width="4.38" height="5.25"/><path d="M101.21,119.19a4.54,4.54,0,0,1,2.24-.42c2.37,0,2.4,1.78,2.4,3.27v.49a19.13,19.13,0,0,0-2.4-.13c-3.34,0-6.81.84-6.81,4.44,0,3,2.4,4.18,4.51,4.18a5.3,5.3,0,0,0,4.7-2.92,3,3,0,0,0,3.21,2.92,5.65,5.65,0,0,0,2.63-.68l0-2.2a2.21,2.21,0,0,1-.62.1c-.68,0-1-.29-1-1.13v-6.36c0-3.34-2.66-5-5.8-5A14.06,14.06,0,0,0,98,117.12l-.57,3.36,3.34.36Zm1.46,8.85a1.53,1.53,0,0,1-1.72-1.69c0-1.59,1.3-2,2.79-2a15.43,15.43,0,0,1,2.11.19C105.75,127,104.16,128,102.67,128Z"/><path class="cls-2" d="M101.21,119.19a4.54,4.54,0,0,1,2.24-.42c2.37,0,2.4,1.78,2.4,3.27v.49a19.13,19.13,0,0,0-2.4-.13c-3.34,0-6.81.84-6.81,4.44,0,3,2.4,4.18,4.51,4.18a5.3,5.3,0,0,0,4.7-2.92,3,3,0,0,0,3.21,2.92,5.65,5.65,0,0,0,2.63-.68l0-2.2a2.21,2.21,0,0,1-.62.1c-.68,0-1-.29-1-1.13v-6.36c0-3.34-2.66-5-5.8-5A14.06,14.06,0,0,0,98,117.12l-.57,3.36,3.34.36Zm1.46,8.85a1.53,1.53,0,0,1-1.72-1.69c0-1.59,1.3-2,2.79-2a15.43,15.43,0,0,1,2.11.19C105.75,127,104.16,128,102.67,128Z"/></g></g></svg>