<?xml version="1.0" encoding="UTF-8"?>
<svg width="699px" height="349px" viewBox="0 0 699 349" version="1.1" xmlns="http://www.w3.org/2000/svg" xmlns:xlink="http://www.w3.org/1999/xlink">
    <!-- Generator: Sketch 44.1 (41455) - http://www.bohemiancoding.com/sketch -->
    <title>icon-illustration</title>
    <desc>Created with Sketch.</desc>
    <defs></defs>
    <g id="Symbols" stroke="none" stroke-width="1" fill="none" fill-rule="evenodd">
        <g id="hero-primary-/-orange" transform="translate(-669.000000, -45.000000)">
            <g id="primary-hero-/-site-two">
                <g id="icon-illustration" transform="translate(669.000000, 45.000000)">
                    <g id="Group-4" transform="translate(199.000000, 120.000000)" fill="#FEFEFE">
                        <path d="M41.9661923,0 C34.760597,0 28.9191404,5.57799109 28.9180083,12.4599574 L28.8795181,150.834745 L252.233726,150.893401 L252.271084,12.5197418 C252.271084,5.63551941 246.43076,0.0541443018 239.224032,0.0518882892 L41.9695885,0 L41.9661923,0 Z M41.9684564,2.77715148 L239.224032,2.82903977 C244.882095,2.83016777 249.485072,7.177504 249.48394,12.5186138 L249.446582,148.115122 L31.6677948,148.057593 L31.7051529,12.4610855 C31.706285,7.12110369 36.3092623,2.77715148 41.9661923,2.77715148 L41.9684564,2.77715148 L41.9684564,2.77715148 Z" id="Fill-5"></path>
                        <path d="M47.6003015,14.4111675 L47.5662651,143.214216 L236.099628,143.263959 L236.13253,14.4609106 L47.6003015,14.4111675 Z M50.3924219,17.1956522 L233.339275,17.2431343 L233.306373,140.480605 L50.3606546,140.431993 L50.3924219,17.1956522 Z" id="Fill-7"></path>
                        <path d="M0.00453035701,148.350254 L0,166.92394 L281.996602,167 L282,148.426314 L0.00453035701,148.350254 Z M2.79183251,151.187532 L279.211565,151.26244 L279.208167,164.162722 L2.78843474,164.087814 L2.79183251,151.187532 Z" id="Fill-9"></path>
                    </g>
                    <path d="M185.012875,189 L181.674055,189 C180.987704,189 180.644103,189.341761 180.644103,190.024434 L180.644103,192.528699 C180.129126,192.71866 179.632055,192.96544 179.156299,193.269039 C178.926947,193.420838 178.698447,193.592142 178.469095,193.762599 L176.313698,192.528699 C176.099693,192.405733 175.900182,192.343826 175.717724,192.343826 C175.397142,192.343826 175.127718,192.533787 174.920534,192.908621 L173.185473,195.869133 C173.014098,196.191388 172.956121,196.456825 173.051613,196.703605 C173.108738,196.912223 173.280965,197.102184 173.566589,197.27264 L175.664862,198.469226 C175.58898,198.905119 175.54976,199.341013 175.54976,199.815068 L175.54976,200.043191 C175.570222,200.365446 175.58898,200.687702 175.646957,201.010805 L173.566589,202.205695 C173.014098,202.528799 172.860629,202.946035 173.128348,203.495566 C173.147105,203.515071 173.165863,203.553233 173.185473,203.610051 L174.902629,206.569715 C175.118339,206.938612 175.386059,207.121789 175.702377,207.121789 C175.889951,207.121789 176.093725,207.057338 176.313698,206.930132 L178.354846,205.773404 C179.060806,206.361096 179.823892,206.797838 180.644103,207.101436 L180.644103,209.56754 C180.644103,210.250213 180.987704,210.591973 181.674055,210.591973 L185.012875,210.591973 C185.700078,210.591973 186.042827,210.250213 186.042827,209.56754 L186.042827,207.063274 C186.557803,206.874161 187.054022,206.626533 187.530631,206.341591 C187.759983,206.171983 187.988482,206.000679 188.216982,205.829375 L190.372379,207.063274 C190.593205,207.190481 190.794421,207.254084 190.979437,207.254084 C191.291492,207.254084 191.557507,207.072603 191.785153,206.702857 L193.501457,203.743194 C193.557729,203.647365 193.596949,203.571889 193.615706,203.495566 C193.692441,203.268291 193.711199,203.059673 193.654074,202.889216 C193.577339,202.680598 193.405964,202.490637 193.119488,202.338838 L191.022068,201.124443 C191.09795,200.687702 191.136317,200.251809 191.136317,199.776906 L191.136317,199.549631 C191.115855,199.226527 191.09795,198.905119 191.059583,198.582016 L193.138245,197.405783 C193.730809,197.044517 193.844206,196.589967 193.501457,196.001427 L191.785153,193.041764 C191.567738,192.657601 191.297461,192.4634 190.977732,192.4634 C190.791863,192.4634 190.590647,192.529547 190.372379,192.661841 L188.332084,193.838922 C187.625271,193.250382 186.863038,192.794984 186.042827,192.510042 L186.042827,190.024434 C186.042827,189.341761 185.700078,189 185.012875,189 M191.130349,193.819417 L191.134612,193.819417 L191.130349,193.819417 M176.153407,193.543804 L176.15767,193.543804 L176.153407,193.543804 M184.657336,190.378067 L184.657336,192.510042 C184.657336,193.096886 185.029927,193.618432 185.585828,193.811785 C186.217612,194.031428 186.842575,194.396085 187.442812,194.895581 C187.697743,195.10844 188.014061,195.217837 188.332937,195.217837 C188.571667,195.217837 188.811251,195.15593 189.026961,195.031268 L190.759464,194.032276 L192.127903,196.391526 L190.374084,197.383734 C189.890655,197.656803 189.61782,198.191917 189.683471,198.741448 C189.715017,199.014517 189.731217,199.28589 189.749974,199.591185 L189.749974,199.776906 C189.749974,200.166157 189.720133,200.51979 189.655334,200.890384 C189.557284,201.457723 189.824151,202.026759 190.324633,202.316789 L192.124492,203.358183 L190.76799,205.698776 L188.908448,204.635333 C188.692738,204.512367 188.45486,204.451308 188.216982,204.451308 C187.922832,204.451308 187.629534,204.544592 187.383982,204.727769 L186.758167,205.19504 C186.348061,205.435036 185.946482,205.628389 185.561103,205.77086 C185.01799,205.971846 184.657336,206.487455 184.657336,207.063274 L184.657336,209.213058 L182.029593,209.213058 L182.029593,207.101436 C182.029593,206.525616 181.669792,206.010007 181.12668,205.809022 C180.437771,205.553761 179.821334,205.195888 179.244117,204.715897 C178.99004,204.503038 178.672869,204.394489 178.353993,204.394489 C178.119525,204.394489 177.8825,204.453852 177.668495,204.575122 L175.920645,205.566482 L174.562438,203.225889 L176.340129,202.203999 C176.844874,201.913969 177.112593,201.340693 177.011133,200.769114 C176.970207,200.540991 176.954008,200.284882 176.936103,200.001637 L176.936103,199.815068 C176.936103,199.424969 176.965944,199.073032 177.030743,198.704982 C177.131351,198.13425 176.860221,197.560974 176.354623,197.27264 L174.564995,196.252447 L175.940255,193.905917 L177.778481,194.957488 C177.993339,195.080454 178.231217,195.141513 178.469095,195.141513 C178.763246,195.141513 179.056543,195.048229 179.301242,194.8659 C179.509279,194.70986 179.717316,194.553821 179.903185,194.430007 C180.294533,194.181531 180.70549,193.976305 181.125827,193.821961 C181.668939,193.620976 182.029593,193.105367 182.029593,192.528699 L182.029593,190.378067 L184.657336,190.378067 M182.032151,189.979487 L182.036414,189.979487 L182.032151,189.979487" id="Fill-13" fill="#C89631"></path>
                    <path d="M183.589894,196 C182.596636,196 181.756121,196.342932 181.049577,197.047518 C180.343886,197.752103 180,198.609009 180,199.598662 C180,200.588316 180.343886,201.4265 181.049577,202.131086 C181.756121,202.83482 182.596636,203.197324 183.589894,203.197324 C184.582299,203.197324 185.421107,202.83482 186.128505,202.131086 C186.835049,201.4265 187.197708,200.588316 187.197708,199.598662 C187.197708,198.609009 186.835049,197.752103 186.128505,197.047518 C185.421107,196.342932 184.582299,196 183.589894,196 M183.589894,197.383643 C184.221347,197.383643 184.702616,197.581914 185.147193,198.026109 C185.59945,198.477112 185.810218,198.976619 185.810218,199.598662 C185.810218,200.208792 185.59945,200.701492 185.147193,201.152495 C184.694936,201.603497 184.200014,201.813682 183.589894,201.813682 C182.978068,201.813682 182.483145,201.603497 182.030888,201.152495 C181.585458,200.708299 181.387489,200.229215 181.387489,199.598662 C181.387489,198.963854 181.591432,198.464348 182.030888,198.026109 C182.475465,197.581914 182.956735,197.383643 183.589894,197.383643" id="Fill-15" fill="#C89631"></path>
                    <path d="M20.4741387,125 C20.314939,125 20.1531852,125.066506 20.0305928,125.219724 L0.124659951,150.207593 C-0.172456231,150.580533 0.0948631995,151.12858 0.575016571,151.130263 L5.39527967,151.1471 C5.77412409,151.147942 6.04910554,151.504046 5.94864792,151.866042 L1.41017696,168.361302 C1.29780064,168.770443 1.62897025,169.083612 1.97461257,169.083612 C2.13296102,169.083612 2.29301214,169.018789 2.4156045,168.867256 L22.3649555,144.267481 C22.6671797,143.895382 22.3998602,143.343968 21.9171529,143.341443 L16.9989862,143.324606 C16.6209931,143.322922 16.346863,142.96766 16.4447666,142.606506 L21.0394257,125.720626 C21.1509507,125.311485 20.8189297,125 20.4741387,125 M17.9678063,130.530972 L14.8008372,142.169584 C14.615246,142.850643 14.7574191,143.562008 15.1898977,144.122682 C15.6232276,144.682514 16.2804588,145.005785 16.9930268,145.008311 L19.5742768,145.01673 L4.47498571,163.636826 L7.59257728,152.308015 C7.77987115,151.626114 7.63940075,150.913065 7.20692218,150.35155 C6.77359228,149.789192 6.11550973,149.465921 5.40123902,149.463395 L2.89235252,149.454135 L17.9678063,130.530972 M21.3680413,126.261937 L21.372298,126.261937 L21.3680413,126.261937" id="Fill-17" fill="#C89631"></path>
                    <g id="rays" transform="translate(96.000000, 0.000000)" stroke-width="1.1376">
                        <path d="M243,71 L243,0" id="Stroke-23" stroke="#FEFEFE"></path>
                        <path d="M61,177 L0,155" id="Stroke-25" stroke="#FEFEFE"></path>
                        <path d="M425,177 L486,155" id="Stroke-27" stroke="#FEFEFE"></path>
                        <path d="M122,95 L83,34" id="Stroke-29" stroke="#FEFEFE"></path>
                        <path d="M353,95 L392,34" id="Stroke-31" stroke="#FFFFFF"></path>
                    </g>
                    <g id="Group-5" transform="translate(276.000000, 10.000000)" fill="#C89631">
                        <path d="M18.4329341,1.01028122 C17.2439461,1.01028122 16.120027,1.6934632 15.094134,3.04160897 C14.1265496,4.30942909 13.302624,5.9904708 12.6409483,8.03670433 L12.5125005,8.43253583 L12.9198155,8.54929784 C14.6623125,9.04532936 16.4698785,9.68627827 18.2918104,10.4522702 L18.4557505,10.5210024 L18.6188455,10.4514421 C20.5100717,9.65066999 22.3083421,9.02297068 23.9612636,8.58573421 L24.3770292,8.475597 L24.2477362,8.0731407 C23.5852155,6.00206419 22.7545295,4.30860099 21.7861,3.04160897 C20.7492214,1.6934632 19.6210771,1.01028122 18.4329341,1.01028122 L18.4329341,1.01028122 Z M12.0958899,10.0349081 C11.8144876,11.1644356 11.5812533,12.3436491 11.4046374,13.5377684 L11.2719643,14.4221785 L12.0375813,13.9352561 C12.6502439,13.5460494 13.3245953,13.1435931 14.0395092,12.7419649 C14.6597773,12.3751169 15.3324387,12.0132375 16.0439724,11.6612953 L16.8611376,11.2580109 L16.0127054,10.9226306 C14.86597,10.4729727 13.725995,10.0771412 12.6181319,9.74258902 L12.1989862,9.61754602 L12.0958899,10.0349081 Z M24.293369,9.73927663 C23.2260685,10.0489858 22.0751078,10.4448173 20.873444,10.9135215 L20.0419129,11.2389646 L20.8328815,11.6488738 C21.6111743,12.0521582 22.289751,12.4198343 22.8483303,12.7419649 C23.5649343,13.1452493 24.2401308,13.5468775 24.8544835,13.9393966 L25.6158753,14.4246628 L25.4899625,13.5435651 C25.318417,12.3660078 25.0919431,11.1859662 24.813076,10.0332519 L24.7125148,9.61754602 L24.293369,9.73927663 Z M6.4272817,8.72237061 C5.89996931,8.72237061 5.39040302,8.75052599 4.91548385,8.80766484 C3.20425374,9.01220538 2.03470191,9.62665511 1.43978537,10.6319677 C0.821207374,11.6662638 0.858389658,12.9324278 1.55302232,14.4983637 C2.19441672,15.9500219 3.27946336,17.4944272 4.77858544,19.0893466 L5.06759319,19.3973995 L5.37181187,19.1034242 C6.66474129,17.8546504 8.12921623,16.6365162 9.72213907,15.4821457 L9.8691781,15.376149 L9.88776925,15.1989357 C10.0846663,13.3348841 10.4252223,11.4832539 10.9018315,9.69621546 L11.0108432,9.28796247 L10.5883173,9.19769964 C9.07482931,8.88302188 7.67457831,8.72237061 6.4272817,8.72237061 L6.4272817,8.72237061 Z M30.5273169,8.73976069 C29.2690346,8.73976069 27.8476573,8.90869296 26.3003673,9.24076081 L25.8769963,9.33019554 L25.9902333,9.74176092 C26.4651524,11.459239 26.8107787,13.3108692 27.0203515,15.2419969 L27.0397877,15.4200383 L27.1876718,15.526035 C28.7400322,16.6398286 30.1960566,17.843057 31.5160277,19.1067366 L31.8210914,19.3973995 L32.1092541,19.0901747 C33.6075311,17.4944272 34.6883525,15.9500219 35.3238315,14.4983637 C36.0100137,12.9299435 36.0522663,11.6662638 35.4480542,10.6311396 C34.8539827,9.62665511 33.6844308,9.01717398 31.9732007,8.82008633 C31.5185628,8.76625987 31.0309679,8.73976069 30.5273169,8.73976069 L30.5273169,8.73976069 Z M8.98356371,17.6716404 C7.98386731,18.417758 7.06276073,19.1887185 6.24559554,19.9654757 L5.94137686,20.2553105 L6.24390544,20.5443171 C7.04247949,21.3111371 7.96950142,22.0961753 9.00215485,22.8754168 L9.72044897,23.4203062 L9.6672107,22.5317556 C9.623268,21.8129654 9.60129665,21.0395206 9.60129665,20.2321237 C9.60129665,19.7046244 9.60805707,19.1887185 9.62411305,18.6827498 C9.63087347,18.4575067 9.63847893,18.2339199 9.6477745,18.0086769 L9.68411174,17.1474535 L8.98356371,17.6716404 Z M27.2485155,17.9987397 C27.289078,18.8135895 27.3102043,19.5630194 27.3102043,20.2321237 C27.3102043,20.9674759 27.2907681,21.7574827 27.2502057,22.5822697 L27.2045728,23.5031162 L27.9270922,22.9110251 C28.3555335,22.5607391 28.7738342,22.2129374 29.1819943,21.8701042 C29.7008562,21.4336959 30.1926764,20.9881784 30.6464693,20.5468014 L30.9473077,20.2536543 L30.6397088,19.9671319 C29.861416,19.2384044 28.9462248,18.4633034 27.9186417,17.6625313 L27.2037278,17.1060486 L27.2485155,17.9987397 Z M18.2749094,12.0331119 C17.0487391,12.6111252 15.8496104,13.225575 14.7121706,13.8607272 C13.4183961,14.6118133 12.2674354,15.3289473 11.2829499,15.9947392 L11.1240802,16.101564 L11.1071791,16.2903707 C10.9998576,17.4132734 10.9457742,18.7390605 10.9457742,20.2321237 C10.9457742,21.718562 10.9998576,23.0526301 11.1071791,24.1978915 L11.1240802,24.3833858 L11.2804148,24.4918668 C12.1871555,25.118738 13.3271305,25.8375283 14.6665378,26.6242227 C15.8470753,27.3082327 17.063105,27.9317916 18.2825149,28.4808214 L18.4557505,28.5594909 L18.6281411,28.4808214 C19.8737476,27.9177139 21.0821718,27.2941551 22.2213018,26.6242227 C23.4812742,25.9029481 24.6288546,25.1907827 25.627706,24.5133974 L25.7857307,24.4057445 L25.8034768,24.2169378 C25.9107984,23.0625673 25.9640367,21.7210463 25.9640367,20.2321237 C25.9640367,18.7605911 25.9107984,17.4281792 25.8043218,16.2729806 L25.7857307,16.0792054 L25.6209456,15.9698962 C24.5443495,15.2751209 23.3950789,14.5637835 22.1984854,13.8607272 C21.0263984,13.217294 19.8298049,12.6036723 18.6349015,12.0347681 L18.4557505,11.9478176 L18.2749094,12.0331119 Z M11.4156231,26.9836178 C11.5761829,28.1313635 11.7984316,29.2989836 12.0772987,30.4566665 L12.1770149,30.8682319 L12.5910903,30.7531261 C13.677827,30.452526 14.8313229,30.0591788 16.0194659,29.5846779 L16.8619826,29.2492977 L16.0490427,28.8484976 C15.2961014,28.4783371 14.6124544,28.1065205 14.0166928,27.7446411 C13.352482,27.3877303 12.6975668,27.0034922 12.0502571,26.5902706 L11.2930906,26.1066606 L11.4156231,26.9836178 Z M24.8561736,26.5877863 C24.2291451,26.9720244 23.5691596,27.360403 22.8939631,27.7429849 C22.159613,28.1677999 21.4708957,28.5412727 20.841332,28.8542943 L20.0317723,29.2542663 L20.8709088,29.5896465 C22.0565167,30.0641474 23.2083224,30.4550103 24.2992844,30.7556104 L24.7125148,30.8682319 L24.813076,30.460807 C25.0674366,29.4306514 25.2930654,28.2622032 25.4848922,26.9894145 L25.6141852,26.1223945 L24.8561736,26.5877863 Z M4.75576904,21.4212744 C3.2752381,23.0120532 2.20117713,24.5564586 1.56316295,26.0089448 C0.887121422,27.5550064 0.851629242,28.8476695 1.46260177,29.8529821 C2.0558282,30.8723724 3.22284488,31.4909626 4.92646952,31.6888784 C5.3853327,31.7410486 5.86870239,31.7675478 6.36559291,31.7675478 C7.6238752,31.7675478 9.0452525,31.5994437 10.5900074,31.2665477 L11.0108432,31.1746287 L10.8992964,30.7672038 C10.4252223,29.0207422 10.0846663,27.1922988 9.88776925,25.3307315 L9.8691781,25.151862 L9.72213907,25.0466934 C8.12330087,23.8881824 6.65375561,22.6642515 5.35153063,21.4055405 L5.04646689,21.109909 L4.75576904,21.4212744 Z M31.5134925,21.4055405 C30.2138027,22.6609391 28.7510178,23.8782452 27.1648554,25.0251628 L27.0169713,25.1303314 L27.0000703,25.3058885 C26.7896524,27.1815335 26.4482514,29.0215703 25.9843179,30.7705162 L25.8769963,31.1746287 L26.2936069,31.2682039 C27.8358266,31.6093808 29.2546688,31.7832817 30.5070357,31.7832817 C31.0123767,31.7832817 31.4999717,31.7551263 31.9622151,31.6996437 C33.6649947,31.4951031 34.8303212,30.8806534 35.4252378,29.8753408 C36.0201543,28.8700281 35.9795918,27.5765369 35.3035503,26.0321316 C34.6655361,24.5804734 33.5914751,23.0310995 32.1109442,21.4245868 L31.8210914,21.109909 L31.5134925,21.4055405 Z M18.28505,30.0376482 C16.5315673,30.8077807 14.7332969,31.4404486 12.945167,31.9207462 L12.5336268,32.0308834 L12.6586944,32.4300273 C13.3102295,34.5044162 14.1282397,36.1962232 15.0924439,37.4549343 C16.120027,38.7956271 17.243101,39.4763248 18.4329341,39.4763248 C19.6219221,39.4763248 20.7500664,38.7956271 21.7844099,37.4532781 C22.7528394,36.1962232 23.5818353,34.5069005 24.2477362,32.4349959 L24.3770292,32.0317115 L23.9612636,31.9224024 C22.176514,31.4503858 20.3816238,30.8168898 18.6256059,30.0384763 L18.4557505,29.9631193 L18.28505,30.0376482 Z M18.4329341,40.4849498 C16.9895854,40.4849498 15.6366573,39.7355199 14.409642,38.2557063 C13.2392451,36.8454531 12.2479992,34.9598709 11.463791,32.6552703 L11.3480189,32.3165777 L10.990562,32.386138 C9.47284876,32.6834257 8.05485167,32.8341398 6.77713319,32.8341398 C5.99207997,32.8341398 5.24167388,32.7770009 4.54535111,32.6660356 C2.61863277,32.3596389 1.28091561,31.5837098 0.566846751,30.3597789 C-0.146377055,29.1341918 -0.162433042,27.6121452 0.523749104,25.8333878 C1.17359402,24.1415808 2.34145575,22.3545423 3.99691243,20.5219585 L4.24028738,20.2528262 L3.99691243,19.984522 C2.34145575,18.1519381 1.16852371,16.3624153 0.510228273,14.6623273 C-0.181024183,12.876117 -0.170038509,11.3499299 0.54403035,10.125999 C1.25725416,8.90206817 2.60004163,8.13027956 4.53436544,7.83050759 C5.22477284,7.72285467 5.96503831,7.66985631 6.7382608,7.66985631 C8.02865506,7.66985631 9.45932793,7.8222266 10.9897169,8.12117047 L11.3480189,8.19073081 L11.463791,7.85121008 C12.2336333,5.54578144 13.221499,3.65688679 14.3986563,2.24083688 C15.6332771,0.751914223 16.9912755,0 18.4337791,0 C19.8754377,0 21.232591,0.750258024 22.4680569,2.22924349 C23.6426791,3.63701241 24.6381502,5.52176656 25.4274287,7.83299189 L25.5406657,8.17002833 L25.8972776,8.10129608 C27.4124556,7.8131175 28.8296077,7.66654392 30.1064811,7.66654392 C30.8957596,7.66654392 31.651236,7.72202657 32.3560093,7.83050759 C34.288643,8.12945146 35.6314304,8.90206817 36.3454993,10.125999 C37.057878,11.3515861 37.0697088,12.8786013 36.3767662,14.6623273 C35.7201609,16.3624153 34.5514541,18.1544224 32.9095182,19.9870063 L32.6703686,20.2528262 L32.9078281,20.5194742 C34.5379333,22.3528861 35.6964994,24.1440651 36.3547949,25.843325 C37.0460473,27.6295353 37.0367517,29.1557224 36.3226829,30.3804814 C35.592558,31.6044122 34.2472354,32.3811695 32.3315027,32.68591 C31.6579964,32.7927348 30.935477,32.8465613 30.1833808,32.8465613 C28.8862261,32.8465613 27.4462577,32.68591 25.9023479,32.368748 L25.5406657,32.2933909 L25.4248935,32.6362241 C24.6381502,34.9573866 23.6426791,36.8479374 22.4680569,38.2557063 C21.232591,39.7355199 19.8737476,40.4849498 18.4329341,40.4849498 L18.4329341,40.4849498 Z" id="Fill-35"></path>
                        <path d="M18.6978354,18 C20.1889963,18 21.3982808,19.2076748 21.3982808,20.6989967 C21.3982808,22.1894484 20.1889963,23.3979933 18.6978354,23.3979933 C17.2084145,23.3979933 16,22.1894484 16,20.6989967 C16,19.2076748 17.2084145,18 18.6978354,18" id="Fill-37"></path>
                    </g>
                    <path d="M568.689117,264.641677 C567.830906,264.641677 567.056238,264.989873 566.498444,265.549147 L558.097768,261.037559 C558.149244,260.819833 558.181311,260.595459 558.181311,260.361943 C558.181311,260.129259 558.149244,259.905715 558.097768,259.687989 L566.470596,255.190528 C567.033454,255.759774 567.818248,256.115449 568.689117,256.115449 C570.403851,256.115449 571.793696,254.746766 571.793696,253.057309 C571.793696,251.368684 570.403851,250 568.689117,250 C566.975227,250 565.585382,251.368684 565.585382,253.057309 C565.585382,253.292487 565.617449,253.519354 565.669768,253.739574 L557.297784,258.236203 C556.736614,257.671112 555.956039,257.318761 555.090233,257.318761 C553.383095,257.318761 552,258.682459 552,260.361943 C552,262.04392 553.383095,263.406787 555.090233,263.406787 C555.956039,263.406787 556.736614,263.054436 557.297784,262.488514 L565.696772,267.000102 C565.647828,267.215335 565.616605,267.437217 565.616605,267.667408 C565.616605,269.338582 566.992949,270.692308 568.689117,270.692308 C570.386973,270.692308 571.762473,269.338582 571.762473,267.667408 C571.762473,265.996234 570.386973,264.641677 568.689117,264.641677" id="Fill-39" fill="#C89631"></path>
                    <circle id="Oval-Copy" stroke="#C89631" cx="576" cy="86" r="4"></circle>
                    <circle id="Oval-Copy-3" stroke="#C89631" cx="271.5" cy="325.5" r="2.5"></circle>
                    <circle id="Oval-Copy-2" stroke="#FFFFFF" cx="88" cy="60" r="2"></circle>
                    <circle id="Oval-Copy-4" fill="#FFFFFF" cx="434" cy="347" r="2"></circle>
                    <rect id="Rectangle-2-Copy" fill="#FFFFFF" x="101" y="265" width="6" height="6"></rect>
                    <rect id="Rectangle-2-Copy-8" stroke="#FFFFFF" x="101.5" y="265.5" width="5" height="5"></rect>
                    <rect id="Rectangle-2-Copy-2" fill="#C89631" x="496" y="211" width="4" height="4"></rect>
                    <rect id="Rectangle-2-Copy-4" fill="#C89631" x="407" y="184" width="6" height="6"></rect>
                    <rect id="Rectangle-2-Copy-9" fill="#C89631" x="381" y="299" width="2" height="2"></rect>
                    <rect id="Rectangle-2-Copy-7" fill="#C89631" x="543" y="321" width="4" height="4"></rect>
                    <rect id="Rectangle-2-Copy-6" fill="#C89631" x="270" y="155" width="3" height="3"></rect>
                    <rect id="Rectangle-2-Copy-5" stroke="#C89631" x="67.5" y="333.5" width="5" height="5"></rect>
                    <rect id="Rectangle-2-Copy-3" stroke="#FFFFFF" x="693.5" y="184.5" width="5" height="5"></rect>
                    <g id="lightbulb" transform="translate(310.000000, 164.000000)">
                        <path d="M29.7994449,18 C29.7022604,18 29.601082,18.0082321 29.4999036,18.0109761 C29.4013877,18.0082321 29.3002093,18 29.2043561,18 C29.2043561,18 29.2016935,18.0109761 29.2016935,18.0192082 C25.0187648,18.1756174 20.7080318,19.9509996 18.4621372,22.2669541 C16.109739,24.6940416 14.9435247,27.5848687 15.0021017,30.1546452 C15.1192556,35.004704 17.0509646,37.8104665 18.1785714,39.7367699 C20.1635321,43.124265 22.2044073,47.2718542 22.2044073,50.1366131 L22.2044073,53 L36.7980624,53 L36.7980624,50.1366131 C36.7980624,47.2718542 38.8389376,43.124265 40.8238983,39.7367699 C41.9515051,37.8104665 43.8832141,35.004704 43.9977054,30.1546452 C44.058945,27.5848687 42.8940619,24.6940416 40.5390012,22.2669541 C38.2944379,19.9509996 33.9837049,18.1756174 29.8021075,18.0192082 C29.8021075,18.0109761 29.7994449,18 29.7994449,18 M29.542505,19.743826 L29.7395366,19.752058 C33.3952725,19.8892591 37.3465559,21.4286554 39.3501548,23.4935319 C41.287189,25.4911799 42.3682004,27.9031752 42.3149486,30.1121129 C42.221758,34.0882007 40.7586649,36.5358683 39.6909663,38.3235986 L39.3834372,38.8394747 C36.511834,43.7430419 35.1153056,47.4378675 35.1153056,50.1366131 L35.1153056,51.2671501 L23.8871641,51.2671501 L23.8871641,50.1366131 C23.8871641,47.4378675 22.4906357,43.7430419 19.6190325,38.8394747 L19.3128347,38.3235986 C18.2438048,36.5358683 16.7807117,34.0882007 16.6835272,30.1148569 C16.632938,27.9031752 17.7152807,25.4898079 19.6536462,23.4935319 C21.6559138,21.4286554 25.6071972,19.8892591 29.2629331,19.752058 L29.4599647,19.743826 L29.461296,19.743826 L29.4999036,19.745198 L29.5411737,19.743826 L29.542505,19.743826" id="Fill-19" fill="#FEFEFE"></path>
                        <path d="M36.636166,56 L23.3652257,56 C22.6123337,56 22,56.6328659 22,57.4138799 C22,58.138799 22.5371836,58.7170083 23.2232756,58.7932398 C22.8363921,59.0550162 22.5622336,59.5354189 22.5622336,60.1078749 C22.5622336,60.9579288 23.1314256,61.639698 23.8314343,61.639698 L24.1264678,61.639698 C23.9065843,61.8597627 23.7618509,62.1704423 23.7618509,62.5285868 C23.7618509,63.188781 24.2378012,63.7238403 24.8264765,63.7238403 L25.1535183,63.7238403 L27.5402279,68 L32.4583804,68 L34.8478734,63.7238403 L35.1749152,63.7238403 C35.7635905,63.7238403 36.2395407,63.188781 36.2395407,62.5285868 C36.2395407,62.1704423 36.0948073,61.8597627 35.8749239,61.639698 L36.1699574,61.639698 C36.8699661,61.639698 37.4363747,60.9579288 37.4363747,60.1078749 C37.4363747,59.5354189 37.1649996,59.0550162 36.778116,58.7932398 C37.4614247,58.7198849 38,58.138799 38,57.4138799 C38,56.6328659 37.389058,56 36.636166,56" id="Fill-21" fill="#FEFEFE"></path>
                        <path d="M30,9 L30,0" id="Stroke-23" stroke="#FEFEFE" stroke-width="1.1376"></path>
                        <path d="M7,22 L0,19" id="Stroke-25" stroke="#FEFEFE" stroke-width="1.1376"></path>
                        <path d="M52,22 L59,19" id="Stroke-27" stroke="#FEFEFE" stroke-width="1.1376"></path>
                        <path d="M15,12 L11,5" id="Stroke-29" stroke="#FEFEFE" stroke-width="1.1376"></path>
                        <path d="M43,12 L47,5" id="Stroke-31" stroke="#FEFEFE" stroke-width="1.1376"></path>
                    </g>
                    <path d="M616.851554,35 C616.76245,35 616.671249,35.0153311 616.577428,35.0465221 L615.907574,35.2675018 C614.363451,35.7771299 613.742867,35.8765179 614.427921,37.9948576 L619.715991,54.3484188 L617.875204,52.5583769 C617.441214,52.1380923 616.875665,51.9139406 616.294915,51.9139406 C616.056954,51.9139406 615.816373,51.9514754 615.581033,52.0291884 C615.22881,52.1454936 614.907511,52.3469129 614.644391,52.6138861 C614.222981,53.0579603 613.991834,53.6394861 614.00022,54.2543174 C614.00651,54.8670341 614.255478,55.4416872 614.69104,55.8640864 L622.919548,63.8711672 C623.478808,64.6890039 624.407064,65.1600397 625.361527,65.1600397 C625.423376,65.1600397 625.485749,65.1579251 625.548122,65.1542245 L626.254665,67.3402326 C626.386225,67.7473006 626.787194,68 627.232715,68 C627.357985,68 627.486924,67.9799109 627.613766,67.9381468 L638.210349,64.4415911 C638.791099,64.2502163 639.124977,63.6702765 638.956203,63.1495466 L638.160555,60.6891641 C638.86343,59.9157348 639.140177,58.7939188 638.798437,57.7350133 L637.556744,53.8964147 L636.980711,52.1148313 L635.501058,47.5387524 L634.527726,44.528035 L634.255696,43.6869373 C634.090067,43.1757233 633.735223,42.764426 633.261922,42.5196565 C632.981506,42.3748038 632.679076,42.302906 632.374026,42.302906 C632.162272,42.302906 631.949994,42.3372689 631.74191,42.4059947 C631.232444,42.5741085 630.81942,42.9240813 630.578838,43.404633 C630.33354,43.8830701 630.291084,44.4291756 630.457237,44.9435616 L630.729267,45.7836019 L630.779061,45.9379706 L630.425265,46.0548044 L629.535795,43.2952004 C629.259048,42.4472301 628.477552,41.9090545 627.636304,41.9090545 C627.430316,41.9090545 627.221183,41.9407741 627.015196,42.0089712 C625.971628,42.3547147 625.394024,43.4929192 625.735764,44.5486527 L626.627855,47.307728 L626.275107,47.4240332 L624.929634,43.2613662 C624.656556,42.4170965 623.875584,41.8805069 623.036432,41.8799782 C622.830444,41.8799782 622.621311,41.9127551 622.414799,41.9809522 C621.365467,42.3266957 620.792055,43.4627856 621.132223,44.5148185 L622.477697,48.6769568 L622.133859,48.7906187 L622.120232,48.794848 L618.22271,36.7419339 C617.847948,35.5831117 617.396662,35 616.851554,35 M615,37 L615.005,37 L615,37 M616.738681,36 C616.827162,36.112621 616.995171,36.3846114 617.187934,36.9817154 L621.104285,49.0932568 C621.191186,49.3615286 621.387109,49.5814583 621.636226,49.709485 C621.783695,49.7849199 621.948017,49.8226373 622.112867,49.8226373 C622.226102,49.8226373 622.339337,49.8051067 622.447305,49.7695142 L622.792803,49.6552995 C623.345811,49.4730871 623.647069,48.873327 623.466946,48.3160655 L622.114447,44.1336818 C621.952758,43.6332619 622.228735,43.0919373 622.729602,42.9261931 C622.82651,42.8943193 622.926579,42.8778511 623.026647,42.8778511 C623.439033,42.8778511 623.800858,43.1413418 623.92726,43.5333905 L625.27976,47.7157741 C625.366661,47.9835147 625.55521,48.2061006 625.804854,48.3335961 C625.953903,48.4100934 626.117172,48.4488733 626.281494,48.4488733 C626.391569,48.4488733 626.502171,48.4313426 626.609086,48.3962814 L626.962484,48.2794105 C627.515493,48.096667 627.817277,47.4974381 627.636628,46.9401765 L626.740228,44.1676806 C626.577485,43.6646046 626.85241,43.1200925 627.350117,42.9554108 C627.448078,42.9230057 627.548146,42.9070688 627.648741,42.9070688 C628.062707,42.9070688 628.427166,43.1732157 628.555148,43.5663268 L629.449441,46.3388227 C629.535816,46.6070945 629.724892,46.8296804 629.974009,46.9577071 C630.123058,47.0342044 630.286853,47.0729843 630.451176,47.0729843 C630.561251,47.0729843 630.671852,47.0554537 630.778767,47.0203924 L631.134272,46.9029903 C631.686754,46.720778 631.988012,46.1210179 631.807889,45.5637563 L631.757855,45.4086368 L631.485038,44.5645103 C631.404983,44.3158941 631.423943,44.0640905 631.546132,43.8260989 C631.65884,43.5997944 631.851603,43.4361751 632.101773,43.3538343 C632.203948,43.3203667 632.307703,43.3028361 632.409351,43.3028361 C632.553133,43.3028361 632.691649,43.3368349 632.820684,43.4032388 C633.054527,43.5243595 633.219903,43.7166652 633.298378,43.9605004 L633.571722,44.8062205 L634.550283,47.8310513 L636.037084,52.4293891 L636.6159,54.2196384 L637.863065,58.0769086 C638.078474,58.7430726 637.919419,59.4793591 637.447519,59.9978408 C637.190501,60.2804558 637.104654,60.680473 637.222629,61.0454288 L638,63.4492503 C637.987886,63.4588124 637.96998,63.4689058 637.946279,63.4774055 L627.298503,66.9904378 C627.279542,66.9968126 627.261109,67 627.243202,67 C627.242149,67 627.240569,67 627.239515,67 L626.551678,64.87295 C626.409476,64.4336218 626.003937,64.1403821 625.550997,64.1403821 C625.52835,64.1403821 625.505703,64.1409134 625.483056,64.1419758 C625.443029,64.144632 625.403002,64.1462257 625.362974,64.1462257 C624.727278,64.1462257 624.134243,63.8333305 623.776104,63.3100677 C623.736077,63.2521635 623.690783,63.1979779 623.640222,63.1491046 L615.370907,55.1009511 C615.134957,54.8730529 615.003289,54.5665324 615.000129,54.2355754 C614.995389,53.9019621 615.121791,53.5821609 615.34194,53.3500129 C615.488883,53.2002056 615.669005,53.0875846 615.862821,53.0238369 C615.98975,52.9818696 616.120892,52.9606203 616.25256,52.9606203 C616.571725,52.9606203 616.87667,53.0854597 617.108933,53.3107017 L618.95914,55.1094508 C619.160857,55.3060063 619.424194,55.4069403 619.690164,55.4069403 C619.883454,55.4069403 620.076743,55.3538172 620.248966,55.2449147 C620.659245,54.9862051 620.841475,54.4788793 620.691372,54.0151144 L615.377754,37.5820067 C615.173405,36.948779 615.149178,36.6672265 615.151284,36.5609802 C615.30402,36.4706709 615.684279,36.3463628 615.996597,36.2443664 L616.190413,36.1806186 L616.738681,36 M617,36 L617.005,36 L617,36" id="Fill-1" fill="#C89631"></path>
                    <path d="M173.104238,316.347867 L170.953536,316.347867 L170.953536,318.497771 C170.953536,321.81317 167.819224,324.94828 164.503027,324.94828 L154.642986,324.94828 L151.601211,327.989257 L151.601211,329.248885 C151.601211,331.398789 153.751912,333.549491 155.901816,333.549491 L166.653729,333.549491 L173.104238,340 L173.104238,333.549491 C175.254142,333.549491 177.404843,331.398789 177.404843,329.248885 L177.404843,320.648472 C177.404843,318.497771 175.254142,316.347867 173.104238,316.347867 M164.503027,305.595157 L147.300605,305.595157 C145.149904,305.595157 143,307.746656 143,309.89656 L143,318.497771 C143,320.648472 145.149904,322.798376 147.300605,322.798376 L147.300605,329.248885 L153.751912,322.798376 L164.503027,322.798376 C166.653729,322.798376 168.803632,320.648472 168.803632,318.497771 L168.803632,309.89656 C168.803632,307.746656 166.653729,305.595157 164.503027,305.595157 M173.104238,317.943343 C174.367855,317.943343 175.809367,319.384058 175.809367,320.648472 L175.809367,329.248885 C175.809367,330.5133 174.367855,331.954015 173.104238,331.954015 C172.223535,331.954015 171.508762,332.668788 171.508762,333.549491 L171.508762,336.148521 L167.78173,332.420692 C167.482578,332.12154 167.07653,331.954015 166.653729,331.954015 L155.901816,331.954015 C154.638199,331.954015 153.196687,330.5133 153.196687,329.248885 L153.196687,328.649784 L155.303513,326.543756 L164.503027,326.543756 C168.714286,326.543756 172.549012,322.70903 172.549012,318.497771 L172.549012,317.943343 L173.104238,317.943343 M164.503027,307.190633 C165.766644,307.190633 167.208156,308.632145 167.208156,309.89656 L167.208156,318.497771 C167.208156,319.761388 165.766644,321.2029 164.503027,321.2029 L153.751912,321.2029 C153.328313,321.2029 152.922265,321.371223 152.623113,321.670375 L148.896081,325.397406 L148.896081,322.798376 C148.896081,321.916876 148.182106,321.2029 147.300605,321.2029 C146.036191,321.2029 144.595476,319.761388 144.595476,318.497771 L144.595476,309.89656 C144.595476,308.632145 146.036191,307.190633 147.300605,307.190633 L164.503027,307.190633" id="Page-1" fill="#C89631"></path>
                </g>
            </g>
        </g>
    </g>
</svg>