<svg xmlns="http://www.w3.org/2000/svg" viewBox="0 0 219.21 167.52"><defs><style>.cls-1{fill:#fff;}</style></defs><title>Asset 3</title><g id="Layer_2" data-name="Layer 2"><g id="Layer_1-2" data-name="Layer 1"><path class="cls-1" d="M139.31,41.44c-6.73,0-11,6.1-11.17,11.33v5.31A10.62,10.62,0,0,0,139,68.7c7.77,0,11-6.74,11-14C150,45.88,145.33,41.44,139.31,41.44Z"/><path class="cls-1" d="M159.51,0H0V89.54H193.82V0ZM30,68.22c4.6,0,8-.63,11.33-2.3l1.51-7.61,4.91.48-1.35,9.9c-4.12,3.17-9.91,4.75-17.19,4.75C14.18,73.45,4,62.2,4,47.23,4,33,13.47,20.36,28.45,20.36c8.56,0,14,2.46,18.22,6l1.43,9.9-5,.48-1.43-7.53a21.23,21.23,0,0,0-12.76-3.64c-11.25,0-18.86,8.87-18.86,21.39C10.06,59.75,17.67,68.22,30,68.22Zm41.2,4.44H53.25V68.15h6.18V22.66H53.17V18.15H65v50h6.18Zm44.53,0H103.81V66a13.4,13.4,0,0,1-12.28,7.45c-6.89,0-12.2-4-12.2-13.47V41.92H73.53V37.4H84.87v21c0,7.61,3.49,10.3,8.48,10.3,6,0,10.3-5.55,10.46-10.62V41.92H96.44V37.4h12.92V68.15h6.34Zm24.41.79c-5.47,0-10.06-2.38-12.36-6.66,0,.4-.63,5.47-.71,5.86h-5.55a69.73,69.73,0,0,0,1-10.3V22.66h-4.76V18.15h10.38V44.69c2.14-4.36,5.86-8,12.6-8,8.79,0,15.13,6.26,15.13,17.43C155.87,63.47,151.35,73.45,140.1,73.45Zm34.95,0c-5,0-10.38-1.51-13.39-3.49l1.11-8,4.44.48L167,67.11a17.85,17.85,0,0,0,7.84,1.74c4.91,0,9.51-1.9,9.51-5.94,0-9.67-22.11-2.3-22.11-16,0-7.45,6.66-10.22,13.07-10.22a25,25,0,0,1,12.28,3.25l.87,8.24-4.6.55L183,43a14.93,14.93,0,0,0-7.21-1.74c-4.44,0-7.61,1.58-7.61,5.23,0,9.19,21.87,1.9,21.87,15.93C190,69.33,183.52,73.45,175,73.45Z"/><rect class="cls-1" x="132.68" y="143.75" width="8.49" height="10.27"/><rect class="cls-1" x="132.68" y="125.43" width="8.49" height="10.27"/><polygon class="cls-1" points="118.86 147.87 109.6 147.87 125.45 129.68 124.82 125.43 99.65 125.43 98.64 135.44 104.66 136.08 105.93 131.58 114.8 131.58 99.08 149.71 99.9 154.02 124.94 154.02 126.66 144 120.19 143.43 118.86 147.87"/><path class="cls-1" d="M56.55,134.81c0-6.85-4.75-10-9.76-10a9.6,9.6,0,0,0-9.38,6.21c-1.33-4.25-5.14-6.21-9.32-6.21a9.59,9.59,0,0,0-8.68,4.88v-4.31h-12v6.21h3.8v16.23H7.42V154H24.79v-6.15H19.4v-10c0-4,1.65-6.78,5.51-6.78,3.17,0,4.88,2,4.88,6.91v16h12v-6.15H38v-10c0-4,1.58-6.78,5.45-6.78,3.36,0,5,2,5,6.91v16h12v-6.15H56.55Z"/><path class="cls-1" d="M79.24,124.86c-10.27,0-15.34,6.91-15.34,15.28,0,9.19,6,14.52,14.9,14.52,9.13,0,15.78-5.77,15.78-14.83C94.58,131.77,89.51,124.86,79.24,124.86ZM79,148.37c-4.37,0-6.72-3.87-6.72-8.75,0-5.33,2.66-8.49,6.85-8.49,3.87,0,7,2.66,7,8.37C86.09,145,83.3,148.37,79,148.37Z"/><path class="cls-1" d="M211,149.2c-1.33,0-2-.51-2-2.22V134.62c0-6.53-5.33-9.76-11.35-9.76-4.69,0-7.35.63-12.3,2.6L184.28,134l6.47.76,1-3.23a8.33,8.33,0,0,1,4.44-.82c4.56,0,4.56,3.42,4.56,6.4v1a26.79,26.79,0,0,0-4.56-.25c-6.66,0-13.31,1.65-13.31,8.62,0,6,4.63,8.18,8.75,8.18A10.24,10.24,0,0,0,200.7,149c.44,3.49,2.47,5.64,6.34,5.64a11,11,0,0,0,5.14-1.33L212,149A2.41,2.41,0,0,1,211,149.2Zm-16.42-.32a3.1,3.1,0,0,1-3.42-3.3c0-3.23,2.6-4,5.52-4a29.33,29.33,0,0,1,4.06.38C200.5,146.66,197.46,148.88,194.55,148.88Z"/><polygon class="cls-1" points="158.92 110.4 146.56 154.02 154.61 154.02 166.97 110.4 158.92 110.4"/><polygon class="cls-1" points="175.47 110.4 163.17 154.02 171.16 154.02 183.52 110.4 175.47 110.4"/><path d="M191.12,145.59a3.1,3.1,0,0,0,3.42,3.3c2.92,0,6-2.22,6.15-6.91a29.33,29.33,0,0,0-4.06-.38C193.72,141.59,191.12,142.35,191.12,145.59Z"/><path d="M79.11,131.13c-4.18,0-6.85,3.17-6.85,8.49,0,4.88,2.35,8.75,6.72,8.75s7.1-3.42,7.1-8.87C86.09,133.79,83,131.13,79.11,131.13Z"/><path d="M.19,95.89v71.63h219V95.89ZM60.41,154h-12V138c0-4.94-1.65-6.91-5-6.91-3.87,0-5.45,2.79-5.45,6.78v10h3.8V154h-12V138c0-4.94-1.71-6.91-4.88-6.91-3.87,0-5.51,2.79-5.51,6.78v10h5.39V154H7.42v-6.15h3.8V131.64H7.42v-6.21h12v4.31a9.59,9.59,0,0,1,8.68-4.88c4.18,0,8,2,9.32,6.21a9.6,9.6,0,0,1,9.38-6.21c5,0,9.76,3.11,9.76,10v13.06h3.87Zm18.38.63c-8.87,0-14.9-5.32-14.9-14.52,0-8.37,5.07-15.28,15.34-15.28s15.34,6.91,15.34,15C94.58,148.88,87.92,154.65,78.79,154.65Zm46.15-.63h-25l-.82-4.31,15.72-18.13h-8.88l-1.27,4.5-6-.63,1-10h25.17l.63,4.25L109.6,147.87h9.26l1.33-4.44,6.47.57Zm16.23,0h-8.49V143.75h8.49Zm0-18.32h-8.49V125.43h8.49ZM146.56,154l12.36-43.61H167L154.61,154Zm16.61,0,12.3-43.61h8.05L171.16,154Zm43.87.63c-3.87,0-5.89-2.16-6.34-5.64a10.24,10.24,0,0,1-9.13,5.64c-4.12,0-8.75-2.16-8.75-8.18,0-7,6.66-8.62,13.31-8.62a26.79,26.79,0,0,1,4.56.25v-1c0-3,0-6.4-4.56-6.4a8.33,8.33,0,0,0-4.44.82l-1,3.23-6.47-.76,1.08-6.59c4.94-2,7.61-2.6,12.3-2.6,6,0,11.35,3.23,11.35,9.76V147c0,1.71.63,2.22,2,2.22A2.41,2.41,0,0,0,212,149l.13,4.31A11,11,0,0,1,207,154.65Z"/></g></g></svg>