<?xml version="1.0" encoding="UTF-8"?>
<svg width="15px" height="15px" viewBox="0 0 15 15" version="1.1" xmlns="http://www.w3.org/2000/svg" xmlns:xlink="http://www.w3.org/1999/xlink">
    <!-- Generator: Sketch 46 (44423) - http://www.bohemiancoding.com/sketch -->
    <title>icon / avatar-blue</title>
    <desc>Created with Sketch.</desc>
    <defs></defs>
    <g id="Symbols" stroke="none" stroke-width="1" fill="none" fill-rule="evenodd">
        <g id="icon-/-avatar-blue" fill="#558194">
            <path d="M11.8861607,8.63839286 C12.1986623,8.79464364 12.2767865,9.02901629 12.1205357,9.34151786 C11.718748,10.1004502 11.1049148,10.6975425 10.2790179,11.1328125 C9.45312087,11.5680825 8.52679085,11.7857143 7.5,11.7857143 C6.45088761,11.7857143 5.50223638,11.5625022 4.65401786,11.1160714 C3.80579933,10.6696406 3.20312679,10.0669681 2.84598214,9.30803571 C2.68973136,8.99553415 2.77901618,8.7611615 3.11383929,8.60491071 C3.15848237,8.58258917 3.23660658,8.57142857 3.34821429,8.57142857 C3.57142969,8.57142857 3.72767813,8.671874 3.81696429,8.87276786 C4.08482277,9.43080636 4.55356808,9.87723047 5.22321429,10.2120536 C5.89286049,10.5468767 6.65178147,10.7142857 7.5,10.7142857 C8.32589699,10.7142857 9.07365737,10.5468767 9.74330357,10.2120536 C10.4129498,9.87723047 10.8928557,9.41964576 11.1830357,8.83928571 C11.2946434,8.66071339 11.4508919,8.57142857 11.6517857,8.57142857 C11.7187503,8.57142857 11.7968746,8.59374978 11.8861607,8.63839286 Z M12.7566964,6.66294643 C12.9799118,6.95312645 12.9352694,7.19865971 12.6227679,7.39955357 C12.5111602,7.46651819 12.3995541,7.5 12.2879464,7.5 C12.0870526,7.5 11.9308041,7.43303638 11.8191964,7.29910714 C11.6629456,7.07589174 11.4732154,6.96428571 11.25,6.96428571 C11.0267846,6.96428571 10.8370544,7.07589174 10.6808036,7.29910714 C10.5691959,7.43303638 10.4129474,7.5 10.2120536,7.5 C10.1004459,7.5 9.98883984,7.46651819 9.87723214,7.39955357 C9.58705212,7.17633817 9.55357031,6.93080491 9.77678571,6.66294643 C10.1785734,6.149551 10.66964,5.89285714 11.25,5.89285714 C11.8973247,5.89285714 12.3995518,6.149551 12.7566964,6.66294643 Z M5.25669643,6.66294643 C5.47991183,6.95312645 5.43526942,7.19865971 5.12276786,7.39955357 C5.01116016,7.46651819 4.89955413,7.5 4.78794643,7.5 C4.58705257,7.5 4.43080413,7.43303638 4.31919643,7.29910714 C4.16294565,7.07589174 3.9732154,6.96428571 3.75,6.96428571 C3.5267846,6.96428571 3.33705435,7.07589174 3.18080357,7.29910714 C3.06919587,7.43303638 2.91294743,7.5 2.71205357,7.5 C2.60044587,7.5 2.48883984,7.46651819 2.37723214,7.39955357 C2.08705212,7.17633817 2.05357031,6.93080491 2.27678571,6.66294643 C2.67857344,6.149551 3.16963996,5.89285714 3.75,5.89285714 C4.39732467,5.89285714 4.89955179,6.149551 5.25669643,6.66294643 Z M7.5,0 C9.57590324,0 11.3448588,0.731019475 12.8069196,2.19308036 C14.2689805,3.65514124 15,5.42409676 15,7.5 C15,9.57590324 14.2689805,11.3448588 12.8069196,12.8069196 C11.3448588,14.2689805 9.57590324,15 7.5,15 C5.42409676,15 3.65514124,14.2689805 2.19308036,12.8069196 C0.731019475,11.3448588 0,9.57590324 0,7.5 C0,5.42409676 0.731019475,3.65514124 2.19308036,2.19308036 C3.65514124,0.731019475 5.42409676,0 7.5,0 Z M12.0535714,12.0535714 C13.3035777,10.8035652 13.9285714,9.28572321 13.9285714,7.5 C13.9285714,5.71427679 13.3035777,4.19643482 12.0535714,2.94642857 C10.8035652,1.69642232 9.28572321,1.07142857 7.5,1.07142857 C5.71427679,1.07142857 4.19643482,1.69642232 2.94642857,2.94642857 C1.69642232,4.19643482 1.07142857,5.71427679 1.07142857,7.5 C1.07142857,9.28572321 1.69642232,10.8035652 2.94642857,12.0535714 C4.19643482,13.3035777 5.71427679,13.9285714 7.5,13.9285714 C9.28572321,13.9285714 10.8035652,13.3035777 12.0535714,12.0535714 Z" id="avatar-blue"></path>
        </g>
    </g>
</svg>