<?xml version="1.0" encoding="UTF-8"?>
<svg width="20px" height="20px" viewBox="0 0 20 20" version="1.1" xmlns="http://www.w3.org/2000/svg" xmlns:xlink="http://www.w3.org/1999/xlink">
    <!-- Generator: Sketch 46 (44423) - http://www.bohemiancoding.com/sketch -->
    <title>icon / calendar-white</title>
    <desc>Created with Sketch.</desc>
    <defs></defs>
    <g id="Symbols" stroke="none" stroke-width="1" fill="none" fill-rule="evenodd">
        <g id="icon-/-calendar-white" fill="#FFFFFF">
            <path d="M18.75,2.02380952 C19.1015643,2.02380952 19.3977853,2.13851572 19.6386719,2.36793155 C19.8795585,2.59734738 20,2.87946261 20,3.21428571 L20,18.0952381 C20,18.4176603 19.8795585,18.6966754 19.6386719,18.9322917 C19.3977853,19.1679079 19.1015643,19.2857143 18.75,19.2857143 L1.25,19.2857143 C0.898435742,19.2857143 0.602214746,19.1679079 0.361328125,18.9322917 C0.120441504,18.6966754 0,18.4176603 0,18.0952381 L0,3.21428571 C0,2.87946261 0.120441504,2.59734738 0.361328125,2.36793155 C0.602214746,2.13851572 0.898435742,2.02380952 1.25,2.02380952 L6.25,2.02380952 L6.25,0.833333333 C6.25,0.67212221 6.31184834,0.532614676 6.43554688,0.414806548 C6.55924541,0.296998419 6.70572832,0.238095238 6.875,0.238095238 C7.04427168,0.238095238 7.19075459,0.296998419 7.31445312,0.414806548 C7.43815166,0.532614676 7.5,0.67212221 7.5,0.833333333 L7.5,2.02380952 L12.5,2.02380952 L12.5,0.833333333 C12.5,0.67212221 12.5618483,0.532614676 12.6855469,0.414806548 C12.8092454,0.296998419 12.9557283,0.238095238 13.125,0.238095238 C13.2942717,0.238095238 13.4407546,0.296998419 13.5644531,0.414806548 C13.6881517,0.532614676 13.75,0.67212221 13.75,0.833333333 L13.75,2.02380952 L18.75,2.02380952 Z M18.75,18.0952381 L18.75,3.21428571 L13.75,3.21428571 L13.75,3.80952381 C13.75,3.97073493 13.6881517,4.11024247 13.5644531,4.2280506 C13.4407546,4.34585872 13.2942717,4.4047619 13.125,4.4047619 C12.9557283,4.4047619 12.8092454,4.34585872 12.6855469,4.2280506 C12.5618483,4.11024247 12.5,3.97073493 12.5,3.80952381 L12.5,3.21428571 L7.5,3.21428571 L7.5,3.80952381 C7.5,3.97073493 7.43815166,4.11024247 7.31445312,4.2280506 C7.19075459,4.34585872 7.04427168,4.4047619 6.875,4.4047619 C6.70572832,4.4047619 6.55924541,4.34585872 6.43554688,4.2280506 C6.31184834,4.11024247 6.25,3.97073493 6.25,3.80952381 L6.25,3.21428571 L1.25,3.21428571 L1.25,18.0952381 L18.75,18.0952381 Z M14.375,9.76190476 C14.2057283,9.76190476 14.0592454,9.70300158 13.9355469,9.58519345 C13.8118483,9.46738532 13.75,9.32787779 13.75,9.16666667 L13.75,7.97619048 C13.75,7.81497935 13.8118483,7.67547182 13.9355469,7.55766369 C14.0592454,7.43985556 14.2057283,7.38095238 14.375,7.38095238 L15.625,7.38095238 C15.7942717,7.38095238 15.9407546,7.43985556 16.0644531,7.55766369 C16.1881517,7.67547182 16.25,7.81497935 16.25,7.97619048 L16.25,9.16666667 C16.25,9.32787779 16.1881517,9.46738532 16.0644531,9.58519345 C15.9407546,9.70300158 15.7942717,9.76190476 15.625,9.76190476 L14.375,9.76190476 Z M14.375,14.5238095 C14.2057283,14.5238095 14.0592454,14.4649063 13.9355469,14.3470982 C13.8118483,14.2292901 13.75,14.0897826 13.75,13.9285714 L13.75,12.7380952 C13.75,12.5768841 13.8118483,12.4373766 13.9355469,12.3195685 C14.0592454,12.2017603 14.2057283,12.1428571 14.375,12.1428571 L15.625,12.1428571 C15.7942717,12.1428571 15.9407546,12.2017603 16.0644531,12.3195685 C16.1881517,12.4373766 16.25,12.5768841 16.25,12.7380952 L16.25,13.9285714 C16.25,14.0897826 16.1881517,14.2292901 16.0644531,14.3470982 C15.9407546,14.4649063 15.7942717,14.5238095 15.625,14.5238095 L14.375,14.5238095 Z M10.625,12.1428571 C10.7942717,12.1428571 10.9407546,12.2017603 11.0644531,12.3195685 C11.1881517,12.4373766 11.25,12.5768841 11.25,12.7380952 L11.25,13.9285714 C11.25,14.0897826 11.1881517,14.2292901 11.0644531,14.3470982 C10.9407546,14.4649063 10.7942717,14.5238095 10.625,14.5238095 L9.375,14.5238095 C9.20572832,14.5238095 9.05924541,14.4649063 8.93554688,14.3470982 C8.81184834,14.2292901 8.75,14.0897826 8.75,13.9285714 L8.75,12.7380952 C8.75,12.5768841 8.81184834,12.4373766 8.93554688,12.3195685 C9.05924541,12.2017603 9.20572832,12.1428571 9.375,12.1428571 L10.625,12.1428571 Z M10.625,7.38095238 C10.7942717,7.38095238 10.9407546,7.43985556 11.0644531,7.55766369 C11.1881517,7.67547182 11.25,7.81497935 11.25,7.97619048 L11.25,9.16666667 C11.25,9.32787779 11.1881517,9.46738532 11.0644531,9.58519345 C10.9407546,9.70300158 10.7942717,9.76190476 10.625,9.76190476 L9.375,9.76190476 C9.20572832,9.76190476 9.05924541,9.70300158 8.93554688,9.58519345 C8.81184834,9.46738532 8.75,9.32787779 8.75,9.16666667 L8.75,7.97619048 C8.75,7.81497935 8.81184834,7.67547182 8.93554688,7.55766369 C9.05924541,7.43985556 9.20572832,7.38095238 9.375,7.38095238 L10.625,7.38095238 Z M5.625,7.38095238 C5.79427168,7.38095238 5.94075459,7.43985556 6.06445312,7.55766369 C6.18815166,7.67547182 6.25,7.81497935 6.25,7.97619048 L6.25,9.16666667 C6.25,9.32787779 6.18815166,9.46738532 6.06445312,9.58519345 C5.94075459,9.70300158 5.79427168,9.76190476 5.625,9.76190476 L4.375,9.76190476 C4.20572832,9.76190476 4.05924541,9.70300158 3.93554688,9.58519345 C3.81184834,9.46738532 3.75,9.32787779 3.75,9.16666667 L3.75,7.97619048 C3.75,7.81497935 3.81184834,7.67547182 3.93554688,7.55766369 C4.05924541,7.43985556 4.20572832,7.38095238 4.375,7.38095238 L5.625,7.38095238 Z M5.625,12.1428571 C5.79427168,12.1428571 5.94075459,12.2017603 6.06445312,12.3195685 C6.18815166,12.4373766 6.25,12.5768841 6.25,12.7380952 L6.25,13.9285714 C6.25,14.0897826 6.18815166,14.2292901 6.06445312,14.3470982 C5.94075459,14.4649063 5.79427168,14.5238095 5.625,14.5238095 L4.375,14.5238095 C4.20572832,14.5238095 4.05924541,14.4649063 3.93554688,14.3470982 C3.81184834,14.2292901 3.75,14.0897826 3.75,13.9285714 L3.75,12.7380952 C3.75,12.5768841 3.81184834,12.4373766 3.93554688,12.3195685 C4.05924541,12.2017603 4.20572832,12.1428571 4.375,12.1428571 L5.625,12.1428571 Z" id="calendar-white"></path>
        </g>
    </g>
</svg>