<?xml version="1.0" encoding="UTF-8"?>
<svg width="18px" height="19px" viewBox="0 0 18 19" version="1.1" xmlns="http://www.w3.org/2000/svg" xmlns:xlink="http://www.w3.org/1999/xlink">
    <!-- Generator: Sketch 46 (44423) - http://www.bohemiancoding.com/sketch -->
    <title>icon / checkmark-whitefill</title>
    <desc>Created with Sketch.</desc>
    <defs></defs>
    <g id="Symbols" stroke="none" stroke-width="1" fill="none" fill-rule="evenodd">
        <g id="icon-/-checkmark-whitefill">
            <path d="M8.75,0.75 C11.1718871,0.75 13.2356686,1.60285605 14.9414062,3.30859375 C16.6471439,5.01433145 17.5,7.07811289 17.5,9.5 C17.5,11.9218871 16.6471439,13.9856686 14.9414062,15.6914062 C13.2356686,17.3971439 11.1718871,18.25 8.75,18.25 C6.32811289,18.25 4.26433145,17.3971439 2.55859375,15.6914062 C0.852856055,13.9856686 0,11.9218871 0,9.5 C0,7.07811289 0.852856055,5.01433145 2.55859375,3.30859375 C4.26433145,1.60285605 6.32811289,0.75 8.75,0.75 Z" id="Path" fill="#FFFFFF"></path>
            <g id="icon-/-checkmark" fill="#6A9C1F">
                <path d="M8.75,0.75 C11.1718871,0.75 13.2356686,1.60285605 14.9414062,3.30859375 C16.6471439,5.01433145 17.5,7.07811289 17.5,9.5 C17.5,11.9218871 16.6471439,13.9856686 14.9414062,15.6914062 C13.2356686,17.3971439 11.1718871,18.25 8.75,18.25 C6.32811289,18.25 4.26433145,17.3971439 2.55859375,15.6914062 C0.852856055,13.9856686 0,11.9218871 0,9.5 C0,7.07811289 0.852856055,5.01433145 2.55859375,3.30859375 C4.26433145,1.60285605 6.32811289,0.75 8.75,0.75 Z M13.2421875,6.5703125 C13.2682293,6.5442707 13.28125,6.50520859 13.28125,6.453125 C13.28125,6.37499961 13.2682293,6.3229168 13.2421875,6.296875 L12.03125,5.359375 C12.0052082,5.3333332 11.9531254,5.3203125 11.875,5.3203125 C11.8229164,5.3203125 11.7838543,5.3333332 11.7578125,5.359375 L7.421875,10.9453125 C6.27603594,9.85155703 5.6901043,9.2916668 5.6640625,9.265625 C5.58593711,9.18749961 5.50781289,9.1484375 5.4296875,9.1484375 C5.4036457,9.1484375 5.35156289,9.18749961 5.2734375,9.265625 L4.2578125,10.28125 C4.2317707,10.3072918 4.21875,10.3593746 4.21875,10.4375 C4.21875,10.4895836 4.2317707,10.5286457 4.2578125,10.5546875 L4.3359375,10.59375 C6.36719766,12.5468848 7.3958332,13.5364582 7.421875,13.5625 C7.50000039,13.6406254 7.56510391,13.6796875 7.6171875,13.6796875 C7.66927109,13.6796875 7.73437461,13.6406254 7.8125,13.5625 L13.2421875,6.5703125 Z" id="checkmark"></path>
            </g>
        </g>
    </g>
</svg>