<?xml version="1.0" encoding="UTF-8"?>
<svg width="20px" height="21px" viewBox="0 0 20 21" version="1.1" xmlns="http://www.w3.org/2000/svg" xmlns:xlink="http://www.w3.org/1999/xlink">
    <!-- Generator: Sketch 46 (44423) - http://www.bohemiancoding.com/sketch -->
    <title>icon / club-nav-white</title>
    <desc>Created with Sketch.</desc>
    <defs></defs>
    <g id="Symbols" stroke="none" stroke-width="1" fill="none" fill-rule="evenodd">
        <g id="icon-/-club-nav-white" fill="#FFFFFF">
            <path d="M17.9882812,2.26171875 L2.36328125,8.84375 L9.1015625,10.8945312 L11.4257812,17.6132812 L17.9882812,2.26171875 Z M19.609375,0.26953125 C19.7916676,0.26953125 19.9088539,0.341145117 19.9609375,0.484375 C20.0130211,0.627604883 19.9869797,0.82291543 19.8828125,1.0703125 L11.9140625,19.703125 C11.8359371,19.8854176 11.7447922,20.0188798 11.640625,20.1035156 C11.5364578,20.1881515 11.4257818,20.2304688 11.3085937,20.2304688 C11.2044266,20.2304688 11.0970058,20.1946618 10.9863281,20.1230469 C10.8756505,20.0514319 10.7812504,19.9440111 10.703125,19.8007812 L8.1640625,11.9101562 L0.44921875,9.5078125 C0.136717187,9.31249902 -0.00976572266,9.09440225 0.009765625,8.85351562 C0.0292969727,8.612629 0.208331641,8.42057363 0.546875,8.27734375 L19.1796875,0.3671875 C19.2708338,0.328124805 19.3522132,0.302083398 19.4238281,0.2890625 C19.4954431,0.276041602 19.5572914,0.26953125 19.609375,0.26953125 Z" id="Cursor---simple-line-icons"></path>
        </g>
    </g>
</svg>