<?xml version="1.0" encoding="UTF-8"?>
<svg width="25px" height="17px" viewBox="0 0 25 17" version="1.1" xmlns="http://www.w3.org/2000/svg" xmlns:xlink="http://www.w3.org/1999/xlink">
    <!-- Generator: Sketch 46 (44423) - http://www.bohemiancoding.com/sketch -->
    <title>icon / envelope-black</title>
    <desc>Created with Sketch.</desc>
    <defs></defs>
    <g id="Symbols" stroke="none" stroke-width="1" fill="none" fill-rule="evenodd">
        <g id="icon-/-envelope-black" fill="#000000">
            <path d="M24.9755859,1.73863636 C24.9918621,1.77083349 25,1.80303014 25,1.83522727 L25,14.2954545 C25,14.9393972 24.8372412,15.5511335 24.5117188,16.1306818 C24.1861963,16.7102302 23.6979199,17 23.046875,17 L2.73437511,17 C2.08333019,17 1.46484679,16.7102302 0.878906368,16.1306818 C0.292965941,15.5511335 1.22070318e-07,14.9393972 1.22070318e-07,14.2954545 L1.22070318e-07,1.83522727 C1.22070318e-07,1.80303014 0.00813806148,1.77083349 0.0244141845,1.73863636 C-0.00813806148,1.62594641 -0.00813806148,1.51728272 0.0244141845,1.41264205 C0.0569664304,1.30800137 0.113932006,1.20738685 0.195312621,1.11079545 C0.211588744,1.09469689 0.227864623,1.07457398 0.244140746,1.05042614 C0.260416869,1.02627829 0.284830687,1.00615538 0.317382933,0.990056818 C0.561524778,0.668085511 0.907387203,0.422586072 1.35498058,0.253551136 C1.80257397,0.0845162003 2.26236754,0 2.73437511,0 L23.046875,0 C23.5677109,0 23.9868148,0.108663686 24.3041992,0.325994318 C24.6215836,0.54332495 24.8291011,0.869316009 24.9267578,1.30397727 C24.9593101,1.36837153 24.9796549,1.43678941 24.987793,1.50923295 C24.995931,1.5816765 24.9918621,1.65814354 24.9755859,1.73863636 Z M2.36816417,1.54545455 C2.23795519,1.54545455 2.10774816,1.55350371 1.97753917,1.56960227 L12.5000001,9.87642045 L23.046875,1.54545455 L2.36816417,1.54545455 Z M23.046875,15.4545455 C23.2584646,15.4545455 23.3764647,15.3136851 23.4008789,15.0319602 C23.4252931,14.7502353 23.4375,14.5047359 23.4375,14.2954545 L23.4375,3.23579545 L13.0126954,11.4701705 C12.9313148,11.5345647 12.8499354,11.5828597 12.7685547,11.6150568 C12.6871741,11.6472539 12.5976568,11.6633523 12.5000001,11.6633523 C12.4023433,11.6633523 12.312826,11.6472539 12.2314454,11.6150568 C12.1500648,11.5828597 12.0686854,11.5345647 11.9873048,11.4701705 L1.56250011,3.23579545 L1.56250011,14.2954545 C1.56250011,14.5047359 1.70491405,14.7502353 1.98974621,15.0319602 C2.27457836,15.3136851 2.52278551,15.4545455 2.73437511,15.4545455 L23.046875,15.4545455 Z" id="envelope-black"></path>
        </g>
    </g>
</svg>