<?xml version="1.0" encoding="UTF-8"?>
<svg width="21px" height="21px" viewBox="0 0 21 21" version="1.1" xmlns="http://www.w3.org/2000/svg" xmlns:xlink="http://www.w3.org/1999/xlink">
    <!-- Generator: Sketch 46 (44423) - http://www.bohemiancoding.com/sketch -->
    <title>icon / pencil-white</title>
    <desc>Created with Sketch.</desc>
    <defs></defs>
    <g id="Symbols" stroke="none" stroke-width="1" fill="none" fill-rule="evenodd">
        <g id="icon-/-pencil-white" fill="#FFFFFF">
            <path d="M18.8476563,0.99609375 C19.2382833,1.36067891 19.5312491,1.74153447 19.7265626,2.13867188 C19.9218761,2.53580928 20.0260417,2.9361959 20.0390626,3.33984375 C20.0520835,3.7695334 19.9609386,4.18945107 19.7656251,4.59960938 C19.5703116,5.00976768 19.2838562,5.4101543 18.9062501,5.80078125 C18.7239575,5.99609473 17.9947981,6.7252541 16.7187501,7.98828125 C15.4427021,9.2513084 14.0657627,10.6152271 12.5878907,12.0800781 C11.1100188,13.5449292 9.75261045,14.8893168 8.5156251,16.1132812 C7.27863975,17.3372457 6.60156318,18.0078119 6.4843751,18.125 C6.4453124,18.1640627 6.40299512,18.1966145 6.35742197,18.2226562 C6.31184883,18.248698 6.26302119,18.2682291 6.2109376,18.28125 C6.02864502,18.3333336 5.64453428,18.4537751 5.05859385,18.6425781 C4.47265342,18.8313812 3.8704459,19.0234365 3.25195322,19.21875 C2.63346055,19.4140635 2.07682549,19.5930981 1.58203135,19.7558594 C1.08723721,19.9186206 0.833333496,20 0.820312598,20 C0.794270801,20.0130209 0.764974219,20.0227864 0.732421973,20.0292969 C0.699869727,20.0358073 0.664062793,20.0390625 0.625000098,20.0390625 C0.546874707,20.0390625 0.468750488,20.0227866 0.390625098,19.9902344 C0.312499707,19.9576821 0.247396191,19.9088545 0.195312598,19.84375 C0.104166309,19.7656246 0.0455731445,19.6679693 0.0195313477,19.5507812 C-0.00651044922,19.4335932 -0.00651044922,19.3164068 0.0195313477,19.1992188 C0.0325522461,19.1861979 0.110676465,18.9420597 0.253906348,18.4667969 C0.39713623,17.9915341 0.563150195,17.4414094 0.751953223,16.8164062 C0.94075625,16.1914031 1.12304609,15.5826853 1.29882822,14.9902344 C1.47461035,14.3977835 1.59505186,13.9713555 1.66015635,13.7109375 C1.68619814,13.6588539 1.71223955,13.6100263 1.73828135,13.5644531 C1.76432314,13.51888 1.7968749,13.4765627 1.8359376,13.4375 L7.8906251,7.3828125 C9.41407021,5.85936738 10.8235613,4.44662109 12.1191407,3.14453125 C13.4147201,1.84244141 14.1080726,1.15234414 14.1992188,1.07421875 C14.3294278,0.944009766 14.6093729,0.73242334 15.0390626,0.439453125 C15.4687522,0.14648291 15.9960907,0 16.6210938,0 C17.0247417,0 17.4121076,0.0846345703 17.7832032,0.25390625 C18.1542988,0.42317793 18.509113,0.670571289 18.8476563,0.99609375 Z M14.0039063,3.06640625 C13.3919241,3.66536758 12.6106819,4.44009941 11.6601563,5.390625 C10.7096308,6.34115059 9.72982285,7.32421367 8.72070322,8.33984375 C7.71158359,9.35547383 6.74479639,10.3255162 5.8203126,11.25 L3.61328135,13.4570312 C3.87369932,13.5611984 4.16340996,13.7109365 4.48242197,13.90625 C4.80143398,14.1015635 5.12369639,14.3619775 5.44921885,14.6875 C5.70963682,14.9609389 5.92773359,15.2376288 6.10351572,15.5175781 C6.27929785,15.7975274 6.41927041,16.0546863 6.5234376,16.2890625 C7.07031533,15.7421848 7.80272988,15.0162806 8.72070322,14.1113281 C9.63867656,13.2063757 10.5989534,12.2558644 11.6015626,11.2597656 C12.6041718,10.2636669 13.5774693,9.29687969 14.5214845,8.359375 C15.4654996,7.42187031 16.2434866,6.65364883 16.8554688,6.0546875 C16.8424479,5.95052031 16.7675789,5.70638213 16.6308595,5.32226562 C16.49414,4.93814912 16.2304708,4.5507832 15.8398438,4.16015625 C15.4492169,3.7825502 15.0846372,3.51562578 14.7460938,3.359375 C14.4075505,3.20312422 14.1601571,3.10546895 14.0039063,3.06640625 Z M2.75390635,14.5117188 C2.61067646,14.993492 2.41211074,15.6315064 2.15820322,16.4257812 C1.9042957,17.2200561 1.68619893,17.9101533 1.50390635,18.4960938 C2.11588857,18.3007803 2.82551689,18.0664076 3.6328126,17.7929688 C4.4401083,17.5195299 5.0585917,17.3111986 5.48828135,17.1679688 C5.42317686,16.9726553 5.31901123,16.7317723 5.17578135,16.4453125 C5.03255146,16.1588527 4.82422021,15.8789076 4.55078135,15.6054688 C4.18619619,15.2408836 3.84114756,14.9772144 3.5156251,14.8144531 C3.19010264,14.6516919 2.93619893,14.5507814 2.75390635,14.5117188 Z M17.9882813,4.90234375 C18.2486993,4.64192578 18.4440099,4.38151172 18.5742188,4.12109375 C18.7044278,3.86067578 18.7695313,3.61328242 18.7695313,3.37890625 C18.7695313,3.14453008 18.7011727,2.90364707 18.5644532,2.65625 C18.4277338,2.40885293 18.2291681,2.16145957 17.9687501,1.9140625 C17.7604157,1.70572812 17.5423189,1.54947969 17.3144532,1.4453125 C17.0865875,1.34114531 16.85547,1.2890625 16.6210938,1.2890625 C16.217446,1.2890625 15.8691422,1.39322812 15.576172,1.6015625 C15.2832018,1.80989688 15.1236981,1.93359355 15.0976563,1.97265625 L15.0000001,2.0703125 C15.2473972,2.17447969 15.5208319,2.3209626 15.8203126,2.50976562 C16.1197933,2.69856865 16.4257798,2.94921719 16.7382813,3.26171875 C17.037762,3.56119941 17.278645,3.86718594 17.4609376,4.1796875 C17.6432302,4.49218906 17.7799476,4.77864453 17.8710938,5.0390625 C17.8971356,5.0130207 17.9199219,4.9869793 17.9394532,4.9609375 C17.9589846,4.9348957 17.9752604,4.91536465 17.9882813,4.90234375 Z" id="pencil-white"></path>
        </g>
    </g>
</svg>