<?xml version="1.0" encoding="UTF-8"?>
<svg width="16px" height="16px" viewBox="0 0 16 16" version="1.1" xmlns="http://www.w3.org/2000/svg" xmlns:xlink="http://www.w3.org/1999/xlink">
    <!-- Generator: Sketch 46 (44423) - http://www.bohemiancoding.com/sketch -->
    <title>icon / world-black</title>
    <desc>Created with Sketch.</desc>
    <defs></defs>
    <g id="Symbols" stroke="none" stroke-width="1" fill="none" fill-rule="evenodd">
        <g id="icon-/-world-black" fill="#000000">
            <path d="M16.015625,8 C16.015625,9.06250531 15.8203145,10.0650995 15.4296875,11.0078125 C15.0390605,11.9505255 14.5026076,12.7786423 13.8203125,13.4921875 C13.1380174,14.2057327 12.3385463,14.783852 11.421875,15.2265625 C10.5052037,15.669273 9.52604688,15.9218747 8.484375,15.984375 C8.44270812,15.984375 8.39843773,15.9869791 8.3515625,15.9921875 C8.30468727,15.9973959 8.26041688,16 8.21875,16 L8,16 C6.89582781,16 5.8567757,15.7890646 4.8828125,15.3671875 C3.9088493,14.9453104 3.05989945,14.3723995 2.3359375,13.6484375 C1.61197555,12.9244755 1.03906461,12.0781298 0.6171875,11.109375 C0.195310391,10.1406202 -0.015625,9.10417219 -0.015625,8 C-0.015625,6.89582781 0.195310391,5.85937984 0.6171875,4.890625 C1.03906461,3.92187016 1.61197555,3.07552445 2.3359375,2.3515625 C3.05989945,1.62760055 3.9088493,1.05468961 4.8828125,0.6328125 C5.8567757,0.210935391 6.89582781,0 8,0 L8.21875,0 C8.26041688,0 8.30468727,0.00260414062 8.3515625,0.0078125 C8.39843773,0.0130208594 8.44270812,0.015625 8.484375,0.015625 C9.52604688,0.0781253125 10.5052037,0.330726953 11.421875,0.7734375 C12.3385463,1.21614805 13.1380174,1.79426727 13.8203125,2.5078125 C14.5026076,3.22135773 15.0390605,4.04947445 15.4296875,4.9921875 C15.8203145,5.93490055 16.015625,6.93749469 16.015625,8 Z M14.53125,10.578125 C14.6875008,10.1822897 14.8072913,9.76823133 14.890625,9.3359375 C14.9739587,8.90364367 15.015625,8.45833563 15.015625,8 C15.015625,7.52083094 14.9687505,7.05468977 14.875,6.6015625 C14.7812495,6.14843523 14.6510425,5.71875203 14.484375,5.3125 L14.671875,5.828125 C14.6406248,5.83854172 14.4453143,5.89062453 14.0859375,5.984375 C13.7265607,6.07812547 13.1614622,6.17187453 12.390625,6.265625 C12.4218752,6.54687641 12.4479166,6.83072773 12.46875,7.1171875 C12.4895834,7.40364727 12.5,7.69791516 12.5,8 C12.5,8.37500187 12.4843752,8.74478984 12.453125,9.109375 C12.4218748,9.47396016 12.3854169,9.82812328 12.34375,10.171875 C12.9479197,10.244792 13.4270816,10.3203121 13.78125,10.3984375 C14.1354184,10.4765629 14.3854159,10.5364581 14.53125,10.578125 Z M4.453125,8 C4.453125,8.36458516 4.46874984,8.71874828 4.5,9.0625 C4.53125016,9.40625172 4.57291641,9.74479 4.625,10.078125 C5.03125203,10.0468748 5.4713518,10.0208334 5.9453125,10 C6.4192732,9.97916656 6.93228891,9.96354172 7.484375,9.953125 L7.484375,6.484375 C6.91145547,6.484375 6.38281492,6.47395844 5.8984375,6.453125 C5.41406008,6.43229156 4.96875203,6.40625016 4.5625,6.375 C4.53124984,6.63541797 4.50520844,6.90104031 4.484375,7.171875 C4.46354156,7.44270969 4.453125,7.71874859 4.453125,8 Z M8.484375,1.0625 L8.484375,5.5 C9.02604438,5.48958328 9.52343523,5.47395844 9.9765625,5.453125 C10.4296898,5.43229156 10.8489564,5.40625016 11.234375,5.375 C11.1093744,4.81249719 10.9557301,4.28906492 10.7734375,3.8046875 C10.5911449,3.32031008 10.3802095,2.89062687 10.140625,2.515625 C9.90104047,2.14062313 9.64062641,1.82812625 9.359375,1.578125 C9.07812359,1.32812375 8.78645984,1.15625047 8.484375,1.0625 Z M7.484375,1.078125 C7.18229016,1.17187547 6.89062641,1.34635289 6.609375,1.6015625 C6.32812359,1.85677211 6.07031367,2.16926898 5.8359375,2.5390625 C5.60156133,2.90885602 5.39062594,3.33593508 5.203125,3.8203125 C5.01562406,4.30468992 4.85937563,4.82291391 4.734375,5.375 C5.11979359,5.40625016 5.54166437,5.43229156 6,5.453125 C6.45833563,5.47395844 6.95312234,5.48958328 7.484375,5.5 L7.484375,1.078125 Z M7.484375,10.953125 C6.97395578,10.9635417 6.50000219,10.9765624 6.0625,10.9921875 C5.62499781,11.0078126 5.21875188,11.0312498 4.84375,11.0625 C4.96875063,11.5625025 5.12499906,12.0286437 5.3125,12.4609375 C5.50000094,12.8932313 5.70833219,13.27604 5.9375,13.609375 C6.16666781,13.94271 6.41145703,14.221353 6.671875,14.4453125 C6.93229297,14.669272 7.20312359,14.8281245 7.484375,14.921875 L7.484375,10.953125 Z M8.484375,14.9375 C8.76562641,14.8541663 9.03906117,14.700522 9.3046875,14.4765625 C9.57031383,14.252603 9.81770719,13.97396 10.046875,13.640625 C10.2760428,13.30729 10.4817699,12.9218772 10.6640625,12.484375 C10.8463551,12.0468728 10.9999994,11.5729192 11.125,11.0625 C10.7604148,11.0312498 10.356773,11.0078126 9.9140625,10.9921875 C9.47135195,10.9765624 8.99479422,10.9635417 8.484375,10.953125 L8.484375,14.9375 Z M8.484375,9.953125 C9.03646109,9.96354172 9.5494768,9.97916656 10.0234375,10 C10.4973982,10.0208334 10.9322897,10.0468748 11.328125,10.078125 C11.3802086,9.74479 11.4218748,9.40625172 11.453125,9.0625 C11.4843752,8.71874828 11.5,8.36458516 11.5,8 C11.5,7.71874859 11.4895834,7.44270969 11.46875,7.171875 C11.4479166,6.90104031 11.4218752,6.63020969 11.390625,6.359375 C10.9947897,6.40104188 10.5546899,6.43229156 10.0703125,6.453125 C9.58593508,6.47395844 9.05729453,6.484375 8.484375,6.484375 L8.484375,9.953125 Z M14.296875,4.90625 C13.9322898,4.16666297 13.4479197,3.51041953 12.84375,2.9375 C12.2395803,2.36458047 11.5572955,1.91146 10.796875,1.578125 C11.1197933,2.03646063 11.4062487,2.58072602 11.65625,3.2109375 C11.9062513,3.84114898 12.1041659,4.53124625 12.25,5.28125 C12.8750031,5.20833297 13.354165,5.13281289 13.6875,5.0546875 C14.020835,4.97656211 14.223958,4.92708344 14.296875,4.90625 Z M5.609375,1.421875 C5.17187281,1.57812578 4.76041859,1.77343633 4.375,2.0078125 C3.98958141,2.24218867 3.63021,2.51041516 3.296875,2.8125 C2.96354,3.11458484 2.65885555,3.4453107 2.3828125,3.8046875 C2.10676945,4.1640643 1.86979266,4.54687297 1.671875,4.953125 C1.80729234,4.99479188 2.04687328,5.04687469 2.390625,5.109375 C2.73437672,5.17187531 3.19270547,5.23437469 3.765625,5.296875 C3.94270922,4.49478766 4.19270672,3.76562828 4.515625,3.109375 C4.83854328,2.45312172 5.20312297,1.89062734 5.609375,1.421875 Z M1.3125,5.890625 C1.20833281,6.22396 1.12760445,6.56770656 1.0703125,6.921875 C1.01302055,7.27604344 0.984375,7.63541484 0.984375,8 C0.984375,8.44791891 1.02343711,8.88281039 1.1015625,9.3046875 C1.17968789,9.72656461 1.29687422,10.1302064 1.453125,10.515625 C1.60937578,10.4843748 1.86978984,10.4348962 2.234375,10.3671875 C2.59896016,10.2994788 3.07291375,10.2343753 3.65625,10.171875 C3.59374969,9.82812328 3.54687516,9.47396016 3.515625,9.109375 C3.48437484,8.74478984 3.46875,8.37500187 3.46875,8 C3.46875,7.70833187 3.47656242,7.41666812 3.4921875,7.125 C3.50781258,6.83333188 3.53645813,6.55208469 3.578125,6.28125 C2.90103828,6.20833297 2.37760602,6.13281289 2.0078125,6.0546875 C1.63801898,5.97656211 1.40625047,5.92187516 1.3125,5.890625 Z M1.890625,11.4375 C2.09895937,11.8020852 2.33593617,12.1432276 2.6015625,12.4609375 C2.86718883,12.7786474 3.15624844,13.0703112 3.46875,13.3359375 C3.78125156,13.6015638 4.1171857,13.8411448 4.4765625,14.0546875 C4.8359393,14.2682302 5.21353969,14.4427077 5.609375,14.578125 C5.23437312,14.1614563 4.89843898,13.6614613 4.6015625,13.078125 C4.30468602,12.4947887 4.06250094,11.8489619 3.875,11.140625 C3.38541422,11.1927086 2.97916828,11.2473955 2.65625,11.3046875 C2.33333172,11.3619795 2.07812594,11.4062498 1.890625,11.4375 Z M10.796875,14.421875 C11.4843784,14.1197902 12.1093722,13.7187525 12.671875,13.21875 C13.2343778,12.7187475 13.7031231,12.1406283 14.078125,11.484375 C13.9218742,11.4427081 13.6875016,11.3932295 13.375,11.3359375 C13.0624984,11.2786455 12.6562525,11.2187503 12.15625,11.15625 C12.0104159,11.8125033 11.8203137,12.4166639 11.5859375,12.96875 C11.3515613,13.5208361 11.0885431,14.0052063 10.796875,14.421875 Z" id="world-black"></path>
        </g>
    </g>
</svg>