<?xml version="1.0" encoding="UTF-8"?>
<svg width="575px" height="167px" viewBox="0 0 575 167" version="1.1" xmlns="http://www.w3.org/2000/svg" xmlns:xlink="http://www.w3.org/1999/xlink">
    <!-- Generator: Sketch 46 (44423) - http://www.bohemiancoding.com/sketch -->
    <title>resource-list / overview-none</title>
    <desc>Created with Sketch.</desc>
    <defs>
        <rect id="path-1" x="0" y="55" width="575" height="112"></rect>
        <mask id="mask-2" maskContentUnits="userSpaceOnUse" maskUnits="objectBoundingBox" x="0" y="0" width="575" height="112" fill="white">
            <use xlink:href="#path-1"></use>
        </mask>
    </defs>
    <g id="Symbols" stroke="none" stroke-width="1" fill="none" fill-rule="evenodd">
        <g id="resource-list-/-overview-none">
            <g>
                <use id="background" stroke="#CFCFCF" mask="url(#mask-2)" stroke-width="2" stroke-dasharray="5,5" xlink:href="#path-1"></use>
                <g id="icon-/-docs-black" transform="translate(0.000000, 5.000000)" fill="#000000">
                    <path d="M15,0.25 L20,5.25 L20,16.5 C20,16.8515643 19.8795585,17.1477853 19.6386719,17.3886719 C19.3977853,17.6295585 19.1015643,17.75 18.75,17.75 L14.375,17.75 L14.375,16.5 L18.75,16.5 L18.75,6.5 L13.75,6.5 L13.75,1.5 L6.875,1.5 C6.875,1.14843574 6.9954415,0.852214746 7.23632812,0.611328125 C7.47721475,0.370441504 7.77343574,0.25 8.125,0.25 L15,0.25 Z M15,5.25 L18.2226562,5.25 L15,2.0078125 L15,5.25 Z M1.25,2.75 L8.125,2.75 L13.125,7.75 L13.125,19 C13.125,19.3515643 13.0045585,19.6477853 12.7636719,19.8886719 C12.5227853,20.1295585 12.2265643,20.25 11.875,20.25 L1.25,20.25 C0.898435742,20.25 0.602214746,20.1295585 0.361328125,19.8886719 C0.120441504,19.6477853 0,19.3515643 0,19 L0,4 C0,3.64843574 0.120441504,3.35221475 0.361328125,3.11132812 C0.602214746,2.8704415 0.898435742,2.75 1.25,2.75 Z M11.875,19 L11.875,9 L6.875,9 L6.875,4 L1.25,4 L1.25,19 L11.875,19 Z M8.125,7.75 L11.3476562,7.75 L8.125,4.5078125 L8.125,7.75 Z" id="docs-black"></path>
                </g>
                <text id="Title" font-family="ZillaSlabRegular, Zilla Slab" font-size="28" font-weight="normal" line-spacing="30" fill="#FABA00">
                    <tspan x="30" y="26">Club Resources</tspan>
                </text>
                <text id="Copy" font-family="OpenSans-Regular, Open Sans" font-size="16" font-weight="normal" line-spacing="26" fill="#909090">
                    <tspan x="30" y="102">It looks like there aren’t any resources added </tspan>
                    <tspan x="30" y="128">quite yet, check back later!</tspan>
                </text>
            </g>
        </g>
    </g>
</svg>