<?xml version="1.0" encoding="UTF-8"?>
<svg width="20px" height="16px" viewBox="0 0 20 16" version="1.1" xmlns="http://www.w3.org/2000/svg" xmlns:xlink="http://www.w3.org/1999/xlink">
    <!-- Generator: Sketch 46.2 (44496) - http://www.bohemiancoding.com/sketch -->
    <title>icon / campus-black</title>
    <desc>Created with Sketch.</desc>
    <defs></defs>
    <g id="Symbols" stroke="none" stroke-width="1" fill="none" fill-rule="evenodd">
        <g id="icon-/-campus-black" fill="#000000">
            <path d="M19.3554688,11.4160161 C19.7721375,11.6634131 19.9804688,12.0279928 19.9804688,12.5097661 C19.9804688,12.8483094 19.8600272,13.1412752 19.6191406,13.3886723 C19.378254,13.6360694 19.082033,13.7597661 18.7304688,13.7597661 C18.6653643,13.7597661 18.5970056,13.7532557 18.5253906,13.7402348 C18.4537757,13.7272139 18.3886722,13.710938 18.3300781,13.6914067 C18.2714841,13.6718753 18.2128909,13.6458339 18.1542969,13.6132817 C18.0957028,13.5807294 18.0403648,13.5449225 17.9882812,13.5058598 C17.9361977,13.4667971 17.88737,13.4244798 17.8417969,13.3789067 C17.7962237,13.3333335 17.7539064,13.2845059 17.7148438,13.2324223 C17.6757811,13.1803387 17.6432293,13.1250007 17.6171875,13.0664067 C17.5911457,13.0078126 17.5683595,12.9492195 17.5488281,12.8906254 C17.5292968,12.8320314 17.5130209,12.7701831 17.5,12.7050786 C17.4869791,12.6399741 17.4804688,12.5748706 17.4804688,12.5097661 C17.4804688,12.3535153 17.5065102,12.2070324 17.5585938,12.0703129 C17.6106773,11.9335935 17.6822912,11.8098968 17.7734375,11.6992192 C17.8645838,11.5885416 17.9752598,11.4941415 18.1054688,11.4160161 L18.1054688,7.04101606 L15.5664062,8.36914106 C15.592448,8.40820376 15.6087239,8.45052104 15.6152344,8.49609419 C15.6217448,8.54166733 15.625,8.58398462 15.625,8.62304731 L15.625,14.0527348 C15.625,14.1438811 15.6054689,14.2317708 15.5664062,14.3164067 C15.5273436,14.4010425 15.4687504,14.4694012 15.390625,14.5214848 C15.3645832,14.5475266 15.3287763,14.5768232 15.2832031,14.6093754 C15.23763,14.6419277 15.1595058,14.6907553 15.0488281,14.7558598 C14.9381505,14.8209643 14.8079435,14.8828126 14.6582031,14.9414067 C14.5084628,15.0000007 14.3294281,15.0618491 14.1210938,15.1269536 C13.9127594,15.1920581 13.6686212,15.2539064 13.3886719,15.3125004 C13.1087226,15.3710945 12.802736,15.4264325 12.4707031,15.4785161 C12.1386702,15.5305997 11.7578146,15.5696618 11.328125,15.5957036 C10.8984354,15.6217454 10.4427107,15.6347661 9.9609375,15.6347661 C8.77603574,15.6347661 7.73763467,15.5371108 6.84570312,15.3417973 C5.95377158,15.1464838 5.38086064,14.9804699 5.12695312,14.8437504 C4.87304561,14.707031 4.68750059,14.5800792 4.5703125,14.4628911 C4.42708262,14.345703 4.35546875,14.1894545 4.35546875,13.9941411 L4.35546875,8.70117231 C4.35546875,8.59700513 4.38151016,8.49934985 4.43359375,8.40820356 L0.33203125,6.22070356 C0.227864062,6.16861997 0.146484668,6.09375093 0.087890625,5.99609419 C0.029296582,5.89843745 0,5.79101665 0,5.67382856 C0,5.42643149 0.104165625,5.24414165 0.3125,5.12695356 L9.66796875,0.0878910645 C9.87630312,-0.0292970215 10.078124,-0.0292970215 10.2734375,0.0878910645 L19.6875,5.10742231 C19.7265627,5.13346411 19.76888,5.16927104 19.8144531,5.21484419 C19.8600263,5.26041733 19.8958332,5.30598979 19.921875,5.35156294 C19.9479168,5.39713608 19.9674479,5.44596372 19.9804688,5.49804731 C19.9934896,5.55013091 20,5.60872407 20,5.67382856 C20,5.77799575 19.9707034,5.88216138 19.9121094,5.98632856 C19.8535153,6.09049575 19.7721359,6.16861997 19.6679688,6.22070356 L19.3554688,6.37695356 L19.3554688,11.4160161 Z M14.375,13.6816411 L14.375,9.01367231 L10.2539062,11.1816411 L9.9609375,11.2597661 C9.90885391,11.2597661 9.85677109,11.2532557 9.8046875,11.2402348 C9.75260391,11.2272139 9.70703145,11.2076829 9.66796875,11.1816411 L5.60546875,9.03320356 L5.60546875,13.6621098 C6.54297344,14.1438831 7.99478184,14.3847661 9.9609375,14.3847661 C10.7682332,14.3847661 11.5006478,14.3391936 12.1582031,14.2480473 C12.8157585,14.156901 13.2942693,14.0657561 13.59375,13.9746098 C13.8932307,13.8834635 14.1536447,13.7858083 14.375,13.6816411 Z M9.9609375,9.93164106 L18.046875,5.65429731 L9.98046875,1.33789106 L1.9140625,5.65429731 L9.9609375,9.93164106 Z"></path>
        </g>
    </g>
</svg>