<?xml version="1.0" encoding="UTF-8" standalone="no"?>
<svg
   xmlns:dc="http://purl.org/dc/elements/1.1/"
   xmlns:cc="http://creativecommons.org/ns#"
   xmlns:rdf="http://www.w3.org/1999/02/22-rdf-syntax-ns#"
   xmlns:svg="http://www.w3.org/2000/svg"
   xmlns="http://www.w3.org/2000/svg"
   xmlns:sodipodi="http://sodipodi.sourceforge.net/DTD/sodipodi-0.dtd"
   xmlns:inkscape="http://www.inkscape.org/namespaces/inkscape"
   viewBox="0 0 29.999998 29.999998"
   version="1.1"
   id="svg12"
   sodipodi:docname="facebook-f-icon.svg"
   inkscape:version="0.92+devel unknown"
   width="30"
   height="30">
  <metadata
     id="metadata16">
    <rdf:RDF>
      <cc:Work
         rdf:about="">
        <dc:format>image/svg+xml</dc:format>
        <dc:type
           rdf:resource="http://purl.org/dc/dcmitype/StillImage" />
        <dc:title>Asset 1</dc:title>
      </cc:Work>
    </rdf:RDF>
  </metadata>
  <sodipodi:namedview
     pagecolor="#ffffff"
     bordercolor="#666666"
     inkscape:document-rotation="0"
     borderopacity="1"
     objecttolerance="10"
     gridtolerance="10"
     guidetolerance="10"
     inkscape:pageopacity="0"
     inkscape:pageshadow="2"
     inkscape:window-width="1920"
     inkscape:window-height="1016"
     id="namedview14"
     showgrid="false"
     inkscape:zoom="2.6078158"
     inkscape:cx="133.44501"
     inkscape:cy="133.44501"
     inkscape:window-x="0"
     inkscape:window-y="0"
     inkscape:window-maximized="1"
     inkscape:current-layer="svg12" />
  <defs
     id="defs4">
    <style
       id="style2">.cls-1{fill:#3c5a99;}</style>
  </defs>
  <title
     id="title6">Asset 1</title>
  <g
     id="Layer_2"
     data-name="Layer 2"
     style="fill:#000000;fill-opacity:1"
     transform="matrix(0.11240586,0,0,0.11240586,0,-1.4648438e-5)">
    <g
       id="Blue"
       style="fill:#000000;fill-opacity:1">
      <path
         class="cls-1"
         d="M 252.16,0 H 14.73 A 14.73,14.73 0 0 0 0,14.73 v 237.43 a 14.73,14.73 0 0 0 14.73,14.73 H 142.56 V 163.54 h -34.79 v -40.28 h 34.78 V 93.55 c 0,-34.47 21.05,-53.24 51.81,-53.24 a 285.41,285.41 0 0 1 31.08,1.59 v 36 h -21.33 c -16.72,0 -20,7.95 -20,19.61 v 25.72 H 224 l -5.19,40.28 h -34.66 v 103.38 h 68 a 14.73,14.73 0 0 0 14.73,-14.73 V 14.73 A 14.73,14.73 0 0 0 252.16,0 Z"
         id="path8"
         style="fill:#000000;fill-opacity:1"
         inkscape:connector-curvature="0" />
    </g>
  </g>
</svg>
