<?xml version="1.0" encoding="UTF-8"?>
<svg width="15px" height="19px" viewBox="0 0 15 19" version="1.1" xmlns="http://www.w3.org/2000/svg" xmlns:xlink="http://www.w3.org/1999/xlink">
    <!-- Generator: Sketch 44.1 (41455) - http://www.bohemiancoding.com/sketch -->
    <title>icon / flag-red</title>
    <desc>Created with Sketch.</desc>
    <defs></defs>
    <g id="Symbols" stroke="none" stroke-width="1" fill="none" fill-rule="evenodd">
        <g id="icon-/-flag-red" fill="#FF8C8E">
            <path d="M14.140625,6.609375 C14.4531266,6.55729141 14.739582,6.47916719 15,6.375 C15,6.84375234 14.8828137,7.31249766 14.6484375,7.78125 C13.945309,9.05729805 12.9492252,10.0924439 11.6601562,10.8867187 C10.3710873,11.6809936 9.01042383,11.7395867 7.578125,11.0625 C5.67707383,10.1510371 4.15365156,9.83854023 3.0078125,10.125 L2.96875,10.125 L2.890625,10.1640625 C2.49999805,10.2942715 2.16145977,10.3072922 1.875,10.203125 L1.875,2.5078125 C1.875,2.19531094 1.99869668,1.90885547 2.24609375,1.6484375 C2.49349082,1.38801953 2.79947734,1.21875039 3.1640625,1.140625 C5.74220039,0.671872656 7.66926445,1.63540469 8.9453125,4.03125 C10.0651098,6.14063555 11.7968633,7.00000195 14.140625,6.609375 Z M0.9375,0.75 C1.14583438,0.75 1.25,0.854165625 1.25,1.0625 L1.25,17.9375 C1.25,18.1458344 1.14583438,18.25 0.9375,18.25 L0.3125,18.25 C0.104165625,18.25 0,18.1458344 0,17.9375 L0,1.0625 C0,0.854165625 0.104165625,0.75 0.3125,0.75 L0.9375,0.75 Z" id="flag-red"></path>
        </g>
    </g>
</svg>