<?xml version="1.0" encoding="UTF-8"?>
<svg width="18px" height="18px" viewBox="0 0 18 18" version="1.1" xmlns="http://www.w3.org/2000/svg" xmlns:xlink="http://www.w3.org/1999/xlink">
    <!-- Generator: Sketch 46.2 (44496) - http://www.bohemiancoding.com/sketch -->
    <title>icon / github-black</title>
    <desc>Created with Sketch.</desc>
    <defs></defs>
    <g id="Symbols" stroke="none" stroke-width="1" fill="none" fill-rule="evenodd">
        <g id="icon-/-github-black" fill="#000000">
            <path d="M11.8470507,17.9850526 C11.3901108,18.0691589 11.2384334,17.7816328 11.2384334,17.5400717 L11.2384334,15.0061255 C11.2384334,14.1406132 10.9570194,13.5880545 10.6288622,13.2995503 C12.632148,13.071681 14.7422757,12.290275 14.7422757,8.74607535 C14.7422757,7.73679997 14.3902698,6.90845089 13.8169484,6.27178589 C13.9104351,6.03120281 14.2147438,5.09429794 13.7215539,3.82096795 C12.9717526,3.58038487 11.2498808,4.76960858 11.2498808,4.76960858 C10.5353755,4.56618873 9.76077164,4.45763295 8.99952303,4.45763295 C8.23827442,4.45763295 7.46462452,4.56618873 6.75011924,4.76960858 C6.75011924,4.76960858 5.02729344,3.58038487 4.26509089,3.82096795 C3.78525624,5.09429794 4.08956489,6.03120281 4.18305157,6.27178589 C3.60973025,6.90845089 3.25772431,7.73679997 3.25772431,8.74607535 C3.25772431,12.2785392 5.35545074,13.071681 7.3596905,13.2995503 C7.10117123,13.5401334 6.86745456,13.9371933 6.78541523,14.5376731 C6.26933065,14.7772782 4.95670147,15.1860738 4.17160422,13.7680028 C3.67936828,12.8917327 2.78933701,12.8193622 2.78933701,12.8193622 C1.91075309,12.8076264 2.73114632,13.3836566 2.73114632,13.3836566 C3.31686894,13.660425 3.72611161,14.7293571 3.72611161,14.7293571 C4.25364354,16.3752975 6.76156659,15.8227388 6.76156659,15.8227388 C6.76156659,16.5914311 6.77396788,17.3239381 6.77396788,17.5400717 C6.77396788,17.7816328 6.60988924,18.0691589 6.15294928,17.9850526 C2.57851502,16.7596437 0,13.2995503 0,9.22724153 C0,4.13294358 4.03137421,0 8.99952303,0 C13.9686258,0 18,4.13294358 18,9.22724153 C18,13.2995503 15.421485,16.7596437 11.8470507,17.9850526" id="Fill-1"></path>
        </g>
    </g>
</svg>