<?xml version="1.0" encoding="UTF-8"?>
<svg width="10px" height="14px" viewBox="0 0 10 14" version="1.1" xmlns="http://www.w3.org/2000/svg" xmlns:xlink="http://www.w3.org/1999/xlink">
    <!-- Generator: Sketch 44.1 (41455) - http://www.bohemiancoding.com/sketch -->
    <title>icon / location-pin-black</title>
    <desc>Created with Sketch.</desc>
    <defs></defs>
    <g id="Symbols" stroke="none" stroke-width="1" fill="none" fill-rule="evenodd">
        <g id="icon-/-location-pin-black" fill="#000000">
            <path d="M4.80769231,0 C6.1298143,0 7.26161388,0.460732572 8.203125,1.38221154 C9.14463612,2.3036905 9.61538462,3.41545823 9.61538462,4.71754808 C9.61538462,5.75921995 9.2147476,7.01121064 8.41346154,8.47355769 C7.61217548,9.93590475 6.81090144,11.1378158 6.00961538,12.0793269 L4.80769231,13.4615385 C4.66746725,13.3213134 4.49218855,13.1260029 4.28185096,12.875601 C4.07151337,12.6251991 3.6909082,12.1394267 3.14002404,11.4182692 C2.58913987,10.6971118 2.10336749,9.995997 1.68269231,9.31490385 C1.26201713,8.6338107 0.876403996,7.86258444 0.525841346,7.00120192 C0.175278696,6.13981941 0,5.37860907 0,4.71754808 C0,3.41545823 0.470748498,2.3036905 1.41225962,1.38221154 C2.35377073,0.460732572 3.48557031,0 4.80769231,0 Z M4.80769231,6.40024038 C5.28846394,6.40024038 5.69410892,6.23497761 6.02463942,5.90444712 C6.35516992,5.57391662 6.52043269,5.17828756 6.52043269,4.71754808 C6.52043269,4.25680859 6.35516992,3.86117954 6.02463942,3.53064904 C5.69410892,3.20011854 5.28846394,3.03485577 4.80769231,3.03485577 C4.32692067,3.03485577 3.92127569,3.20011854 3.59074519,3.53064904 C3.26021469,3.86117954 3.09495192,4.25680859 3.09495192,4.71754808 C3.09495192,5.17828756 3.26021469,5.57391662 3.59074519,5.90444712 C3.92127569,6.23497761 4.32692067,6.40024038 4.80769231,6.40024038 Z" id="location-pin-black"></path>
        </g>
    </g>
</svg>