<?xml version="1.0" encoding="UTF-8" standalone="no"?>
<svg
   xmlns:dc="http://purl.org/dc/elements/1.1/"
   xmlns:cc="http://creativecommons.org/ns#"
   xmlns:rdf="http://www.w3.org/1999/02/22-rdf-syntax-ns#"
   xmlns:svg="http://www.w3.org/2000/svg"
   xmlns="http://www.w3.org/2000/svg"
   xmlns:sodipodi="http://sodipodi.sourceforge.net/DTD/sodipodi-0.dtd"
   xmlns:inkscape="http://www.inkscape.org/namespaces/inkscape"
   id="Logo_FIXED"
   data-name="Logo — FIXED"
   viewBox="0 0 30 24.377001"
   version="1.1"
   sodipodi:docname="Twitter_Logo_Blue.svg"
   width="30"
   height="24.377001"
   inkscape:version="0.92+devel unknown">
  <metadata
     id="metadata15">
    <rdf:RDF>
      <cc:Work
         rdf:about="">
        <dc:format>image/svg+xml</dc:format>
        <dc:type
           rdf:resource="http://purl.org/dc/dcmitype/StillImage" />
        <dc:title>Twitter_Logo_Blue</dc:title>
      </cc:Work>
    </rdf:RDF>
  </metadata>
  <sodipodi:namedview
     pagecolor="#ffffff"
     bordercolor="#666666"
     inkscape:document-rotation="0"
     borderopacity="1"
     objecttolerance="10"
     gridtolerance="10"
     guidetolerance="10"
     inkscape:pageopacity="0"
     inkscape:pageshadow="2"
     inkscape:window-width="1920"
     inkscape:window-height="1016"
     id="namedview13"
     showgrid="false"
     inkscape:zoom="2.1025"
     inkscape:cx="91.795482"
     inkscape:cy="200"
     inkscape:window-x="0"
     inkscape:window-y="0"
     inkscape:window-maximized="1"
     inkscape:current-layer="Logo_FIXED" />
  <defs
     id="defs4">
    <style
       id="style2">.cls-1{fill:none;}.cls-2{fill:#1da1f2;}</style>
  </defs>
  <title
     id="title6">Twitter_Logo_Blue</title>
  <rect
     class="cls-1"
     width="400"
     height="400"
     id="rect8"
     x="0"
     y="-375.62299" />
  <path
     class="cls-2"
     d="m 9.4344,24.377 c 11.3208,0 17.5128,-9.3792 17.5128,-17.5128005 0,-0.2664 0,-0.5316 -0.018,-0.7956 a 12.5232,12.5232 0 0 0 3.0708,-3.186 12.2856,12.2856 0 0 1 -3.5352,0.9684 6.1764,6.1764 0 0 0 2.706,-3.40439999 12.3348,12.3348 0 0 1 -3.9084,1.49399999 6.1608,6.1608 0 0 0 -10.4892,5.6136 17.4744,17.4744 0 0 1 -12.6852,-6.4308 6.1596,6.1596 0 0 0 1.9056,8.2164 6.1092,6.1092 0 0 1 -2.7936,-0.7704 c 0,0.0252 0,0.0516 0,0.078 A 6.1572,6.1572 0 0 0 6.138,14.681 6.1452,6.1452 0 0 1 3.3588,14.7866 6.162,6.162 0 0 0 9.1092,19.061 12.3504,12.3504 0 0 1 1.4652,21.701 12.5292,12.5292 0 0 1 0,21.6122 a 17.4252,17.4252 0 0 0 9.4344,2.76"
     id="path10"
     style="fill:#000000;fill-opacity:1;stroke-width:0.12"
     inkscape:connector-curvature="0" />
</svg>
