<?xml version="1.0" encoding="UTF-8"?>
<svg width="30px" height="24px" viewBox="0 0 30 24" version="1.1" xmlns="http://www.w3.org/2000/svg" xmlns:xlink="http://www.w3.org/1999/xlink">
    <!-- Generator: Sketch 44.1 (41455) - http://www.bohemiancoding.com/sketch -->
    <title>icon / twitter-black</title>
    <desc>Created with Sketch.</desc>
    <defs></defs>
    <g id="Symbols" stroke="none" stroke-width="1" fill="none" fill-rule="evenodd">
        <g id="icon-/-twitter-black" fill="#000000">
            <path d="M20.0390625,1.53320312 C18.5546801,1.53320312 17.2851615,2.04101055 16.2304688,3.05664062 C15.175776,4.0722707 14.6484375,5.30272715 14.6484375,6.74804688 C14.6484375,6.94336035 14.6630858,7.14355366 14.6923828,7.34863281 C14.7216798,7.55371196 14.7558592,7.75390527 14.7949219,7.94921875 C13.6816351,7.89062471 12.6025443,7.71972798 11.5576172,7.43652344 C10.5126901,7.1533189 9.5166063,6.77734609 8.56933594,6.30859375 C7.62206558,5.83984141 6.73828535,5.28320635 5.91796875,4.63867188 C5.09765215,3.9941374 4.35547207,3.27148838 3.69140625,2.47070312 C3.45703008,2.86133008 3.27636782,3.27636499 3.14941406,3.71582031 C3.0224603,4.15527563 2.95898437,4.61913818 2.95898437,5.10742188 C2.95898437,6.00586387 3.17870874,6.83593369 3.61816406,7.59765625 C4.05761938,8.35937881 4.63866826,8.97460703 5.36132812,9.44335938 C4.91210713,9.44335938 4.48242393,9.38476621 4.07226562,9.26757812 C3.66210732,9.15039004 3.28125176,8.9941416 2.9296875,8.79882812 L2.9296875,8.85742188 C2.9296875,10.1269595 3.33983965,11.2402296 4.16015625,12.1972656 C4.98047285,13.1543017 6.00585322,13.7499988 7.23632813,13.984375 C7.0214833,14.042969 6.79199341,14.0917967 6.54785156,14.1308594 C6.30370972,14.1699221 6.0644543,14.1894531 5.83007812,14.1894531 C5.654296,14.1894531 5.48339927,14.1796876 5.31738281,14.1601562 C5.15136636,14.1406249 4.98046963,14.1113283 4.8046875,14.0722656 C5.15625176,15.1074271 5.79101104,15.9667935 6.70898438,16.6503906 C7.62695771,17.3339878 8.67186914,17.6855468 9.84375,17.7050781 C8.92577666,18.4082066 7.89551353,18.9599589 6.75292969,19.3603516 C5.61034585,19.7607442 4.41406875,19.9609375 3.1640625,19.9609375 C2.92968633,19.9609375 2.70996196,19.951172 2.50488281,19.9316406 C2.29980366,19.9121093 2.08984482,19.8925782 1.875,19.8730469 C3.06641221,20.6152381 4.36034458,21.1914042 5.75683594,21.6015625 C7.15332729,22.0117208 8.61327363,22.2167969 10.1367188,22.2167969 C12.5976686,22.2167969 14.7851467,21.7675826 16.6992188,20.8691406 C18.6132908,19.9706986 20.2197201,18.8086009 21.5185547,17.3828125 C22.8173893,15.9570241 23.7988248,14.3603604 24.4628906,12.5927734 C25.1269564,10.8251865 25.4589844,9.08203984 25.4589844,7.36328125 L25.4589844,7.01171875 C25.4589844,6.89453066 25.4492188,6.78710986 25.4296875,6.68945312 C25.9570339,6.31835752 26.450193,5.90332261 26.9091797,5.44433594 C27.3681664,4.98534927 27.7734357,4.49219014 28.125,3.96484375 C27.6367163,4.17968857 27.1337917,4.35546807 26.6162109,4.4921875 C26.0986302,4.62890693 25.5761745,4.72656221 25.0488281,4.78515625 C25.5957059,4.47265469 26.0742167,4.0673853 26.484375,3.56933594 C26.8945333,3.07128657 27.1972646,2.51953428 27.3925781,1.9140625 C26.8847631,2.20703271 26.3427763,2.46093643 25.7666016,2.67578125 C25.1904268,2.89062607 24.5996124,3.05664004 23.9941406,3.17382812 C23.4863256,2.66601309 22.8955112,2.26562646 22.2216797,1.97265625 C21.5478482,1.67968604 20.8203164,1.53320312 20.0390625,1.53320312 Z M20.0390625,-0.341796875 C20.8593791,-0.341796875 21.6455041,-0.21484502 22.3974609,0.0390625 C23.1494178,0.29297002 23.847653,0.654294531 24.4921875,1.12304688 C24.8437518,1.02539014 25.1855452,0.908203809 25.5175781,0.771484375 C25.849611,0.634764941 26.1621079,0.468750977 26.4550781,0.2734375 C26.6113289,0.195312109 26.7675773,0.136718945 26.9238281,0.09765625 C27.0800789,0.0585935547 27.2363273,0.0390625 27.3925781,0.0390625 C27.6074229,0.0390625 27.8173818,0.0732418457 28.0224609,0.141601562 C28.2275401,0.209961279 28.4179679,0.312499316 28.59375,0.44921875 C28.8867202,0.683594922 29.0869135,0.981443506 29.1943359,1.34277344 C29.3017583,1.70410337 29.3066411,2.07031064 29.2089844,2.44140625 C29.4433605,2.59765703 29.6337883,2.81249863 29.7802734,3.0859375 C29.9267585,3.35937637 30,3.65234219 30,3.96484375 C30,4.17968857 29.9658207,4.38476465 29.8974609,4.58007812 C29.8291012,4.7753916 29.7363287,4.95117109 29.6191406,5.10742188 C29.3066391,5.57617422 28.9550801,6.01562295 28.5644531,6.42578125 C28.1738262,6.83593955 27.763674,7.22656064 27.3339844,7.59765625 C27.2949217,9.62891641 26.8798868,11.6357323 26.0888672,13.6181641 C25.2978476,15.6005958 24.1650464,17.3681563 22.6904297,18.9208984 C21.2158129,20.4736406 19.4189559,21.7236281 17.2998047,22.6708984 C15.1806535,23.6181688 12.792982,24.0917969 10.1367188,24.0917969 C9.31640215,24.0917969 8.50098062,24.0380865 7.69042969,23.9306641 C6.87987876,23.8232417 6.08398828,23.6572277 5.30273438,23.4326172 C4.52148047,23.2080067 3.75976934,22.9345719 3.01757812,22.6123047 C2.27538691,22.2900375 1.56250342,21.9042991 0.87890625,21.4550781 C0.507810645,21.2402333 0.24902417,20.9228537 0.102539062,20.5029297 C-0.0439460449,20.0830057 -0.0488288086,19.6679708 0.087890625,19.2578125 C0.224610059,18.8867169 0.458982715,18.5839855 0.791015625,18.3496094 C1.12304854,18.1152332 1.48437305,17.9980469 1.875,17.9980469 L1.97753906,17.9980469 C2.00683608,17.9980469 2.04101543,18.0078124 2.08007812,18.0273438 C2.25586025,18.0468751 2.43163975,18.0615234 2.60742187,18.0712891 C2.783204,18.0810547 2.96874902,18.0859375 3.1640625,18.0859375 C3.49609541,18.0859375 3.8330061,18.0664064 4.17480469,18.0273438 C4.51660327,17.9882811 4.85351396,17.9296879 5.18554688,17.8515625 C4.69726318,17.4414042 4.26757998,16.9677761 3.89648438,16.4306641 C3.52538877,15.893552 3.23242295,15.3027376 3.01757812,14.6582031 C2.97851543,14.5019523 2.95410161,14.3408211 2.94433594,14.1748047 C2.93457026,14.0087882 2.94921855,13.847657 2.98828125,13.6914062 C2.38280947,13.0468718 1.9091814,12.3095745 1.56738281,11.4794922 C1.22558423,10.6494099 1.0546875,9.77539521 1.0546875,8.85742188 L1.0546875,8.79882812 C1.0546875,8.56445195 1.09374961,8.33984482 1.171875,8.125 C1.25000039,7.91015518 1.36718672,7.71484463 1.5234375,7.5390625 C1.38671807,7.16796689 1.27929727,6.7773458 1.20117188,6.3671875 C1.12304648,5.9570292 1.08398438,5.53711152 1.08398438,5.10742188 C1.08398438,4.48241875 1.17187412,3.86230776 1.34765625,3.24707031 C1.52343838,2.63183286 1.76757656,2.05078398 2.08007812,1.50390625 C2.23632891,1.24999873 2.44628774,1.04492266 2.70996094,0.888671875 C2.97363413,0.732421094 3.25195166,0.644531348 3.54492187,0.625 C3.56445322,0.605468652 3.58886704,0.595703125 3.61816406,0.595703125 L3.69140625,0.595703125 C3.96484512,0.595703125 4.22851436,0.654296289 4.48242188,0.771484375 C4.73632939,0.888672461 4.951171,1.05468643 5.12695312,1.26953125 C6.10352051,2.44141211 7.25585273,3.41796484 8.58398438,4.19921875 C9.91211602,4.98047266 11.337883,5.51757666 12.8613281,5.81054688 C12.9785162,4.95116758 13.2470682,4.14551157 13.6669922,3.39355469 C14.0869162,2.6415978 14.6142546,1.98730747 15.2490234,1.43066406 C15.8837922,0.874020654 16.611324,0.439454688 17.4316406,0.126953125 C18.2519572,-0.185548438 19.1210892,-0.341796875 20.0390625,-0.341796875 Z" id="twitter-black"></path>
        </g>
    </g>
</svg>